<svg id="Group_1963" data-name="Group 1963" xmlns="http://www.w3.org/2000/svg" xmlns:xlink="http://www.w3.org/1999/xlink" width="909.834" height="531.801" viewBox="0 0 909.834 531.801">
  <defs>
    <clipPath id="clip-path">
      <rect id="Rectangle_574" data-name="Rectangle 574" width="909.834" height="531.801" fill="none"/>
    </clipPath>
  </defs>
  <g id="Group_1962" data-name="Group 1962" clip-path="url(#clip-path)">
    <path id="Path_3134" data-name="Path 3134" d="M164.622,257.059a78.164,78.164,0,1,1,78.164-78.164,78.252,78.252,0,0,1-78.164,78.164m0-155.322a77.159,77.159,0,1,0,77.159,77.159,77.246,77.246,0,0,0-77.159-77.159" transform="translate(29.404 34.258)" fill="#e30230"/>
    <path id="Path_3135" data-name="Path 3135" d="M176.492,230.04H141.813V190.764H102.539V156.087h39.274V116.811h34.679v39.276h39.274v34.678H176.492Zm-33.674-1.005h32.669V189.759h39.274V157.092H175.487V117.816H142.818v39.276H103.544v32.668h39.274Z" transform="translate(34.873 39.727)" fill="#e30230"/>
    <path id="Path_3136" data-name="Path 3136" d="M487.917,217.966H416.9V121.884h71.021ZM417.9,216.961h69.011V122.889H417.9Z" transform="translate(141.785 41.452)" fill="#e30230"/>
    <rect id="Rectangle_526" data-name="Rectangle 526" width="98.143" height="1.005" transform="translate(657.277 163.336)" fill="#e30230"/>
    <rect id="Rectangle_527" data-name="Rectangle 527" width="98.143" height="1.005" transform="translate(604.787 132.955)" fill="#e30230"/>
    <rect id="Rectangle_528" data-name="Rectangle 528" width="98.143" height="1.005" transform="translate(657.277 222.93)" fill="#e30230"/>
    <rect id="Rectangle_529" data-name="Rectangle 529" width="98.143" height="1.005" transform="translate(657.277 240.672)" fill="#e30230"/>
    <rect id="Rectangle_530" data-name="Rectangle 530" width="98.143" height="1.005" transform="translate(657.277 258.413)" fill="#e30230"/>
    <rect id="Rectangle_531" data-name="Rectangle 531" width="64.35" height="1.005" transform="translate(691.07 186.098)" fill="#e30230"/>
    <path id="Path_3137" data-name="Path 3137" d="M687.1,184.8a44.279,44.279,0,1,1-44.279-44.279A44.278,44.278,0,0,1,687.1,184.8" transform="translate(203.564 47.792)" fill="#e30230"/>
    <path id="Path_3138" data-name="Path 3138" d="M671.7,172.086H649.308V149.694h-19.2v22.392H607.716v19.2h22.393v22.392h19.2V191.285H671.7Z" transform="translate(206.682 50.91)" fill="#fff"/>
    <path id="Path_3139" data-name="Path 3139" d="M642.568,247.218a58.87,58.87,0,0,1-7.953-1.076l.2-.984a58.184,58.184,0,0,0,7.818,1.057Zm8.027-.009-.068-1a57.727,57.727,0,0,0,7.817-1.072l.2.985a58.841,58.841,0,0,1-7.952,1.09m-23.721-3.22a58.924,58.924,0,0,1-7.371-3.195l.461-.892a58.244,58.244,0,0,0,7.245,3.14Zm39.4-.036-.338-.949a58.01,58.01,0,0,0,7.232-3.152l.464.892a59.268,59.268,0,0,1-7.358,3.208m-53.636-7.33a59.437,59.437,0,0,1-6.231-5.064l.686-.734a58.325,58.325,0,0,0,6.124,4.977Zm67.844-.056-.58-.82a58.521,58.521,0,0,0,6.115-4.984l.686.733a59.328,59.328,0,0,1-6.221,5.071M600.923,225.7a59.025,59.025,0,0,1-4.643-6.546l.859-.524a57.936,57.936,0,0,0,4.562,6.434Zm91.263-.074-.78-.635a58.269,58.269,0,0,0,4.555-6.446l.859.523a59.491,59.491,0,0,1-4.634,6.558M592.572,212.04a58.449,58.449,0,0,1-2.7-7.561l.969-.272a57.383,57.383,0,0,0,2.653,7.431Zm107.946-.1-.921-.4a57.525,57.525,0,0,0,2.643-7.44l.968.271a58.392,58.392,0,0,1-2.69,7.57M588.231,196.621a59.628,59.628,0,0,1-.556-8.007l1.005,0a58.739,58.739,0,0,0,.545,7.872Zm116.6-.111-.994-.137a58.534,58.534,0,0,0,.529-7.872v-.226h1.005v.217a59.469,59.469,0,0,1-.54,8.018M589.2,180.74l-1-.134a59.221,59.221,0,0,1,1.609-7.865l.969.269a57.819,57.819,0,0,0-1.581,7.73m114.609-.332a57.983,57.983,0,0,0-1.626-7.72l.965-.273a58.659,58.659,0,0,1,1.655,7.856Zm-110.4-14.843-.922-.4a58.513,58.513,0,0,1,3.685-7.136l.859.521a57.747,57.747,0,0,0-3.622,7.014m106.1-.3a57.868,57.868,0,0,0-3.656-6.985l.856-.527a58.951,58.951,0,0,1,3.721,7.108ZM601.57,152.1l-.78-.634a59.234,59.234,0,0,1,5.469-5.878l.688.733a58.3,58.3,0,0,0-5.377,5.779m89.706-.247a58.472,58.472,0,0,0-5.4-5.748l.682-.737a59.269,59.269,0,0,1,5.5,5.848Zm-78.225-10.528-.582-.82a59.141,59.141,0,0,1,6.841-4.193l.465.891a58.125,58.125,0,0,0-6.725,4.122m66.685-.185a57.564,57.564,0,0,0-6.754-4.086l.461-.894a58.9,58.9,0,0,1,6.87,4.158ZM627,134.035l-.34-.947a59.007,59.007,0,0,1,7.726-2.182l.206.984A57.6,57.6,0,0,0,627,134.035m38.73-.11a57.314,57.314,0,0,0-7.61-2.1l.2-.986a58.584,58.584,0,0,1,7.744,2.14ZM642.411,130.8l-.071-1a59.871,59.871,0,0,1,8.027-.023l-.065,1a59.173,59.173,0,0,0-7.891.023" transform="translate(199.866 44.095)" fill="#e30230"/>
    <path id="Path_3140" data-name="Path 3140" d="M539.65,151.52,498.781,70.2l-9.107,14.579H410.083L391.014,107.5,362.766,30.318,330.88,151.52,290.011,70.2,280.9,84.778H186.662L167.595,107.5,139.347,30.318l-31.888,121.2L66.592,70.2,57.483,84.778H6.8V76.737H53.026l14.326-22.93,37.744,75.1,33-125.417,32.278,88.192,12.545-14.945h93.532l14.326-22.93,37.744,75.1,33-125.417L393.79,91.682l12.545-14.945h78.882l14.326-22.93,37.741,75.1,33-125.417,32.279,88.192L615.1,76.737h93.532l14.324-22.93,37.744,75.1L793.7,3.49l32.279,88.192,12.545-14.945h59.888v8.041H842.272L823.2,107.5,794.957,30.318l-31.886,121.2L722.2,70.2l-9.107,14.579H618.852L599.784,107.5,571.536,30.318Z" transform="translate(2.312 1.187)" fill="#e30230"/>
    <path id="Path_3141" data-name="Path 3141" d="M58.721,452.39h0a37.343,37.343,0,0,1-37.233-37.233V229.251H95.954V415.157A37.343,37.343,0,0,1,58.721,452.39" transform="translate(7.308 77.967)" fill="#e30230"/>
    <path id="Path_3142" data-name="Path 3142" d="M56.868,434.715h0a30.019,30.019,0,0,1-29.931-29.931V255.34H86.8V404.783a30.02,30.02,0,0,1-29.931,29.931" transform="translate(9.161 86.84)" fill="#af0024"/>
    <path id="Path_3143" data-name="Path 3143" d="M98.907,238.189H22.618a7.129,7.129,0,1,1,0-14.257H98.907a7.129,7.129,0,1,1,0,14.257" transform="translate(5.268 76.158)" fill="#e30230"/>
    <rect id="Rectangle_532" data-name="Rectangle 532" width="74.466" height="0.67" transform="translate(28.797 314.011)" fill="#af0024"/>
    <rect id="Rectangle_533" data-name="Rectangle 533" width="2.68" height="117.682" transform="translate(89.388 350.189)" fill="#fff"/>
    <rect id="Rectangle_534" data-name="Rectangle 534" width="2.68" height="13.007" transform="translate(89.388 323.799)" fill="#fff"/>
    <path id="Path_3144" data-name="Path 3144" d="M51.179,211.585a8.68,8.68,0,1,1-8.68-8.68,8.68,8.68,0,0,1,8.68,8.68" transform="translate(11.502 69.007)" fill="#e30230"/>
    <path id="Path_3145" data-name="Path 3145" d="M71.773,200.494a5.99,5.99,0,1,1-5.99-5.99,5.99,5.99,0,0,1,5.99,5.99" transform="translate(20.335 66.15)" fill="#e30230"/>
    <path id="Path_3146" data-name="Path 3146" d="M47.977,186.53a4.607,4.607,0,1,1-4.607-4.607,4.608,4.608,0,0,1,4.607,4.607" transform="translate(13.184 61.871)" fill="#e30230"/>
    <path id="Path_3147" data-name="Path 3147" d="M60.146,176.39a3.257,3.257,0,1,1-3.258-3.258,3.258,3.258,0,0,1,3.258,3.258" transform="translate(18.24 58.882)" fill="#e30230"/>
    <path id="Path_3148" data-name="Path 3148" d="M53.872,153.554a3.257,3.257,0,1,1-3.258-3.258,3.258,3.258,0,0,1,3.258,3.258" transform="translate(16.106 51.115)" fill="#e30230"/>
    <path id="Path_3149" data-name="Path 3149" d="M54.4,192.658a2.3,2.3,0,1,1-2.3-2.3,2.3,2.3,0,0,1,2.3,2.3" transform="translate(16.933 64.739)" fill="#e30230"/>
    <path id="Path_3150" data-name="Path 3150" d="M655.594,280.14A13.06,13.06,0,0,1,642.548,267.1c0-6.951,12.069-35.364,12.584-36.57l.462-1.085.462,1.087c.513,1.2,12.582,29.618,12.582,36.569a13.06,13.06,0,0,1-13.045,13.045m0-48.123c-2.263,5.4-12.041,29.081-12.041,35.078a12.04,12.04,0,0,0,24.08,0c0-6-9.777-29.679-12.039-35.078" transform="translate(218.528 78.032)" fill="#e30230"/>
    <path id="Path_3151" data-name="Path 3151" d="M69.1,244.626c10.588-5.88,17.742.008,17.165,7.451-.934,8.942-23.056,44.156-24.919,46.412-10.378,15.537-22.54,7.6-20.136-5.851-.8-7.55,14.083-40.342,27.89-48.012" transform="translate(13.909 82.381)" fill="#fff"/>
    <path id="Path_3152" data-name="Path 3152" d="M100.788,387.533s4.034,4.614,7.233,5.445,7.818,1.711,7.767,6.648H86.426c.2-4.619,1.057-8.637,2.715-10.593a18.088,18.088,0,0,0,4.521.24c1.336-.519,5.386-3.1,7.125-1.739" transform="translate(29.393 131.666)" fill="#181818"/>
    <path id="Path_3153" data-name="Path 3153" d="M77.391,388.569s1.15,3.837,3.827,4.476c3.2.831,6.565,1.711,6.514,6.648H63.38c.2-4.619.871-8.822,2.529-10.778a20.776,20.776,0,0,0,4.708.425c1.336-.519,5.035-2.131,6.774-.771" transform="translate(21.555 131.97)" fill="#181818"/>
    <path id="Path_3154" data-name="Path 3154" d="M90.885,257.364c-1.914-11.672,3.921-17.136,10.969-15.13,9.647,1.93,36.575,29.58,39.246,33.111,12.689,13.051,2.359,23.255-10.082,18.311-9.224-.06-37.6-20.813-40.133-36.293" transform="translate(30.785 82.245)" fill="#fff"/>
    <path id="Path_3155" data-name="Path 3155" d="M75.674,249.585c6.211,3.4,12,4.284,16.933,0V226.139H75.674Z" transform="translate(25.736 76.909)" fill="#fca886"/>
    <path id="Path_3156" data-name="Path 3156" d="M76.659,240.331l-3.882.265c18.215,66.9,24.962,46.972,26.431.449l-5.615-.714c-4.385,2.916-10.22,2.474-16.933,0" transform="translate(24.751 81.736)" fill="#e30230"/>
    <path id="Path_3157" data-name="Path 3157" d="M70.9,296.869l39.576-.938c1.821,2.356,10.823,40.794,9.734,65.926s-7.818,59.416-7.92,59.443A40.83,40.83,0,0,1,96,422.47c-1.083-21.227-.466-42.4,2.42-59.574-3.55-12.164-7.514-40.108-7.514-40.108l-11.151,99.3c-3.2,1.177-11.986.389-15.378-.787C55.245,306.675,70.9,296.869,70.9,296.869" transform="translate(20.922 100.645)" fill="#181818"/>
    <path id="Path_3158" data-name="Path 3158" d="M82.131,318.945l-1.329-.173.875-6.751.436-.114a23.235,23.235,0,0,0,10.926-6.328l.982.911a24.5,24.5,0,0,1-11.131,6.593Z" transform="translate(27.48 103.926)" fill="#377dd1"/>
    <path id="Path_3159" data-name="Path 3159" d="M65.76,309.721l-.193-1.327c.271-.04,6.652-1.043,7.675-6.664l1.317.241c-1.2,6.576-8.723,7.738-8.8,7.75" transform="translate(22.299 102.617)" fill="#377dd1"/>
    <path id="Path_3160" data-name="Path 3160" d="M115.823,244.434c-4.473-3.995-16.1-4.251-16.1-4.251.985,11.332-.359,23.788-2.888,36.815a167.921,167.921,0,0,0-15.647-36.762s-10.985-.3-16.817,4.536c-11.55,10.335-2.946,34.159-3.222,65.8,0,0-5.654,24.115-3.83,74.689,2.581,1.386,20.62,1.975,36.819,1.912,2.207-10.4,3.755-43.828,3.755-43.828s1.3,32.4.828,43.776c13.181-.182,24.714-.8,26.078-1.782.543-.32-4.579-136.881-8.977-140.906" transform="translate(19.371 81.685)" fill="#fff"/>
    <path id="Path_3161" data-name="Path 3161" d="M76.914,236.611a10.973,10.973,0,0,0-4.886,4.985L79.6,247.92l-2.69-6.521Z" transform="translate(24.496 80.471)" fill="#fff"/>
    <path id="Path_3162" data-name="Path 3162" d="M88.308,236.611a10.973,10.973,0,0,1,4.886,4.985l-3.809,7.523a42.027,42.027,0,0,0-1.077-7.72Z" transform="translate(30.033 80.471)" fill="#fff"/>
    <path id="Path_3163" data-name="Path 3163" d="M92.269,277.312a.336.336,0,0,1-.288-.165c-7.923-13.4-14.371-21.96-20.293-26.941a.331.331,0,0,1-.115-.3.335.335,0,0,1,.19-.26l3.8-1.756L70.584,245.7a.334.334,0,0,1-.18-.422l1.869-5.031.629.233-1.76,4.735,5.367,2.365a.334.334,0,0,1,.007.61l-4,1.849c5.788,5,12.072,13.361,19.707,26.211,4.847-10.994,7.6-19.9,8.89-28.761l-3.3-1.833a.333.333,0,0,1-.172-.268.337.337,0,0,1,.13-.291l2.182-1.678-.989-2.95.635-.212,1.064,3.176a.333.333,0,0,1-.113.371l-1.967,1.513,3.051,1.7a.335.335,0,0,1,.169.34c-1.308,9.161-4.157,18.338-9.236,29.761a.338.338,0,0,1-.287.2Z" transform="translate(23.937 81.706)" fill="#e30230"/>
    <path id="Path_3164" data-name="Path 3164" d="M88.018,335.661l-.669-.044c1.805-27.469,1.573-45.242-.883-67.915l.666-.074c2.462,22.716,2.694,40.52.886,68.033" transform="translate(29.407 91.019)" fill="#92bbf4"/>
    <path id="Path_3165" data-name="Path 3165" d="M59.428,286.6c-.878-7.8-.486-14.933-.109-21.833.084-1.556.17-3.1.24-4.65l.669.032c-.07,1.547-.154,3.1-.24,4.654-.377,6.872-.765,13.979.106,21.72Z" transform="translate(20.031 88.466)" fill="#e30230"/>
    <path id="Path_3166" data-name="Path 3166" d="M104.339,274.693l-.669-.033c.208-4.137.326-10.926.257-14.827l.67-.011c.068,3.912-.051,10.722-.259,14.871" transform="translate(35.258 88.365)" fill="#e30230"/>
    <path id="Path_3167" data-name="Path 3167" d="M76.8,239.132c-7.962-6.2-7.167-25.883.791-27.334l25.325,5.766s2.7,3.31-2.1,14.425Z" transform="translate(24.218 72.032)" fill="#181818"/>
    <path id="Path_3168" data-name="Path 3168" d="M76.038,239.629c1.363,2.435,3.377,5.1,6.029,6.2,5.407,2.229,9.16,1.438,10.284.878a15.561,15.561,0,0,0,6.335-6.784c1.292-3,3.36-23.243,3.36-23.243l-17.388-6.341-4.591,1.877-3.074,4.316-1.39,4.881c-1.291,4.142-2.381,8.159-2.121,11.32a26.509,26.509,0,0,0,2.557,6.9" transform="translate(24.977 71.535)" fill="#fca886"/>
    <path id="Path_3169" data-name="Path 3169" d="M75.592,230.445c2.816-.232,4.2-7.064,5.218-12.222,3.306,2.2,18.261,3.751,20.825,2.631,2.818.393,9.551-12.077-4.566-13.82-11.5-1.646-22.118,3.152-20.985,8.071l-2.2,12.378Z" transform="translate(25.128 70.299)" fill="#181818"/>
    <path id="Path_3170" data-name="Path 3170" d="M77.429,220.88l-.076-.138a3.95,3.95,0,0,0-1.126-1.321,3.372,3.372,0,0,0-3.369-.178c-4.471,2.3-1.555,11.03,3.042,10.7,1.89-.465,2.333-7.555,1.529-9.06" transform="translate(24.022 74.44)" fill="#fca886"/>
    <path id="Path_3171" data-name="Path 3171" d="M87.1,239.562a12.878,12.878,0,0,1-3.782-.584,9.337,9.337,0,0,1-5.691-4.2l.6-.307a8.806,8.806,0,0,0,5.295,3.866,10.248,10.248,0,0,0,7.7-.389l.319.588a9.333,9.333,0,0,1-4.434,1.024" transform="translate(26.401 79.743)" fill="#d66947"/>
    <path id="Path_3172" data-name="Path 3172" d="M235,183.889c-.24,5.338,6.347,6.671,7.115,6.97,3.956,1.54,14.076.366,14.076.366,2.615-.119,2.6-2.249,1.832-2.352-.377-.017,1.43-.04,1.8-.055,3.269-.261,2.509-2.745,1.216-2.983,2.548.229,2.982-2.548,1.351-2.821,1.84-.039,2.131-2.6-.559-3.023-1.47-.366-13.942-1.357-13.942-1.357.137-1.116,4.981-.634,5.638-3.348a.471.471,0,0,0-.461-.469,28.638,28.638,0,0,0-12.869,3c-2.227.984-5.052,2.86-5.2,6.072" transform="translate(79.919 59.455)" fill="#f6a97e"/>
    <rect id="Rectangle_535" data-name="Rectangle 535" width="0.671" height="7.46" transform="translate(330.344 248.203) rotate(-85.735)" fill="#d1655f"/>
    <path id="Path_3173" data-name="Path 3173" d="M256.9,183.591,247,183.225l.025-.67,9.893.366Z" transform="translate(84.005 62.086)" fill="#d1655f"/>
    <rect id="Rectangle_536" data-name="Rectangle 536" width="0.67" height="10.954" transform="translate(331.312 242.114) rotate(-86.55)" fill="#d1655f"/>
    <path id="Path_3174" data-name="Path 3174" d="M241.83,184.1l-.154-.651c4.346-1.029,3.638-5.52,3.6-5.71l.661-.114c.009.054.852,5.3-4.111,6.475" transform="translate(82.193 60.409)" fill="#d1655f"/>
    <path id="Path_3175" data-name="Path 3175" d="M222.461,179.429a136.1,136.1,0,0,1,33.7,8.807,20.771,20.771,0,0,1-3.583,14.828s-40.374,2.435-46.8-7.035c-6.178-8.121-11.419-49.037-11.419-49.037s14.575-7.89,14.847-7.972,10.66-.226,10.66-.226l.328,10.517a158.018,158.018,0,0,1,2.261,30.119" transform="translate(66.103 47.203)" fill="#fff"/>
    <path id="Path_3176" data-name="Path 3176" d="M211.267,174.741l-.18-.645a8.239,8.239,0,0,0,5.52-5.13l.642.189a8.757,8.757,0,0,1-5.982,5.586" transform="translate(71.79 57.465)" fill="#181818"/>
    <path id="Path_3177" data-name="Path 3177" d="M499.89,163.777c-15.939-27.851-28.87-65.159-29.451-81.518.161-17.015-2.8-34.524-11.45-48.891C446.309,12.3,420.242.079,396.292,0c-21.526-.07-50.283,3.558-59.362,33.564-.381,1.261-9.3,5.627-10.87,7.108-14.142,13.366-13.019,36.276-16.431,54.035-4.211,21.927-11.568,42.951-24.58,61.323-24.8,35.017-57.043,69.262-4.63,149.572,42.37,64.922,93.458,68.868,111.485,68,18.026.871,69.115-3.074,111.485-68,52.412-80.311,21.3-106.81-3.5-141.826" transform="translate(85.792 0)" fill="#181818"/>
    <path id="Path_3178" data-name="Path 3178" d="M238.405,317.934c-58.624,62.213,38.843,112.047,63.352,42.575,31.648-33.37,44.916-81.832,59.4-138.578,19.336-54.491-59.416-82.991-81.68-28.275-15.963,37.929-22.07,56.931-41.067,124.278" transform="translate(74.798 55.84)" fill="#fa754a"/>
    <path id="Path_3179" data-name="Path 3179" d="M269.754,284.84,150.242,331.211l11.884,47.335,130.157-27.993c42.907-12.726,18.771-77.332-22.528-65.713" transform="translate(51.097 96.4)" fill="#f6a97e"/>
    <path id="Path_3180" data-name="Path 3180" d="M183.9,370.359s-.753,4.795-12.432,8.7c-20.588,6.678-50.453,4.945-50.453,4.945-12.353-1.423-12.933-9.063-8.306-10.836-16.834,4.751-20.743-8.488-12.159-11.009-11.712,1.918-12.141-11.692-2.707-11.376l.174-.4c-8.489-.348-8.792-13.664,3.614-14.362l47.462-8.7c-2.472-.844-24.112-12.671-15.833-24.652,0,0,25.651,12.2,34.639,17.319a46.183,46.183,0,0,1,11.746,7.909c11.793,14.746,8.318,36.628,4.255,42.46" transform="translate(31.024 102.937)" fill="#f6a97e"/>
    <path id="Path_3181" data-name="Path 3181" d="M137.422,367.589c-18.125-31.712-12.353-41.536-12.1-41.94l.85.537-.425-.269.426.267c-.058.094-5.614,9.879,12.12,40.905Z" transform="translate(42.258 110.752)" fill="#d66947"/>
    <rect id="Rectangle_537" data-name="Rectangle 537" width="39.65" height="1.005" transform="matrix(0.982, -0.191, 0.191, 0.982, 131.476, 464.615)" fill="#d66947"/>
    <rect id="Rectangle_538" data-name="Rectangle 538" width="35.847" height="1.003" transform="matrix(0.98, -0.198, 0.198, 0.98, 140.106, 476.325)" fill="#d66947"/>
    <rect id="Rectangle_539" data-name="Rectangle 539" width="40.489" height="1.004" transform="matrix(0.982, -0.187, 0.187, 0.982, 128.198, 452.635)" fill="#d66947"/>
    <path id="Path_3182" data-name="Path 3182" d="M153.025,338.516c-19.843-4.065-19.7-17.319-19.693-17.452l1.005.027c-.013.511-.09,12.553,18.889,16.442Z" transform="translate(45.346 109.193)" fill="#d66947"/>
    <path id="Path_3183" data-name="Path 3183" d="M160.349,359.831l-.854-.531c7.452-11.983,4.969-21.823,4.944-21.921l.97-.256c.111.417,2.619,10.359-5.06,22.708" transform="translate(54.244 114.654)" fill="#d66947"/>
    <path id="Path_3184" data-name="Path 3184" d="M156.526,321.379a14.692,14.692,0,0,0-5.551-3.784l.332-.947a15.442,15.442,0,0,1,5.984,4.081Z" transform="translate(51.346 107.69)" fill="#d66947"/>
    <path id="Path_3185" data-name="Path 3185" d="M599.031,431h-65.6c-17.421,0-41.7-3.571-58.4-20.587-13.581-13.83-18.82-30.842-14.378-46.676,1.466-5.226,4.129-9.747,6.7-14.119,1.209-2.049,2.456-4.169,3.536-6.3,3.671-7.234,4.7-13.246,3.251-18.915-2.652-10.35-11.557-18.961-20.788-26.726l3.452-4.1c9.913,8.339,19.5,17.685,22.528,29.5,1.794,7,.63,14.208-3.665,22.672-1.154,2.277-2.447,4.471-3.7,6.592-2.511,4.263-4.885,8.291-6.162,12.845-3.91,13.934.843,29.051,13.039,41.472,15.4,15.69,38.182,18.982,54.577,18.982h65.6Z" transform="translate(154.184 99.846)" fill="#181818"/>
    <path id="Path_3186" data-name="Path 3186" d="M286.8,188.131a83.11,83.11,0,0,1-.989-14.891c.18-8.77,3.5-16.418,6.717-23.815a114.9,114.9,0,0,0,4.852-12.484,92.416,92.416,0,0,0,3.443-20.533l1,.067a93.311,93.311,0,0,1-3.484,20.757,115.487,115.487,0,0,1-4.891,12.594c-3.321,7.644-6.458,14.863-6.634,23.436a82.22,82.22,0,0,0,.976,14.71Z" transform="translate(97.198 39.59)" fill="#666"/>
    <path id="Path_3187" data-name="Path 3187" d="M539.12,295.953c71.872,46.277-10.74,118.1-51.247,56.568-38.746-24.773-63.286-68.62-91-120.213-31.881-48.237,37.7-94.851,72.476-47.1,24.622,32.973,35.121,49.948,69.765,110.744" transform="translate(132.205 56.185)" fill="#fa754a"/>
    <path id="Path_3188" data-name="Path 3188" d="M513.495,270.826l126.376,21.5-2.164,48.755L504.58,339.719c-44.586-3.876-33.875-72.006,8.914-68.893" transform="translate(161.839 92.072)" fill="#f6a97e"/>
    <rect id="Rectangle_540" data-name="Rectangle 540" width="63.182" height="89.703" transform="translate(446.513 161.295)" fill="#f6a97e"/>
    <path id="Path_3189" data-name="Path 3189" d="M473.566,162.981l-53.529-10.969c-10.681,8.327-20.836,12.362-30.6,12.508-.051,0-.1,0-.151,0s-.1,0-.151,0c-9.767-.146-19.921-4.181-30.6-12.508L305,162.981c-34.757,10.118-47.532,36.417-39.2,65.961L303.83,367.006c27.917,39.168,58.222,49.715,85.453,47.338,27.231,2.377,57.537-8.169,85.453-47.338l38.027-138.065c8.337-29.544-4.44-55.843-39.2-65.961" transform="translate(89.562 51.699)" fill="#fa754a"/>
    <path id="Path_3190" data-name="Path 3190" d="M526.186,425.264c-6.067-39.8-19.981-79.734-43.4-113.6-56.65,9.445-114.015,8.8-172.007-.67-33.661,32.938-56.908,73.863-70.036,114.269Z" transform="translate(81.876 105.768)" fill="#181818"/>
    <path id="Path_3191" data-name="Path 3191" d="M437.094,71.68c-1.856-17.325-9.642-32.934-24.312-42.771-29.7-19.915-75.327-15.327-95.121,16.427a49.06,49.06,0,0,0-5.711,13.02,64.3,64.3,0,0,0-2.1,13.323s-3.547,32.956,1.78,53.4c3.144,11.59,7.829,22.956,15.009,32.7a62.219,62.219,0,0,0,18.674,17.042,54.9,54.9,0,0,0,17.153,6.434,64.181,64.181,0,0,0,10.746,1.092c.086,0,.172-.012.259-.013a.8.8,0,0,0,.259-.013,61.465,61.465,0,0,0,10.746-1.065,54.913,54.913,0,0,0,17.153-6.434,62.222,62.222,0,0,0,18.674-17.042c7.18-9.741,11.865-21.107,15.009-32.7,5.326-20.439,1.782-53.381,1.78-53.4" transform="translate(104.986 5.762)" fill="#f6a97e"/>
    <path id="Path_3192" data-name="Path 3192" d="M324.162,77.284s-20.2-8.821-28.875,2.832,7.963,51.712,33.616,28.729-4.741-31.561-4.741-31.561" transform="translate(99.638 25.196)" fill="#f6a97e"/>
    <path id="Path_3193" data-name="Path 3193" d="M592.877,293.957s27.047-18.117,35.522-17.469c12.074-5.169,26.462,2.631,29.09,9.359,8.7-.966,12.565,11.806,7.413,18.517,2.419,3.882,2.409,10.907-2,14.876a12.654,12.654,0,0,1-6.722,15.246s.177,11.871-13.07,13.321-34-.978-46.495-10.019-12.973-35.2-3.74-43.832" transform="translate(199.474 93.461)" fill="#f6a97e"/>
    <path id="Path_3194" data-name="Path 3194" d="M633.691,310.611a8.609,8.609,0,0,1-5.229-1.588c-2.53-1.9-3.729-5.376-3.563-10.344l.67-15.481,1.005.044-.67,15.475c-.154,4.611.907,7.809,3.156,9.5,2.821,2.121,6.755,1.229,7.68.977,9.432-19.847,7.3-25.821,7.275-25.879l.929-.382c.1.247,2.424,6.309-7.392,26.9l-.093.194-.205.067a12.415,12.415,0,0,1-3.563.521" transform="translate(212.521 96.224)" fill="#d66947"/>
    <path id="Path_3195" data-name="Path 3195" d="M603.24,317.638l-.083-1c9.212-.776,15.777-3.744,19.515-8.822,4.842-6.581,3.155-14.532,3.136-14.611l-.055-.248.167-.192c3.626-4.156,6.725-4.917,6.856-4.948l.231.98c-.03.005-2.845.718-6.167,4.444.273,1.475,1.321,8.8-3.352,15.159-3.913,5.33-10.727,8.437-20.247,9.24" transform="translate(205.131 97.885)" fill="#d66947"/>
    <path id="Path_3196" data-name="Path 3196" d="M621.431,293.208a10.131,10.131,0,0,0-5.22-3.989l.279-.965a10.983,10.983,0,0,1,5.8,4.425Z" transform="translate(209.571 98.034)" fill="#d66947"/>
    <path id="Path_3197" data-name="Path 3197" d="M647.39,297.431l-10.007-2.139.209-.984,10.006,2.139Z" transform="translate(216.772 100.093)" fill="#d66947"/>
    <path id="Path_3198" data-name="Path 3198" d="M650.7,312.516c-10.866-1.376-19.368-3.31-26-5.909-.072-.031-6.222-2.672-4.526-7.823s6.843-3.913,6.889-3.9l-.245.973a4.7,4.7,0,0,0-5.689,3.24c-1.41,4.279,3.894,6.557,3.948,6.579,6.537,2.565,14.961,4.476,25.743,5.843Z" transform="translate(210.819 100.242)" fill="#d66947"/>
    <path id="Path_3199" data-name="Path 3199" d="M643.056,323.538l-19.746-7.765c-4.529-3.062-4.7-7.7-2.978-10.74,1.139-2.011,2.905-2.964,4.3-2.32l-.421.911c-.886-.4-2.145.393-3,1.9-1.156,2.042-1.916,6.312,2.57,9.361l19.648,7.714Z" transform="translate(210.63 102.884)" fill="#d66947"/>
    <path id="Path_3200" data-name="Path 3200" d="M634.714,329.795c-.121,0-12.625-3.13-14.72-10.256-.233-3.724,2.06-7.147,4.1-7.574l.208.985c-1.289.269-3.53,2.911-3.323,6.418,1.871,6.312,13.692,9.406,13.808,9.429Z" transform="translate(210.852 106.098)" fill="#d66947"/>
    <path id="Path_3201" data-name="Path 3201" d="M629.359,328.472c-1.887-1.587-2.006-4.546-2.01-4.669l1.005-.035c0,.027.111,2.639,1.651,3.935Z" transform="translate(213.359 110.112)" fill="#d66947"/>
    <path id="Path_3202" data-name="Path 3202" d="M598.742,326.185c-7.769-2.434-10.023-10.32-10.115-10.655l.969-.267c.02.075,2.21,7.7,9.448,9.964Z" transform="translate(200.19 107.22)" fill="#d66947"/>
    <path id="Path_3203" data-name="Path 3203" d="M632.921,304.1l-1.005-.047c.056-1.2.4-7.253,1.541-8.414,1.284-1.312,3.663-.373,3.764-.331l-.374.933c-.513-.2-2-.587-2.672.1-.642.653-1.12,4.929-1.254,7.757" transform="translate(214.912 100.308)" fill="#d66947"/>
    <path id="Path_3204" data-name="Path 3204" d="M586.163,306.287a28.537,28.537,0,0,1,1.852-11.718l.926.387a28.094,28.094,0,0,0-1.776,11.262Z" transform="translate(199.333 100.182)" fill="#d66947"/>
    <path id="Path_3205" data-name="Path 3205" d="M365.177,145.048a52.031,52.031,0,0,1-32.215-11.422l.622-.791c18.9,14.858,44.041,14.945,62.558.217l.626.787a50.56,50.56,0,0,1-31.591,11.209" transform="translate(113.239 45.177)" fill="#d66947"/>
    <path id="Path_3206" data-name="Path 3206" d="M310.4,103.585c-6.857-3.594-10.213-11.88-8.936-17.069a5.39,5.39,0,0,1,5.6-4.433v1.005a4.42,4.42,0,0,0-4.629,3.668c-1.186,4.818,2.166,12.657,8.428,15.939Z" transform="translate(102.436 27.916)" fill="#d66947"/>
    <path id="Path_3207" data-name="Path 3207" d="M312.381,94.132c-3.788-3.884-8.893-1.06-9.109-.937l-.5-.874c.06-.034,5.989-3.338,10.327,1.11Z" transform="translate(102.972 30.986)" fill="#d66947"/>
    <path id="Path_3208" data-name="Path 3208" d="M401.833,77.284s20.2-8.821,28.874,2.832-7.962,51.712-33.615,28.729,4.741-31.561,4.741-31.561" transform="translate(131.55 25.196)" fill="#f6a97e"/>
    <path id="Path_3209" data-name="Path 3209" d="M406.317,103.585l-.466-.89c6.261-3.282,9.614-11.121,8.426-15.939a4.419,4.419,0,0,0-4.629-3.668V82.083a5.392,5.392,0,0,1,5.606,4.433c1.277,5.188-2.079,13.475-8.937,17.069" transform="translate(138.028 27.916)" fill="#d66947"/>
    <path id="Path_3210" data-name="Path 3210" d="M404.5,94.132l-.72-.7c4.335-4.444,10.268-1.143,10.326-1.11l-.5.874c-.216-.123-5.318-2.947-9.109.937" transform="translate(137.325 30.986)" fill="#d66947"/>
    <path id="Path_3211" data-name="Path 3211" d="M359.632,118.644a16.859,16.859,0,0,1-8.9-2.616l.524-.858c5.4,3.283,11.138,3.279,17.533-.017l.461.894a20.992,20.992,0,0,1-9.619,2.6" transform="translate(119.283 39.163)" fill="#d66947"/>
    <path id="Path_3212" data-name="Path 3212" d="M361.343,113.219a31.525,31.525,0,0,1-16.629-4.886l.52-.859c10.387,6.312,21.4,6.306,33.675-.017l.461.894c-6.3,3.246-12.283,4.869-18.027,4.869" transform="translate(117.236 36.546)" fill="#d66947"/>
    <path id="Path_3213" data-name="Path 3213" d="M313.421,109.777a58.06,58.06,0,0,1-3.581-22.171l1,.039a57.057,57.057,0,0,0,3.522,21.789Z" transform="translate(105.361 29.794)" fill="#d66947"/>
    <path id="Path_3214" data-name="Path 3214" d="M402.046,109.777l-.945-.343a57.06,57.06,0,0,0,3.522-21.789l1.005-.039a58.062,58.062,0,0,1-3.582,22.171" transform="translate(136.413 29.794)" fill="#d66947"/>
    <path id="Path_3215" data-name="Path 3215" d="M356.665,108.958l-.087-1c.068-.005,6.86-.643,9.943-4.6,2.506-3.219-5.422-19.19-8.691-25.073l.879-.488c1.236,2.223,11.971,21.854,8.6,26.179s-10.354,4.961-10.65,4.985" transform="translate(121.271 26.457)" fill="#d66947"/>
    <path id="Path_3216" data-name="Path 3216" d="M320.708,75.521a24.233,24.233,0,0,1,7.1-5.644,17.781,17.781,0,0,1,2.163-.929,8.194,8.194,0,0,1,1.189-.339,8.369,8.369,0,0,1,1.344-.147,20.7,20.7,0,0,1,4.665.591,62.906,62.906,0,0,1,8.494,2.749,85.817,85.817,0,0,1,8.082,3.6.655.655,0,0,1-.508,1.2l-.009,0c-2.751-.946-5.526-1.859-8.287-2.746-2.77-.854-5.556-1.663-8.327-2.253a19.217,19.217,0,0,0-4.03-.476,10.34,10.34,0,0,0-3.646,1.09,54.682,54.682,0,0,0-7.334,4.263l-.031.02a.656.656,0,0,1-.859-.977" transform="translate(109.017 23.282)" fill="#181818"/>
    <path id="Path_3217" data-name="Path 3217" d="M403.888,76.483a55.632,55.632,0,0,0-7.515-4.278,10.681,10.681,0,0,0-3.743-1.079,20.14,20.14,0,0,0-4.121.48c-2.829.59-5.671,1.4-8.5,2.251-2.818.887-5.651,1.8-8.461,2.745l-.008,0a.655.655,0,0,1-.5-1.207,88.939,88.939,0,0,1,8.26-3.6,65.424,65.424,0,0,1,8.662-2.746,21.633,21.633,0,0,1,4.737-.594,11.512,11.512,0,0,1,4.777,1.4,24.873,24.873,0,0,1,7.289,5.661.656.656,0,0,1-.848.986Z" transform="translate(126.066 23.282)" fill="#181818"/>
    <path id="Path_3218" data-name="Path 3218" d="M345.873,83.585a9.046,9.046,0,1,1-13.054-4.913c-4.063.181-8.212,1.883-12.582,5.1,6.341,13.325,17.524,16.932,34.371,9.182a52.061,52.061,0,0,0-8.735-9.373" transform="translate(108.911 26.756)" fill="#fff"/>
    <path id="Path_3219" data-name="Path 3219" d="M326.232,86.49a9.061,9.061,0,1,0,17.6-2.9c-4.362-3.507-8.658-5.107-13.053-4.913a9.023,9.023,0,0,0-4.55,7.814" transform="translate(110.95 26.752)" fill="#181818"/>
    <path id="Path_3220" data-name="Path 3220" d="M392.428,78.666a9.109,9.109,0,1,1-13.054,4.913,52.156,52.156,0,0,0-8.735,9.373c16.846,7.748,28.031,4.141,34.371-9.182-4.37-3.22-8.518-4.924-12.582-5.1" transform="translate(126.053 26.754)" fill="#fff"/>
    <path id="Path_3221" data-name="Path 3221" d="M385.831,95.543a9.032,9.032,0,0,0,4.511-16.873c-4.394-.2-8.691,1.4-13.053,4.911a8.948,8.948,0,0,0-.519,2.9,9.06,9.06,0,0,0,9.06,9.06" transform="translate(128.138 26.75)" fill="#181818"/>
    <path id="Path_3222" data-name="Path 3222" d="M354.267,93.272c-10.145-14.437-21.163-17.467-33.685-9.261l-.551-.84c12.889-8.448,24.683-5.241,35.057,9.523Z" transform="translate(108.842 26.723)" fill="#181818"/>
    <path id="Path_3223" data-name="Path 3223" d="M371.224,93.3l-.824-.575c10.375-14.9,22.169-18.136,35.061-9.611l-.555.839c-12.518-8.28-23.537-5.222-33.682,9.347" transform="translate(125.972 26.69)" fill="#181818"/>
    <path id="Path_3224" data-name="Path 3224" d="M309.285,92.081C327.44,87.21,322.5,67.687,334.926,52.509c13.984-10.283,29.635-9.709,45.417-6.341,0,0,17.579,66.4,70.469,25.857-14,0-8.073-15.745-17.23-24.043l-20.5-29.053L359.46,10.07l-27.9,18.713q-24.98,18.479-25.623,48.589Z" transform="translate(104.048 3.425)" fill="#181818"/>
    <path id="Path_3225" data-name="Path 3225" d="M327.569,47.643c12.153-7.412,26.559-11.2,45.416-6.341-9.288-41.476-45.416,6.341-45.416,6.341" transform="translate(111.405 8.291)" fill="#444"/>
    <path id="Path_3226" data-name="Path 3226" d="M329.534,47.6c-13.707-8.7-14.456-21.635-14.462-21.763l1.005-.047c.005.125.749,12.555,14,20.962Z" transform="translate(107.155 8.772)" fill="#666"/>
    <path id="Path_3227" data-name="Path 3227" d="M327.363,44.14l-.906-.434a93.589,93.589,0,0,1,8.6-13.941c7.05-9.354,13.948-14.176,20.5-14.332l.023,1.005c-14.933.358-28.091,27.429-28.222,27.7" transform="translate(111.027 5.248)" fill="#666"/>
    <path id="Path_3228" data-name="Path 3228" d="M401.96,61.893a39.361,39.361,0,0,1-34.68-20.221l.906-.436c.149.308,15.386,30.757,55,15.229l.366.935a59.179,59.179,0,0,1-21.594,4.492" transform="translate(124.911 14.025)" fill="#666"/>
    <path id="Path_3229" data-name="Path 3229" d="M405.192,64.735l-.469-.89A100.97,100.97,0,0,0,415.3,56.906l.6.8a102.24,102.24,0,0,1-10.714,7.026" transform="translate(137.645 19.354)" fill="#666"/>
    <path id="Path_3230" data-name="Path 3230" d="M307.557,73.3c-6.274,0-8.743-4.282-8.772-4.333l.878-.49c.129.226,3.246,5.552,11.926,3.255l.257.972a16.782,16.782,0,0,1-4.288.6" transform="translate(101.616 23.289)" fill="#666"/>
    <path id="Path_3231" data-name="Path 3231" d="M431.931,296.973l-.974-.251A696.919,696.919,0,0,0,447.278,211.9l1,.127a698.122,698.122,0,0,1-16.344,84.95" transform="translate(146.567 72.065)" fill="#db4d28"/>
    <path id="Path_3232" data-name="Path 3232" d="M294.811,329.74c-7.517-29.248-16.677-91.369-19.935-116.87l1-.129c3.255,25.482,12.407,87.546,19.913,116.748Z" transform="translate(93.484 72.353)" fill="#db4d28"/>
    <path id="Path_3233" data-name="Path 3233" d="M477.234,336.9a11.609,11.609,0,0,1-9.078-1.442c-11.609-7.434-21.035-21.214-29.424-31.916-16.778-25.048,21.156-82.065,63.711-71.493,5.289,1.52,27.722,27.113,22.01,32.206,1.3,2.868,2.475,5.807,3.494,8.768a2.582,2.582,0,0,1-.85,3.062s-2.526-1.729-3.382-2.289c-31.39-2.137-61.257,33.35-46.48,63.1" transform="translate(147.83 78.48)" fill="#181818"/>
    <path id="Path_3234" data-name="Path 3234" d="M464.265,324.46c-5.17-8.511-11.178-25.718,6.68-45.345,13.583-14.929,35.569-23.864,46.129-18.735l-.44.9c-10.2-4.946-31.626,3.873-44.945,18.509-17.419,19.143-11.589,35.876-6.565,44.147Z" transform="translate(156.093 88.059)" fill="#666"/>
    <path id="Path_3235" data-name="Path 3235" d="M466.691,267.724s-20.912-17.842-17.508-21.247c11.034-11.217,33.862-20.883,48.451-14.2l10.286,12.273Z" transform="translate(152.638 78.25)" fill="#181818"/>
    <path id="Path_3236" data-name="Path 3236" d="M471.9,273.85c-6.453,0-21.035-25.554-22.7-28.5l.876-.492c4.426,7.858,16.853,27.993,21.779,27.993a1.536,1.536,0,0,0,.177-.009c2.124-.222,5.662-2.324,9.76-4.759,9.6-5.7,24.11-14.327,37.889-9.086l-.358.939c-13.319-5.072-27.018,3.07-37.017,9.011-4.371,2.6-7.823,4.65-10.169,4.894a2.389,2.389,0,0,1-.241.012" transform="translate(152.773 83.274)" fill="#666"/>
    <path id="Path_3237" data-name="Path 3237" d="M477.767,334.472c-4.43-3.352-10.3-16.245-9.324-30.79.678-10.112,4.97-24.137,21.576-33.509l.5.874c-16.217,9.154-20.408,22.837-21.069,32.7-.917,13.661,4.583,26.634,8.929,29.922Z" transform="translate(159.279 91.885)" fill="#db4d28"/>
    <path id="Path_3238" data-name="Path 3238" d="M292.495,322.4l-.949-.33c1.794-5.146-.819-18.992-9.15-29.853-6.02-7.846-17.1-16.912-35.661-15.546l-.074-1c19.015-1.414,30.363,7.895,36.532,15.936,8.871,11.565,11.131,25.552,9.3,30.8" transform="translate(83.888 93.706)" fill="#db4d28"/>
    <path id="Path_3239" data-name="Path 3239" d="M335.066,140.69s-6.918-1.718-7.373,18.891c.617,13.055,22.246,14.368,40.395,14.389s32.465-7.823,34.654-11.105,1.459-22.175-4.493-23.437c-7.392,14.913-53.229,14.913-63.182,1.262" transform="translate(111.447 47.419)" fill="#fa754a"/>
    <path id="Path_3240" data-name="Path 3240" d="M335.519,259.969c-24.843,0-40.252-18.647-40.468-18.915l.783-.631c.3.377,30.727,37.135,75.073,6.041l.575.822c-13.369,9.377-25.5,12.684-35.963,12.684" transform="translate(100.346 81.767)" fill="#db4d28"/>
    <path id="Path_3241" data-name="Path 3241" d="M405.963,259.969c-10.459,0-22.59-3.306-35.963-12.684l.576-.822c44.369,31.109,74.771-5.666,75.072-6.041l.783.631c-.216.268-15.628,18.915-40.468,18.915" transform="translate(125.836 81.767)" fill="#db4d28"/>
    <path id="Path_3242" data-name="Path 3242" d="M366.9,170.061c-17.014,0-35.366-4.717-39.412-14.232l.925-.393c4.093,9.626,23.854,14.113,41.259,13.577,21.269-.658,31.161-7.431,33.326-13.548l.947.335c-3.47,9.81-19.963,13.776-34.241,14.218q-1.395.042-2.8.043" transform="translate(111.376 52.864)" fill="#db4d28"/>
    <path id="Path_3243" data-name="Path 3243" d="M493.794,379.1,615.958,354.23a20.1,20.1,0,0,1,4.055-.4l46.414.094L622.54,364.224a2.86,2.86,0,0,1-2.232,3.372l-1.808.367v37.261a4.8,4.8,0,0,1-4.8,4.8H502.129a4.459,4.459,0,0,1-4.458-4.458V398.2h0l0-.015v-5.7l-1.112.227a2.859,2.859,0,0,1-3.37-2.234l-1.628-8.014a2.86,2.86,0,0,1,2.234-3.372" transform="translate(167.158 120.335)" fill="#fff"/>
    <path id="Path_3244" data-name="Path 3244" d="M531.951,387.744l120.828-24.856v39.253a4.8,4.8,0,0,1-4.8,4.8H536.409a4.458,4.458,0,0,1-4.458-4.458v-7.361h0v-7.377Z" transform="translate(180.915 123.417)" fill="#e30230"/>
    <path id="Path_3245" data-name="Path 3245" d="M532.4,392.695l123.749-25.123a2.861,2.861,0,0,0,2.234-3.372l-1.627-8.014a2.861,2.861,0,0,0-3.372-2.234L529.64,379.075a2.861,2.861,0,0,0-2.234,3.372l1.627,8.014a2.861,2.861,0,0,0,3.372,2.234" transform="translate(179.349 120.358)" fill="#e30230"/>
    <rect id="Rectangle_541" data-name="Rectangle 541" width="48.037" height="0.67" transform="translate(664.83 512.492)" fill="#e30230"/>
    <path id="Path_3246" data-name="Path 3246" d="M532.036,389.316l-.134-.657,120.828-24.53.134.657Z" transform="translate(180.898 123.839)" fill="#af0024"/>
    <rect id="Rectangle_542" data-name="Rectangle 542" width="48.04" height="0.67" transform="translate(659.209 500.226)" fill="#e30230"/>
    <path id="Path_3247" data-name="Path 3247" d="M620.718,392.87H601.992a3.374,3.374,0,1,1,0-6.749h18.725a3.374,3.374,0,0,1,0,6.749m-18.725-6.079a2.7,2.7,0,1,0,0,5.409h18.725a2.7,2.7,0,0,0,0-5.409Z" transform="translate(203.588 131.318)" fill="#af0024"/>
    <rect id="Rectangle_543" data-name="Rectangle 543" width="8.207" height="0.67" transform="translate(670.795 517.439)" fill="#e30230"/>
    <path id="Path_3248" data-name="Path 3248" d="M455,191.138l-.964-.283c4.677-15.95-2.763-28.612-11.38-43.274-5.954-10.134-12.7-21.621-16.274-35.837l.973-.245c3.538,14.076,10.246,25.5,16.168,35.573,8.733,14.863,16.277,27.7,11.477,44.066" transform="translate(145.01 37.92)" fill="#666"/>
    <path id="Path_3249" data-name="Path 3249" d="M451.906,266.691c4.007,3.372,8.973-.953,9.663-1.371,3.558-2.156,8.685-10.723,8.685-10.723,1.467-2.1-.2-3.362-.734-2.828-.239.283.823-1.135,1.032-1.434,1.747-2.7-.637-3.586-1.595-2.723,1.7-1.845-.2-3.838-1.386-2.735,1.068-1.453-.746-3.2-2.684-1.37-1.161.925-9.375,10.028-9.375,10.028-.787-.772,2.48-4.251.763-6.38a.462.462,0,0,0-.639.078,28.059,28.059,0,0,0-5.348,11.8c-.564,2.318-.792,5.634,1.619,7.663" transform="translate(153.015 82.548)" fill="#f6a97e"/>
    <path id="Path_3250" data-name="Path 3250" d="M461.222,255.322l-.5-.448,4.87-5.451.5.448Z" transform="translate(156.69 84.828)" fill="#d66947"/>
    <rect id="Rectangle_544" data-name="Rectangle 544" width="9.702" height="0.67" transform="matrix(0.637, -0.771, 0.771, 0.637, 615.549, 337.483)" fill="#d66947"/>
    <rect id="Rectangle_545" data-name="Rectangle 545" width="10.735" height="0.67" transform="translate(613.245 335.321) rotate(-48.978)" fill="#d66947"/>
    <path id="Path_3251" data-name="Path 3251" d="M424.924,244.023a11.122,11.122,0,0,1-5.4,10.313l0,.008c-8,5.362-18.792,9.712-30.659,12.818,6.093,5.71,12.781,12.2,12.385,14.557-2.452,5.221-3.059,22.565-7.023,23.587-2.065,1.041-33.493-17.05-29.667-30.032,9.119-30.275,38.906-41.3,38.906-41.3l2.048.066c1.636-1.194,5.363-.206,7.534-.355a11.131,11.131,0,0,1,11.872,10.339" transform="translate(123.877 79.392)" fill="#fff"/>
    <path id="Path_3252" data-name="Path 3252" d="M418.507,384.932s-1.486,6.018,2.649,6.908c4.941,1.156,11.369,4.554,10.425,8.566H403.766c.3-6.426,1.347-12.271,3.906-14.993,2.853.291,8.148-2.373,10.835-.481" transform="translate(137.319 130.681)" fill="#fff"/>
    <path id="Path_3253" data-name="Path 3253" d="M388.258,384.932s-2.373,5.17,3,7.395c3.721,1.122,8.661,3.976,6.5,8.079H373.517c.3-6.426,1.345-12.271,3.905-14.993,2.853.291,8.149-2.373,10.836-.481" transform="translate(127.032 130.681)" fill="#fff"/>
    <rect id="Rectangle_546" data-name="Rectangle 546" width="41.218" height="17.211" transform="translate(532.727 331.701) rotate(-69.704)" fill="#f6a97e"/>
    <path id="Path_3254" data-name="Path 3254" d="M418.3,286.785H375.708c-11.8,33.249-1.749,138.2-1.749,138.2,5.276,1.776,11.017,1.926,19.415,0,0,0,2.665-67.143,5.19-104.81a393.421,393.421,0,0,0,11.008,44.739s-.517,24.725,5.4,60.071c6.1,2.05,12.2,1.652,18.3,0,.05-20.139,3.369-42.394,2.2-63.088-2.108-37.236-11.915-68.51-17.175-75.115" transform="translate(125.825 97.535)" fill="#e30230"/>
    <path id="Path_3255" data-name="Path 3255" d="M417.288,241.905h0a11.315,11.315,0,0,1-6.668-14.494l3.09-8.355a11.315,11.315,0,0,1,14.494-6.668c5.819,2.152,13.444-3.831,11.292,1.989l-3.74,10.116c.062,2.994.559,5.029-.393,5.888s-2.545,2.053-2.545,2.053c-3.645,9.694-9.71,11.624-15.53,9.472" transform="translate(139.413 71.995)" fill="#f6a97e"/>
    <path id="Path_3256" data-name="Path 3256" d="M414.857,208.136c5.623-5.433,15.682-4.03,21.12-.847,5.748-.978,8.953,2,8.9,5.866-.883,6.671-6.463,7.054-12.2,6.156-2.05,6.589-3.4,10.391-6.111,10.529a7.36,7.36,0,0,0,1.563-3.877c-.094-2.923-2.608-3.616-4.161-2.509-1.675,1.089-3.234,5.292-1.662,8.808-6.852,3.952-10.8,2.846-16.683.669-.083-11.238-1.333-24.9,9.241-24.8" transform="translate(137.919 69.542)" fill="#181818"/>
    <path id="Path_3257" data-name="Path 3257" d="M362.3,395.28s-.791-41.377,15.722-94.022A195.062,195.062,0,0,1,393.8,244.463c6.206-12.354,13.968-12.5,22.473-9.35l16.405,6.067c13.832,5.551,21.088,14.342,16.972,25.47-3.779,18.622-8.9,34.264-18.611,49.679,7.3,38.209,11.353,86.683,10.212,88.323-10.463,2.482-31.132,2.636-45.35,1.647-.448,0-2.371-36.112-2.371-36.112a252.374,252.374,0,0,0-2.1,35.929c-17.408-.261-29.127-6.934-29.128-10.836" transform="translate(123.215 79.376)" fill="#fff"/>
    <path id="Path_3258" data-name="Path 3258" d="M458.793,266.173l2.373-3.022c-.973-3.151-6.607-7.3-11.032-7.581l-3.913,4.634Z" transform="translate(151.758 86.918)" fill="#fff"/>
    <path id="Path_3259" data-name="Path 3259" d="M419.893,243.33a11.125,11.125,0,0,1,10.851,4.216l.007,0c6.219,7.354,11.742,17.6,16.151,29.043,5-6.691,10.7-14.059,13.089-13.929,5.461,1.857,9.409,3.917,10.867,7.742,1.265,1.936-16.156,34.51-29.483,32.153-13.049-2.5-29.71-37.909-29.71-37.909l.468-.915c-1.37-1.493-.8-5.307-1.193-7.448a11.132,11.132,0,0,1,8.955-12.948" transform="translate(139.697 82.694)" fill="#fff"/>
    <rect id="Rectangle_547" data-name="Rectangle 547" width="6.929" height="0.671" transform="translate(585.909 366.181) rotate(-87.138)" fill="#e30230"/>
    <path id="Path_3260" data-name="Path 3260" d="M404.494,230.969a9.851,9.851,0,0,0-3.567,4.255c3.8,5.631,10.866,7.765,21.236,7.994a15.693,15.693,0,0,0-1.42-6.293c-4.753-.659-11.8-2.586-16.249-5.955" transform="translate(136.354 78.552)" fill="#fff"/>
    <path id="Path_3261" data-name="Path 3261" d="M424.7,282.027a179.953,179.953,0,0,1-9.886-15.694l.592-.314a179.231,179.231,0,0,0,9.84,15.62Z" transform="translate(141.076 90.472)" fill="#e30230"/>
    <path id="Path_3262" data-name="Path 3262" d="M410.827,255.385l-.662-.107c.8-4.882,2.793-8.326,5.933-10.236,4.957-3.015,10.916-1.124,11.17-1.04l-.209.635c-.059-.016-5.926-1.877-10.618.981-2.962,1.8-4.851,5.09-5.614,9.767" transform="translate(139.496 82.759)" fill="#e30230"/>
    <path id="Path_3263" data-name="Path 3263" d="M423.252,248.32c-4.522-.027-24.914-8.347-32.085-13.09l.369-.559c7.459,4.933,27.728,12.955,31.721,12.979Z" transform="translate(133.034 79.811)" fill="#e30230"/>
    <path id="Path_3264" data-name="Path 3264" d="M421.065,242.59a36.808,36.808,0,0,1-10.359-2.1c-2.526-.854-8.561-3.16-10.005-6.164l.6-.291c.925,1.926,4.52,4.1,9.617,5.819,4.436,1.5,9.174,2.34,11.263,1.989l.11.662a7.713,7.713,0,0,1-1.23.086" transform="translate(136.277 79.594)" fill="#e30230"/>
    <path id="Path_3265" data-name="Path 3265" d="M427.03,219s-3.5,9.838,3.254,10.946c0,0,.667,12.943-10.516,11.12-6.32-.974,1.747-7.156,2.763-16.167Z" transform="translate(141.947 74.481)" fill="#181818"/>
    <path id="Path_3266" data-name="Path 3266" d="M458.111,265.682c-2.675-6.014-10.7-7.592-10.782-7.606l.125-.659c.343.066,8.452,1.66,11.269,7.994Z" transform="translate(152.135 87.546)" fill="#e30230"/>
    <path id="Path_3267" data-name="Path 3267" d="M374.99,294.774l-.654-.149c.71-3.113,1.378-6.27,2.083-9.614,3.455-16.359,7.369-34.9,17.226-48.254l.539.4c-9.769,13.236-13.668,31.7-17.108,47.994-.708,3.346-1.375,6.507-2.085,9.625" transform="translate(127.31 80.52)" fill="#e30230"/>
    <path id="Path_3268" data-name="Path 3268" d="M409.628,297.94l-.134-.657c3.759-.764,5.241-2.167,5.255-2.18l.47.477c-.064.064-1.613,1.552-5.591,2.36" transform="translate(139.267 100.363)" fill="#e30230"/>
    <path id="Path_3269" data-name="Path 3269" d="M406.014,300.3H406c-10.422-.383-19.311-2.7-26.42-6.884a.335.335,0,0,1-.158-.355l1.094-5.47a.334.334,0,0,1,.18-.235.342.342,0,0,1,.3,0,65.8,65.8,0,0,0,26.494,6.8.335.335,0,0,1,.308.422l-1.458,5.47a.336.336,0,0,1-.324.248m-25.885-7.342c6.918,4.018,15.54,6.258,25.631,6.663l1.284-4.81a66.444,66.444,0,0,1-25.952-6.664Z" transform="translate(129.039 97.716)" fill="#e30230"/>
    <path id="Path_3270" data-name="Path 3270" d="M383.76,290.962a1.246,1.246,0,1,1-1.246-1.246,1.246,1.246,0,0,1,1.246,1.246" transform="translate(129.668 98.531)" fill="#e30230"/>
    <path id="Path_3271" data-name="Path 3271" d="M399.139,294.807a1.246,1.246,0,1,1-1.246-1.246,1.246,1.246,0,0,1,1.246,1.246" transform="translate(134.898 99.839)" fill="#e30230"/>
    <rect id="Rectangle_548" data-name="Rectangle 548" width="1.005" height="186.89" transform="translate(305.382 344.186)" fill="#181818"/>
    <rect id="Rectangle_549" data-name="Rectangle 549" width="1.005" height="186.89" transform="translate(242.104 344.186)" fill="#181818"/>
    <rect id="Rectangle_550" data-name="Rectangle 550" width="74.655" height="3.717" transform="translate(229.836 373.919)" fill="#181818"/>
    <rect id="Rectangle_551" data-name="Rectangle 551" width="74.655" height="3.717" transform="translate(235.526 344.149)" fill="#181818"/>
    <rect id="Rectangle_552" data-name="Rectangle 552" width="74.655" height="3.717" transform="translate(218.458 433.46)" fill="#181818"/>
    <rect id="Rectangle_553" data-name="Rectangle 553" width="74.655" height="3.717" transform="translate(224.147 403.689)" fill="#181818"/>
    <rect id="Rectangle_554" data-name="Rectangle 554" width="74.655" height="3.717" transform="translate(207.08 493)" fill="#181818"/>
    <rect id="Rectangle_555" data-name="Rectangle 555" width="74.655" height="3.717" transform="translate(212.77 463.23)" fill="#181818"/>
    <rect id="Rectangle_556" data-name="Rectangle 556" width="190.502" height="1.34" transform="translate(205.103 530.961) rotate(-78.87)" fill="#181818"/>
    <rect id="Rectangle_557" data-name="Rectangle 557" width="190.502" height="1.34" transform="matrix(0.193, -0.981, 0.981, 0.193, 268.398, 530.965)" fill="#181818"/>
    <path id="Path_3272" data-name="Path 3272" d="M264.908,105.443h-5.139a.929.929,0,0,1-.929-.929V97.633a.93.93,0,0,1,.929-.929h5.139a.929.929,0,0,1,.929.929v6.881a.928.928,0,0,1-.929.929" transform="translate(88.031 32.889)" fill="#181818"/>
    <path id="Path_3273" data-name="Path 3273" d="M270.3,100.934H256.671a.945.945,0,0,1-.945-.945V88.4a.87.87,0,0,1,.87-.87H270.3Z" transform="translate(86.971 29.769)" fill="#181818"/>
    <path id="Path_3274" data-name="Path 3274" d="M266.605,100.934s2.565-1.875,2.565-1.892V89.424l-2.565-1.892Z" transform="translate(90.671 29.769)" fill="#e30230"/>
    <path id="Path_3275" data-name="Path 3275" d="M268.519,98.562a41.942,41.942,0,0,1,15.3-4.463v-.694a41.032,41.032,0,0,1-15.3-4.461Z" transform="translate(91.322 30.25)" fill="#181818"/>
    <path id="Path_3276" data-name="Path 3276" d="M264.616,144.291h-4.24a2.042,2.042,0,0,1-2.042-2.042V101.476a.671.671,0,0,1,.671-.671h7a.683.683,0,0,1,.682.683v40.734a2.069,2.069,0,0,1-2.069,2.069" transform="translate(87.858 34.283)" fill="#181818"/>
    <path id="Path_3277" data-name="Path 3277" d="M255.971,102.035h0a.642.642,0,0,1-.639-.639V87.515a.639.639,0,1,1,1.278,0V101.4a.642.642,0,0,1-.639.639" transform="translate(86.838 29.546)" fill="#fff"/>
    <rect id="Rectangle_558" data-name="Rectangle 558" width="8.351" height="8.141" transform="translate(346.192 141.402)" fill="#e30230"/>
    <rect id="Rectangle_559" data-name="Rectangle 559" width="6.997" height="0.67" transform="translate(346.869 130.367)" fill="#666"/>
    <rect id="Rectangle_560" data-name="Rectangle 560" width="6.997" height="0.67" transform="translate(346.869 134.753)" fill="#666"/>
    <path id="Path_3278" data-name="Path 3278" d="M269.919,114.184c.256-.492-.35-3.728-1.258-2.724,0,0-5.509,6.95-7.61,7.614-1.144.386-.888-3.3-.888-3.3a3.979,3.979,0,0,0-1.982.682c-4.152,2.632-5.1,8.837-5.1,8.837-.682,2.928,1.685,8.209,5.129,7.405,0,0,6.914-1.843,9.224-3.251s4-6.729,4-6.729c.44-1.028.138-3.516-.322-2.746.72-1.166-.02-2.767-.8-2.711.726-.927.173-2.845-.394-3.077" transform="translate(86.032 37.842)" fill="#fca886"/>
    <path id="Path_3279" data-name="Path 3279" d="M261.783,120.106l-.444-.5a31.993,31.993,0,0,0,5.452-6.3l.559.37a32.678,32.678,0,0,1-5.567,6.43" transform="translate(88.88 38.535)" fill="#d66947"/>
    <path id="Path_3280" data-name="Path 3280" d="M264.005,123.574l-.489-.458a25.685,25.685,0,0,0,3.837-5.567l.591.315a26.3,26.3,0,0,1-3.939,5.71" transform="translate(89.621 39.978)" fill="#d66947"/>
    <path id="Path_3281" data-name="Path 3281" d="M262.908,121.562l-.46-.488a23.837,23.837,0,0,0,4.408-5.514l.58.334a24.445,24.445,0,0,1-4.528,5.669" transform="translate(89.258 39.302)" fill="#d66947"/>
    <path id="Path_3282" data-name="Path 3282" d="M257.759,118.084a2.159,2.159,0,0,1-1.3-.355l.409-.529c.038.027.911.643,2.708-.319l.316.59a4.54,4.54,0,0,1-2.137.614" transform="translate(87.222 39.751)" fill="#d66947"/>
    <path id="Path_3283" data-name="Path 3283" d="M177.893,292.709s19.658,7.022,14.221,11.269H162.947c-2.176.192-.848-5.419.626-11.269Z" transform="translate(55.028 99.549)" fill="#181818"/>
    <path id="Path_3284" data-name="Path 3284" d="M217.372,270.735s21.313,5.555,16.359,11.1h-31.3c-2.176.189-.848-5.339.626-11.1Z" transform="translate(68.454 92.076)" fill="#181818"/>
    <path id="Path_3285" data-name="Path 3285" d="M199.93,123.6s-5.441-7.171-5.441-11.095c0-5.289,15.825-14.627,20.607-13.41s7.952,12.031,7.952,12.031Z" transform="translate(66.145 33.665)" fill="#fff"/>
    <path id="Path_3286" data-name="Path 3286" d="M212.9,189.239c17.4,16.021,32.854,31.585,45.267,46.437a15.216,15.216,0,0,1,0,19.371l-32.156,43.4c-9.214,1.869-15.237,2.029-17.176,0,0,0,5.244-28.591,21.97-53-16.314-7.1-45.4-31.772-50.664-50.071Z" transform="translate(61.265 64.36)" fill="#e30230"/>
    <path id="Path_3287" data-name="Path 3287" d="M175.219,199.37s-3.259,8.26,1.079,20.922c-6.994,33.965-11.335,71.81-14.184,111.836a23.326,23.326,0,0,0,15.644-1.453c24.467-63.99,32.337-102.119,36.842-139.954l-4.517-9.647-14.528,5.246Z" transform="translate(55.134 61.583)" fill="#e30230"/>
    <path id="Path_3288" data-name="Path 3288" d="M216.807,106.247a34.6,34.6,0,0,1,3.845,1.358c.9,1.319,2.8,6.118,1.093,12.478-1.922,7.182-6.616-10.065-6.616-10.065Z" transform="translate(73.165 36.134)" fill="#181818"/>
    <path id="Path_3289" data-name="Path 3289" d="M223.6,108.244s12.506,26.078,3.835,31.431a9.662,9.662,0,0,1-5.494,1.442l-4.157,12.421-15.747-6.993s2.564-7.238,2.412-10.253a35.3,35.3,0,0,1-3.242-16.361l5.429-9.953,9.726-1.734,5.654.6Z" transform="translate(68.41 36.813)" fill="#fca886"/>
    <path id="Path_3290" data-name="Path 3290" d="M197.471,120.038a12.971,12.971,0,0,1,1.843-8.362,15.013,15.013,0,0,1,5.949-4.828,30.431,30.431,0,0,1,8.209-2.359c1.766-.284,3.546-.469,5.328-.61a21.719,21.719,0,0,0,5.894-.866,7.865,7.865,0,0,0,3.03-1.907c1.06,3.293,2.192,10.031-1.951,12.577-7.094,4.322-17.445,5.811-17.445,5.811,1.978,4.559,4.018,9.185,2.64,10.1-.745-1.786-1.82-2.294-3.224-2.2-4.611.768-4,6.849,2.112,8.349a4.857,4.857,0,0,1-3.558,3.227c-10.241-7.129-12.728-14.367-8.826-18.932" transform="translate(66.564 34.386)" fill="#181818"/>
    <path id="Path_3291" data-name="Path 3291" d="M197.039,218.731l-.651-.157,2.257-9.32.653.157Z" transform="translate(66.791 71.167)" fill="#af0024"/>
    <path id="Path_3292" data-name="Path 3292" d="M218.577,134.316a10.77,10.77,0,0,1-7.624-4.728l.563-.363a10.282,10.282,0,0,0,7.116,4.424Z" transform="translate(71.744 43.949)" fill="#d66947"/>
    <path id="Path_3293" data-name="Path 3293" d="M215.269,133.014c-13.079,4.487-36.9,19.742-48.936,93.312,17.752,4.681,46.507,5.472,46.507,5.472,2.8-6.993,5.745-22.433,5.745-22.433l7.492,6.919c8.444-29.625,9.836-49.227,5.921-73.989-10.317-.706-16.472-9.45-16.728-9.28" transform="translate(56.569 45.237)" fill="#fff"/>
    <path id="Path_3294" data-name="Path 3294" d="M247.77,155.633l-36.057-6.274-2.759,21.306,39.733,3.857c7.053.462,11.25-2.8,13.043-6.848l17.139-43.151-10.816-2.263Z" transform="translate(71.064 41.58)" fill="#fca886"/>
    <path id="Path_3295" data-name="Path 3295" d="M248.195,153.35a136.1,136.1,0,0,1,18.074-29.781,20.762,20.762,0,0,1,13.185,7.672s-9.208,39.387-20.119,42.835c-9.549,3.6-50.255-3.073-50.255-3.073s-3.4-16.223-3.4-16.506,2.829-10.281,2.829-10.281l10.174,2.691a158.071,158.071,0,0,1,29.508,6.443" transform="translate(69.952 42.025)" fill="#fff"/>
    <path id="Path_3296" data-name="Path 3296" d="M220.757,161.666a70.5,70.5,0,0,1-15.455-3.519l.222-.631A69.829,69.829,0,0,0,220.835,161Z" transform="translate(69.822 53.571)" fill="#e30230"/>
    <path id="Path_3297" data-name="Path 3297" d="M241.235,152.779l-.67-.013a8.236,8.236,0,0,0-3.337-6.754l.365-.562a8.757,8.757,0,0,1,3.642,7.329" transform="translate(80.68 49.467)" fill="#e30230"/>
    <path id="Path_3298" data-name="Path 3298" d="M217.263,232.825l4.7-5.015.489.458-3.353,3.578,7.462-1.222.109.663Z" transform="translate(73.89 77.477)" fill="#af0024"/>
    <path id="Path_3299" data-name="Path 3299" d="M204.27,129.975c4.456,5.317,9.67,9.263,15.952,11.27l.728,5.618-8.712-.366-6.087-6.991-4.6-4.781Z" transform="translate(68.548 44.204)" fill="#fff"/>
    <path id="Path_3300" data-name="Path 3300" d="M203.709,151.649l-.667-.066c.382-3.872,1.812-6.84,4.248-8.819a13.5,13.5,0,0,1,9.17-2.641l-.071.666a13.041,13.041,0,0,0-8.681,2.5c-2.29,1.863-3.636,4.676-4,8.361" transform="translate(69.054 47.64)" fill="#e30230"/>
    <path id="Path_3301" data-name="Path 3301" d="M210.139,142.516a24.071,24.071,0,0,1-8.8-8.782l.576-.343a23.394,23.394,0,0,0,8.552,8.542Z" transform="translate(68.475 45.366)" fill="#e30230"/>
    <path id="Path_3302" data-name="Path 3302" d="M205.732,200.43l-.65-.162c.066-.267,6.692-26.755,8.933-40.746l.662.106c-2.246,14.019-8.878,40.537-8.945,40.8" transform="translate(69.748 54.253)" fill="#e30230"/>
    <path id="Path_3303" data-name="Path 3303" d="M213.744,191.72l-.653-.151a195.848,195.848,0,0,0,3.77-22.377l.666.071a196.7,196.7,0,0,1-3.783,22.457" transform="translate(72.471 57.542)" fill="#e30230"/>
    <path id="Path_3304" data-name="Path 3304" d="M179.589,185.671a43.55,43.55,0,0,1-9.543-1.175l.168-.65a40.675,40.675,0,0,0,11.32,1.088l.823-4.354a33.709,33.709,0,0,1-10.836-1.6l.23-.63a33.439,33.439,0,0,0,10.966,1.561h.046a.332.332,0,0,1,.327.4l-.945,5a.336.336,0,0,1-.3.271c-.752.062-1.508.088-2.255.088" transform="translate(57.832 60.656)" fill="#e30230"/>
    <path id="Path_3305" data-name="Path 3305" d="M178.273,181.764a.912.912,0,1,1-.911-.911.911.911,0,0,1,.911.911" transform="translate(60.01 61.507)" fill="#e30230"/>
    <path id="Path_3306" data-name="Path 3306" d="M523.1,237.5a5.9,5.9,0,0,1-4.988.074,10.9,10.9,0,0,1-4.176-4.031,22.57,22.57,0,0,1-2.842-5.575,2.432,2.432,0,0,1,1.781-3.478c-.122-1.521,1.993-2.419,2.694-1.706-.431-1,2.115-2.584,2.647-1.265-1.158-2.322-4.252-9.3-4.252-9.3-.9-1.961,1.5-3.869,2.9-1.489.889,1.253,6.436,12.663,6.436,12.663,1-.543-.972-4.932,1.347-6.554a.479.479,0,0,1,.657.287,26.935,26.935,0,0,1,1.611,13.228c-.106,2.466-.831,5.827-3.811,7.151" transform="translate(173.748 71.29)" fill="#f3a786"/>
    <path id="Path_3307" data-name="Path 3307" d="M513.554,228.32a2.1,2.1,0,0,1-1.768-1.045l.847-.543a1.11,1.11,0,0,0,.921.583h0a1.391,1.391,0,0,0,1.112-.74l.286-.448.432.31a1.272,1.272,0,0,0,1.4.142,1.047,1.047,0,0,0,.465-1.085L517,223.731l1.136,1.371a1.059,1.059,0,0,0,1.34.346c.344-.205.425-.608.222-1.106l-2.381-5.805.929-.382,2.383,5.807a1.8,1.8,0,0,1-.635,2.349,1.915,1.915,0,0,0-2.685,1.127,2.184,2.184,0,0,1-2.081.067,2.23,2.23,0,0,1-1.667.815Z" transform="translate(174.057 74.194)" fill="#d66947"/>
    <rect id="Rectangle_561" data-name="Rectangle 561" width="1.005" height="6.079" transform="matrix(0.916, -0.401, 0.401, 0.916, 688.901, 294.25)" fill="#d66947"/>
    <rect id="Rectangle_562" data-name="Rectangle 562" width="1.005" height="5.836" transform="translate(686.172 295.994) rotate(-25.619)" fill="#d66947"/>
    <path id="Path_3308" data-name="Path 3308" d="M517.777,226.962a8.475,8.475,0,0,1-.915-2.719l1-.137a7.421,7.421,0,0,0,.811,2.392Z" transform="translate(175.783 76.218)" fill="#d66947"/>
    <path id="Path_3309" data-name="Path 3309" d="M518.272,222.78l-.848-.541a7.355,7.355,0,0,1,3.487-2.7l.326.95a6.434,6.434,0,0,0-2.964,2.294" transform="translate(175.974 74.663)" fill="#d66947"/>
    <path id="Path_3310" data-name="Path 3310" d="M573.353,207.432a23.647,23.647,0,0,1,15.777,1c5.311,2.368,8.708,7.093,11.578,12.5,2.58,4.858,5.26,9.669,8.058,14.394,4.567,7.714,7.089,18.483,2.813,27.286,1.561,13.783-37.69-1.756-37.69-1.756s-6.154,11.356-11.107,4c-9.839-10.526,1.672-34.25,1.672-34.25-1.17-12.561.962-20.877,8.9-23.166" transform="translate(190.047 70.241)" fill="#181818"/>
    <path id="Path_3311" data-name="Path 3311" d="M579.187,248.851l-35.447,6.168-15.131-24.9a63.972,63.972,0,0,1-11.422,4.432l12.83,32.3c1.762,3.975,5.888,7.186,12.822,6.73L581.9,269.8Z" transform="translate(175.893 78.264)" fill="#fca886"/>
    <path id="Path_3312" data-name="Path 3312" d="M545.3,254.783a133.837,133.837,0,0,0-17.767-29.277,20.41,20.41,0,0,0-12.963,7.542s9.051,38.721,19.779,42.111c9.387,3.538,49.4-3.022,49.4-3.022s3.338-15.948,3.338-16.227-2.781-10.107-2.781-10.107l-3.365.516c-9.742,1.122-26.045,5.433-35.645,8.464" transform="translate(175.005 76.694)" fill="#fff"/>
    <path id="Path_3313" data-name="Path 3313" d="M534.738,254.224a8.619,8.619,0,0,1,3.583-7.211l.365.563a8.09,8.09,0,0,0-3.278,6.635Z" transform="translate(181.862 84.008)" fill="#e30230"/>
    <path id="Path_3314" data-name="Path 3314" d="M589.96,384.93s-1.152,5.2-2.6,6.5-7.669,3.147-7.2,8.975H599.62s2.281-.076,2.281-2.164-.793-6.907-1.363-11.779c-2.062-2.683-7.834-3.372-10.579-1.529" transform="translate(197.302 130.562)" fill="#fff"/>
    <path id="Path_3315" data-name="Path 3315" d="M570.3,385.5c-2.538.355-2.271,5.1-7.936,6.454-6.893,1.41-11.084,3.843-11.15,6.53.066.547-.2,1.018.1,1.367H579.8a2.1,2.1,0,0,0,2.1-2.123,81.453,81.453,0,0,0-1.47-10.073l-.934-1.438c-1,1.647-7.9,3.006-9.2-.717" transform="translate(187.449 131.108)" fill="#fff"/>
    <path id="Path_3316" data-name="Path 3316" d="M595.3,246.74c-9.005,4.8-18.629,7.793-31.638.934l8.582-3.319V224.717h15.723v19.678Z" transform="translate(191.698 76.425)" fill="#f3a786"/>
    <path id="Path_3317" data-name="Path 3317" d="M595.3,241.632c-11.925,20.073-23,30.657-31.638.934l7.258-2.83c2.829,2.527,11.211,2.936,19.174.114Z" transform="translate(191.698 81.533)" fill="#e30230"/>
    <path id="Path_3318" data-name="Path 3318" d="M594.122,425.463C592.766,424.328,583.96,317.9,583.96,317.9l-1.41-.762s-2.107,107.624-2.793,108.305c-1.252,1.242-14.3-.042-15.281-1.178-.608-.7-11.02-99.9-6.548-118.21a55.537,55.537,0,0,1,9.335-21.633h33.021s10.209,9.3,10.693,37.3c0,0,3.739,66.605-1.836,102.941-1.27,1.187-13.664,1.939-15.02.8" transform="translate(189.371 96.731)" fill="#181818"/>
    <path id="Path_3319" data-name="Path 3319" d="M614.792,332.1c-25.237,4.961-53.4,2.994-60.932-.314l3.961-45.963s-4.869-28.511-2.88-33.457c1.816-4.826,5.529-7.722,10.886-9.847l5.158-1.82c.767,6.347,7.71,17.067,7.71,17.067s12.991-14.449,17.677-17.212l7.5,1.932c5.978,1.865,9.071,3.684,10.979,8.767,2.588,6.729-6.821,36.964-6.821,36.964,3.937,12.058,7.132,29.178,6.758,43.881" transform="translate(188.366 81.811)" fill="#fff"/>
    <path id="Path_3320" data-name="Path 3320" d="M576.079,243.213h0a11.638,11.638,0,0,0,11.6-11.6V222.93a11.6,11.6,0,1,0-23.208,0s-.255,20.282,11.6,20.282" transform="translate(191.976 71.871)" fill="#f3a786"/>
    <path id="Path_3321" data-name="Path 3321" d="M574.225,236.707a11.978,11.978,0,0,1-4.3-.792l.359-.939a10.981,10.981,0,0,0,3.94.726,11.113,11.113,0,0,0,8.323-3.775l.753.665a12.114,12.114,0,0,1-9.076,4.115" transform="translate(193.83 78.878)" fill="#d66947"/>
    <path id="Path_3322" data-name="Path 3322" d="M587.97,225.073a36.85,36.85,0,0,1-16.21-10.446,9.473,9.473,0,0,0-6.738,6.684l-1.332-5.291,1.744-4.52,7.936-2.885,8.188.48,5.606,4.137,2.931,6.042Z" transform="translate(191.709 70.949)" fill="#181818"/>
    <path id="Path_3323" data-name="Path 3323" d="M572.268,297.594H544.349a2.933,2.933,0,0,1-2.924-2.924l-6.906-37.631a2.933,2.933,0,0,1,2.924-2.924h27.919a2.933,2.933,0,0,1,2.924,2.924l6.906,37.631a2.933,2.933,0,0,1-2.924,2.924" transform="translate(181.788 86.424)" fill="#e30230"/>
    <path id="Path_3324" data-name="Path 3324" d="M562.951,297.562v-.67a2.545,2.545,0,0,0,2.541-2.541L558.706,257.4a2.564,2.564,0,0,0-2.545-2.6v-.67a3.213,3.213,0,0,1,3.209,3.21l6.786,36.948a3.219,3.219,0,0,1-3.205,3.271" transform="translate(189.148 86.43)" fill="#af0024"/>
    <path id="Path_3325" data-name="Path 3325" d="M581.781,221.515c.121-.012,1.585-2.211,3.529-.807,3.061,2.23.115,8.74-3.22,8.029-3.337-1.362-.308-7.222-.308-7.222" transform="translate(197.433 74.903)" fill="#f3a786"/>
    <path id="Path_3326" data-name="Path 3326" d="M574.412,280.151c-2.384,4.662-8.641,2.6-9.438,2.484-4.115-.607-12.165-6.514-12.165-6.514-2.168-1.37-1.123-3.175-.419-2.891.328.168-1.2-.728-1.506-.921-2.659-1.808-.805-3.554.411-3.129-2.281-1.041-1.3-3.616.217-3.058-1.549-.925-.556-3.243,1.942-2.3,1.428.4,12.531,5.606,12.531,5.606l-.789-4.644a27.511,27.511,0,0,1,7.736,7.679c1.419,1.918,2.916,4.885,1.481,7.691" transform="translate(186.891 89.649)" fill="#f6a97e"/>
    <path id="Path_3327" data-name="Path 3327" d="M558.207,274.408l-6.6-3.136.288-.6,6.6,3.136Z" transform="translate(187.598 92.053)" fill="#d66947"/>
    <rect id="Rectangle_563" data-name="Rectangle 563" width="0.669" height="9.701" transform="translate(738.039 359.189) rotate(-62.455)" fill="#d66947"/>
    <rect id="Rectangle_564" data-name="Rectangle 564" width="0.67" height="10.736" transform="translate(738.302 356.067) rotate(-63.79)" fill="#d66947"/>
    <path id="Path_3328" data-name="Path 3328" d="M568.392,283.411l-3.676-1.119c-1.005-3.141,1.236-9.769,4.705-12.531l5.862,1.559Z" transform="translate(191.976 91.745)" fill="#fff"/>
    <path id="Path_3329" data-name="Path 3329" d="M592.009,251.623s-3.593,16.517,1.916,33.094c-7.928-2.625-20.1-6.321-21.986-4.848-3.416,4.649-5.473,8.6-4.479,12.569.071,2.312,33,19.047,42.58,9.485,9.269-9.517,1.162-48.25,1.162-48.25-2.53-14.3-16.552-12.885-19.194-2.049" transform="translate(192.906 82.719)" fill="#fff"/>
    <path id="Path_3330" data-name="Path 3330" d="M591.085,279.371c-.261-2.164-1.635-3.918-4.079-5.213l.314-.591c2.649,1.4,4.14,3.327,4.43,5.722Z" transform="translate(199.639 93.039)" fill="#e30230"/>
    <path id="Path_3331" data-name="Path 3331" d="M567.2,283.3c-1.316-6.805,4.421-12.756,4.666-13.006l.478.469c-.058.058-5.736,5.953-4.488,12.408Z" transform="translate(192.837 91.925)" fill="#e30230"/>
    <path id="Path_3332" data-name="Path 3332" d="M593.592,283.325a.318.318,0,0,1-.106-.017c-14.421-4.842-20.264-4.623-21.71-4.437a.412.412,0,0,1-.129-.009l-3.546-.943.172-.647,3.484.927c1.567-.188,7.421-.338,21.328,4.27-6.006-20.2-4.394-33.255.351-35.742l.311.6c-5.218,2.735-5.149,18.028.165,35.573a.334.334,0,0,1-.087.338.331.331,0,0,1-.233.094" transform="translate(193.209 83.911)" fill="#e30230"/>
    <path id="Path_3333" data-name="Path 3333" d="M603.382,292.575c-10.577,0-29.449-5.962-35.207-11.968l-3.593-1.092.2-.642,3.677,1.119a.329.329,0,0,1,.145.091c6.561,6.956,32.61,14.2,39.813,11.065l.267.614a13.853,13.853,0,0,1-5.3.813" transform="translate(192.012 94.844)" fill="#e30230"/>
    <path id="Path_3334" data-name="Path 3334" d="M575.325,261.809a.3.3,0,0,1-.261-.126,58.264,58.264,0,0,1-10.717-20.541l.646-.181a57.526,57.526,0,0,0,10.34,19.985,177.56,177.56,0,0,1,19.508-19.983l.438.508a177.969,177.969,0,0,0-19.7,20.219.328.328,0,0,1-.255.119" transform="translate(191.932 81.95)" fill="#e30230"/>
    <rect id="Rectangle_565" data-name="Rectangle 565" width="0.67" height="31.211" transform="translate(125.055 429.007) rotate(-12.463)" fill="#181818"/>
    <path id="Path_3335" data-name="Path 3335" d="M110.41,337.441l-19.1,4.221a3.478,3.478,0,0,1-4.146-2.645l-14.209-64.3a3.478,3.478,0,0,1,2.645-4.146l19.1-4.221A3.477,3.477,0,0,1,98.847,269l14.209,64.3a3.478,3.478,0,0,1-2.645,4.146" transform="translate(24.783 90.557)" fill="#181818"/>
    <path id="Path_3336" data-name="Path 3336" d="M111.06,326.455,87,331.771a2.886,2.886,0,0,1-3.439-2.194L70.013,268.249a2.885,2.885,0,0,1,2.194-3.439l24.056-5.316a2.885,2.885,0,0,1,3.439,2.194l13.552,61.328a2.883,2.883,0,0,1-2.194,3.439" transform="translate(23.788 88.23)" fill="#181818"/>
    <path id="Path_3337" data-name="Path 3337" d="M113.659,321.453l-29.753,6.575a3.029,3.029,0,0,1-3.613-2.3L68.4,271.9a3.029,3.029,0,0,1,2.3-3.613l29.753-6.575a3.029,3.029,0,0,1,3.613,2.3l11.893,53.82a3.031,3.031,0,0,1-2.3,3.613" transform="translate(23.238 88.984)" fill="#e30230"/>
    <path id="Path_3338" data-name="Path 3338" d="M82.052,315.3l-.143-.654,25.895-5.721.143.655Z" transform="translate(27.857 105.065)" fill="#666"/>
    <path id="Path_3339" data-name="Path 3339" d="M74.335,295.505c-1,5.249,5.334,7.506,6.051,7.911,3.7,2.087,13.882,2.365,13.882,2.365,2.6.253,2.892-1.856,2.147-2.068-.37-.07,1.422.165,1.792.2,3.273.208,2.872-2.36,1.626-2.779,2.49.59,3.314-2.1,1.739-2.6,1.828.224,2.478-2.266-.122-3.073-1.4-.57-13.609-3.326-13.609-3.326.293-1.086,5.021.08,6.057-2.511a.471.471,0,0,0-.39-.529,28.61,28.61,0,0,0-13.165,1.139c-2.345.657-5.409,2.111-6.008,5.271" transform="translate(25.245 98.225)" fill="#f6a97e"/>
    <rect id="Rectangle_566" data-name="Rectangle 566" width="0.67" height="7.459" transform="translate(114.16 400.735) rotate(-77.562)" fill="#d1655f"/>
    <rect id="Rectangle_567" data-name="Rectangle 567" width="0.67" height="9.899" transform="translate(115.231 397.967) rotate(-79.714)" fill="#d1655f"/>
    <rect id="Rectangle_568" data-name="Rectangle 568" width="0.671" height="10.955" transform="matrix(0.202, -0.979, 0.979, 0.202, 115.984, 394.845)" fill="#d1655f"/>
    <path id="Path_3340" data-name="Path 3340" d="M89.585,307.291c-.836-4.375,1.876-12.333,4.6-14.355L54.26,276.42c-14.023-2.842-18.2,14.691-5.77,19.472,7.683,3.432,25.513,8.914,35.594,10.5,1.754.275,5.5.9,5.5.9" transform="translate(13.981 93.904)" fill="#fff"/>
    <rect id="Rectangle_569" data-name="Rectangle 569" width="0.669" height="23.741" transform="translate(74.294 373.047) rotate(-67.314)" fill="#e30230"/>
    <path id="Path_3341" data-name="Path 3341" d="M80.144,300.656a141.756,141.756,0,0,1-20.655-4.85l.206-.637a141.128,141.128,0,0,0,20.541,4.822Z" transform="translate(20.232 100.386)" fill="#e30230"/>
    <path id="Path_3342" data-name="Path 3342" d="M104.662,282.068c-.293,5.288-7.031,5.954-7.829,6.174-4.121,1.13-14.15-1.024-14.15-1.024-2.609-.375-2.38-2.474-1.6-2.5.379.02-1.43-.181-1.8-.233-3.251-.578-2.241-2.954-.921-3.061-2.577-.025-2.734-2.806-1.072-2.915-1.841-.22-1.876-2.77.863-2.928,1.51-.216,14.114.033,14.114.033-.025-1.115-4.932-1.115-5.317-3.855a.471.471,0,0,1,.508-.418,29.175,29.175,0,0,1,12.6,4.225c2.133,1.19,4.779,3.318,4.6,6.5" transform="translate(25.843 92.282)" fill="#f6a97e"/>
    <rect id="Rectangle_570" data-name="Rectangle 570" width="0.67" height="7.516" transform="translate(107.039 377.444) rotate(-88.59)" fill="#d1655f"/>
    <rect id="Rectangle_571" data-name="Rectangle 571" width="0.671" height="9.973" transform="translate(104.219 374.098) rotate(-86.472)" fill="#d1655f"/>
    <path id="Path_3343" data-name="Path 3343" d="M88.01,277.517l-11.029-.425.027-.67,11.029.425Z" transform="translate(26.181 94.01)" fill="#d1655f"/>
    <path id="Path_3344" data-name="Path 3344" d="M93.391,289.409c1.875-4.012,1.146-12.314-1.028-14.906l43.04-6.4c14.4.6,14.255,18.464.938,20.11-8.343,1.475-25.062,2.51-37.353,1.643-1.782-.153-5.6-.442-5.6-.442" transform="translate(31.412 91.179)" fill="#fff"/>
    <path id="Path_3345" data-name="Path 3345" d="M97.619,273.485l-.119-.659c1.256-.225,30.789-5.513,34.71-3.228l-.338.578c-2.968-1.725-23.7,1.411-34.253,3.31" transform="translate(33.159 91.495)" fill="#e30230"/>
    <rect id="Rectangle_572" data-name="Rectangle 572" width="0.67" height="5.917" transform="matrix(0.017, -1, 1, 0.017, 134.44, 381.578)" fill="#e30230"/>
    <rect id="Rectangle_573" data-name="Rectangle 573" width="909.834" height="1.34" transform="translate(0 530.461)" fill="#181818"/>
  </g>
</svg>
