<svg id="instagram" xmlns="http://www.w3.org/2000/svg" width="35.339" height="35.346" viewBox="0 0 35.339 35.346">
  <path id="Path_8" data-name="Path 8" d="M35.7,10.392A12.915,12.915,0,0,0,34.877,6.1,9.054,9.054,0,0,0,29.7.932,12.948,12.948,0,0,0,25.417.111C23.525.021,22.924,0,18.125,0s-5.4.021-7.285.1A12.919,12.919,0,0,0,6.553.925,8.624,8.624,0,0,0,3.418,2.969,8.7,8.7,0,0,0,1.381,6.1,12.95,12.95,0,0,0,.56,10.385C.47,12.277.449,12.877.449,17.676s.021,5.4.1,7.285a12.915,12.915,0,0,0,.822,4.288A9.053,9.053,0,0,0,6.546,34.42a12.95,12.95,0,0,0,4.288.822c1.885.083,2.486.1,7.285.1s5.4-.021,7.285-.1a12.912,12.912,0,0,0,4.288-.822,9.041,9.041,0,0,0,5.172-5.172,12.959,12.959,0,0,0,.822-4.288c.083-1.885.1-2.486.1-7.285S35.781,12.277,35.7,10.392ZM32.515,24.823a9.688,9.688,0,0,1-.608,3.28,5.863,5.863,0,0,1-3.356,3.356,9.722,9.722,0,0,1-3.28.607c-1.864.083-2.423.1-7.139.1s-5.282-.02-7.14-.1a9.683,9.683,0,0,1-3.28-.607,5.439,5.439,0,0,1-2.03-1.319,5.5,5.5,0,0,1-1.319-2.03,9.724,9.724,0,0,1-.607-3.28c-.083-1.864-.1-2.424-.1-7.14s.02-5.282.1-7.139a9.683,9.683,0,0,1,.607-3.28A5.372,5.372,0,0,1,5.69,5.241,5.487,5.487,0,0,1,7.72,3.922,9.729,9.729,0,0,1,11,3.314c1.864-.083,2.424-.1,7.139-.1s5.282.021,7.14.1a9.688,9.688,0,0,1,3.28.608,5.435,5.435,0,0,1,2.03,1.319,5.494,5.494,0,0,1,1.319,2.03,9.727,9.727,0,0,1,.608,3.28c.083,1.864.1,2.423.1,7.139S32.6,22.958,32.515,24.823Zm0,0" transform="translate(-0.449 0)" fill="#171717"/>
  <path id="Path_9" data-name="Path 9" d="M134.029,124.5a9.08,9.08,0,1,0,9.08,9.08A9.082,9.082,0,0,0,134.029,124.5Zm0,14.97a5.89,5.89,0,1,1,5.89-5.89A5.891,5.891,0,0,1,134.029,139.47Zm0,0" transform="translate(-116.353 -115.904)" fill="#171717"/>
  <path id="Path_10" data-name="Path 10" d="M366.689,90.721a2.12,2.12,0,1,1-2.12-2.12A2.12,2.12,0,0,1,366.689,90.721Zm0,0" transform="translate(-337.454 -82.484)" fill="#171717"/>
</svg>
