<svg id="linkedin" xmlns="http://www.w3.org/2000/svg" width="37.663" height="36" viewBox="0 0 37.663 36">
  <path id="Path_4" data-name="Path 4" d="M4.567-.668C1.806-.668,0,1.146,0,3.529a4.179,4.179,0,0,0,4.461,4.2h.052c2.816,0,4.568-1.865,4.568-4.2A4.2,4.2,0,0,0,4.567-.668Zm0,0" transform="translate(0 0.668)" fill="#171717"/>
  <path id="Path_5" data-name="Path 5" d="M8.109,198.312h8.074V222.6H8.109Zm0,0" transform="translate(-7.632 -186.603)" fill="#171717"/>
  <path id="Path_6" data-name="Path 6" d="M236.565,188.625c-4.355,0-7.276,4.093-7.276,4.093V189.2h-8.074v24.29h8.074V199.921a5.533,5.533,0,0,1,.266-1.97A4.42,4.42,0,0,1,233.7,195c2.922,0,4.09,2.227,4.09,5.493v12.995h8.073V199.558C245.86,192.1,241.876,188.625,236.565,188.625Zm0,0" transform="translate(-208.197 -177.485)" fill="#171717"/>
</svg>
