<svg id="Group_2" data-name="Group 2" xmlns="http://www.w3.org/2000/svg" xmlns:xlink="http://www.w3.org/1999/xlink" width="377.936" height="51.846" viewBox="0 0 377.936 51.846">
  <defs>
    <clipPath id="clip-path">
      <rect id="Rectangle_1" data-name="Rectangle 1" width="377.936" height="51.846" fill="none"/>
    </clipPath>
  </defs>
  <g id="Group_1" data-name="Group 1" clip-path="url(#clip-path)">
    <path id="Path_1" data-name="Path 1" d="M876.343,129.7a.707.707,0,0,0,.288-.606.74.74,0,0,0-.264-.605,1.154,1.154,0,0,0-.751-.217H874.49v1.64h1.015a1.4,1.4,0,0,0,.838-.212" transform="translate(-607.272 -89.075)"/>
    <path id="Path_2" data-name="Path 2" d="M853.365,129.28l-.809,2.53h1.69l-.8-2.53Z" transform="translate(-592.04 -89.776)"/>
    <path id="Path_3" data-name="Path 3" d="M304.974,129.28l-.809,2.53h1.69l-.8-2.53Z" transform="translate(-211.221 -89.776)"/>
    <path id="Path_4" data-name="Path 4" d="M1013.943,128.821a1.553,1.553,0,0,0-.543-.44,1.713,1.713,0,0,0-1.421,0,1.535,1.535,0,0,0-.543.44,2.053,2.053,0,0,0-.349.695,3.155,3.155,0,0,0-.123.914,3.2,3.2,0,0,0,.121.912,2.088,2.088,0,0,0,.344.7,1.528,1.528,0,0,0,.543.445,1.608,1.608,0,0,0,.717.156,1.588,1.588,0,0,0,.711-.156,1.566,1.566,0,0,0,.543-.445,2.075,2.075,0,0,0,.346-.7,3.522,3.522,0,0,0,0-1.826,2.051,2.051,0,0,0-.346-.695" transform="translate(-702.043 -89.045)"/>
    <path id="Path_5" data-name="Path 5" d="M959.2,129.28l-.809,2.53h1.689l-.8-2.53Z" transform="translate(-665.538 -89.776)"/>
    <path id="Path_6" data-name="Path 6" d="M594.275,128.728a.951.951,0,0,0-.344-.2,1.4,1.4,0,0,0-.453-.069h-1.171v1.985h1.185a1.132,1.132,0,0,0,.8-.259.941.941,0,0,0,.281-.728,1.084,1.084,0,0,0-.076-.413.869.869,0,0,0-.217-.315" transform="translate(-411.315 -89.206)"/>
    <path id="Path_7" data-name="Path 7" d="M787.313,128.728a.952.952,0,0,0-.344-.2,1.4,1.4,0,0,0-.453-.069h-1.171v1.985h1.185a1.133,1.133,0,0,0,.8-.259.942.942,0,0,0,.281-.728,1.085,1.085,0,0,0-.076-.413.869.869,0,0,0-.217-.315" transform="translate(-545.366 -89.206)"/>
    <path id="Path_8" data-name="Path 8" d="M572.027,128.519h-.984v2.244h.979a1.311,1.311,0,0,0,.9-.286,1.058,1.058,0,0,0,.319-.831,1.074,1.074,0,0,0-.317-.84,1.3,1.3,0,0,0-.9-.286" transform="translate(-396.549 -89.247)"/>
    <path id="Path_9" data-name="Path 9" d="M374.129,129.28l-.809,2.53h1.689l-.8-2.53Z" transform="translate(-259.244 -89.776)"/>
    <path id="Path_10" data-name="Path 10" d="M328.444,129.187a1.541,1.541,0,0,0-.585-.4,2.131,2.131,0,0,0-.784-.136H326.1V132.8h.974a1.766,1.766,0,0,0,1.381-.534,2.258,2.258,0,0,0,.483-1.562,2.741,2.741,0,0,0-.127-.869,1.791,1.791,0,0,0-.366-.646" transform="translate(-226.453 -89.339)"/>
    <path id="Path_11" data-name="Path 11" d="M520.017,128.821a1.545,1.545,0,0,0-.543-.44,1.713,1.713,0,0,0-1.421,0,1.542,1.542,0,0,0-.543.44,2.065,2.065,0,0,0-.349.695,3.165,3.165,0,0,0-.123.914,3.2,3.2,0,0,0,.121.912,2.1,2.1,0,0,0,.344.7,1.532,1.532,0,0,0,.543.445,1.613,1.613,0,0,0,.718.156,1.586,1.586,0,0,0,.71-.156,1.558,1.558,0,0,0,.543-.445,2.075,2.075,0,0,0,.347-.7,3.522,3.522,0,0,0,0-1.826,2.051,2.051,0,0,0-.347-.695" transform="translate(-359.046 -89.045)"/>
    <path id="Path_12" data-name="Path 12" d="M464.677,129.187a1.541,1.541,0,0,0-.585-.4,2.131,2.131,0,0,0-.784-.136h-.974V132.8h.974a1.766,1.766,0,0,0,1.381-.534,2.258,2.258,0,0,0,.483-1.562,2.742,2.742,0,0,0-.127-.869,1.792,1.792,0,0,0-.366-.646" transform="translate(-321.058 -89.339)"/>
    <path id="Path_13" data-name="Path 13" d="M876.575,136.851a1.547,1.547,0,0,0-.914-.228H874.49v1.832h1.2a1.435,1.435,0,0,0,.892-.237.822.822,0,0,0,.306-.693.779.779,0,0,0-.315-.675" transform="translate(-607.272 -94.875)"/>
    <path id="Path_14" data-name="Path 14" d="M1112.3,128.728a.951.951,0,0,0-.344-.2,1.4,1.4,0,0,0-.453-.069h-1.171v1.985h1.185a1.132,1.132,0,0,0,.8-.259.941.941,0,0,0,.281-.728,1.079,1.079,0,0,0-.076-.413.874.874,0,0,0-.217-.315" transform="translate(-771.044 -89.206)"/>
    <path id="Path_15" data-name="Path 15" d="M275.414,122.155H569.192V101.523H275.414Zm11.248-7.041-.487-1.538h-2.266l-.5,1.538h-1.354l2.239-6.449h1.587l2.239,6.449Zm8.253-1.875a2.745,2.745,0,0,1-.588,1.026,2.506,2.506,0,0,1-.95.633,3.566,3.566,0,0,1-1.287.217h-2.538V108.66h2.538a3.619,3.619,0,0,1,1.283.212,2.5,2.5,0,0,1,.95.621,2.722,2.722,0,0,1,.59,1,4.135,4.135,0,0,1,.2,1.348,4.45,4.45,0,0,1-.2,1.4m5.157,1.875h-1.631l-2.181-6.449h1.524l1.466,4.929h.08l1.439-4.929h1.453Zm7.721,0-.487-1.538h-2.266l-.5,1.538h-1.354l2.239-6.449h1.587l2.239,6.449Zm8.356,0h-1.117l-2.977-4.036h-.081v4.036h-1.291v-6.449h1.126l2.968,4.018h.08v-4.018h1.292Zm7.17-1.234a2.431,2.431,0,0,1-.594.744,2.7,2.7,0,0,1-.865.482,3.487,3.487,0,0,1-2.339-.063,2.6,2.6,0,0,1-.952-.673,3,3,0,0,1-.6-1.068,4.877,4.877,0,0,1,0-2.831,3.009,3.009,0,0,1,.6-1.066,2.605,2.605,0,0,1,.952-.673,3.243,3.243,0,0,1,1.262-.235,3.091,3.091,0,0,1,1.068.181,2.745,2.745,0,0,1,.867.5,2.55,2.55,0,0,1,.6.764,2.458,2.458,0,0,1,.263.97h-1.314a1.562,1.562,0,0,0-.179-.505,1.39,1.39,0,0,0-.324-.389,1.429,1.429,0,0,0-.445-.248,1.623,1.623,0,0,0-.537-.087,1.509,1.509,0,0,0-.684.152,1.459,1.459,0,0,0-.519.438,2.081,2.081,0,0,0-.328.693,3.747,3.747,0,0,0,0,1.835,2.044,2.044,0,0,0,.328.693,1.453,1.453,0,0,0,1.207.593,1.718,1.718,0,0,0,.541-.083,1.428,1.428,0,0,0,.443-.234,1.363,1.363,0,0,0,.322-.367,1.418,1.418,0,0,0,.179-.483h1.314a2.464,2.464,0,0,1-.266.956m6.11-4.063h-2.923v1.506h2.758v1.068h-2.758v1.568h2.923v1.153h-4.272v-6.449h4.272Zm7.114,3.421a2.744,2.744,0,0,1-.588,1.026,2.506,2.506,0,0,1-.95.633,3.566,3.566,0,0,1-1.287.217h-2.538V108.66h2.538a3.619,3.619,0,0,1,1.283.212,2.5,2.5,0,0,1,.95.621,2.723,2.723,0,0,1,.59,1,4.135,4.135,0,0,1,.2,1.348,4.451,4.451,0,0,1-.2,1.4m9.77.641a2.433,2.433,0,0,1-.595.744,2.7,2.7,0,0,1-.865.482,3.488,3.488,0,0,1-2.34-.063,2.6,2.6,0,0,1-.952-.673,3,3,0,0,1-.6-1.068,4.871,4.871,0,0,1,0-2.831,3.008,3.008,0,0,1,.6-1.066,2.605,2.605,0,0,1,.952-.673,3.244,3.244,0,0,1,1.263-.235,3.092,3.092,0,0,1,1.068.181,2.743,2.743,0,0,1,.867.5,2.546,2.546,0,0,1,.6.764,2.454,2.454,0,0,1,.264.97h-1.314a1.561,1.561,0,0,0-.179-.505,1.392,1.392,0,0,0-.324-.389,1.421,1.421,0,0,0-.445-.248,1.62,1.62,0,0,0-.536-.087,1.51,1.51,0,0,0-.684.152,1.456,1.456,0,0,0-.518.438,2.076,2.076,0,0,0-.328.693,3.749,3.749,0,0,0,0,1.835,2.039,2.039,0,0,0,.328.693,1.485,1.485,0,0,0,.518.438,1.5,1.5,0,0,0,.688.154,1.72,1.72,0,0,0,.541-.083,1.432,1.432,0,0,0,.443-.234,1.361,1.361,0,0,0,.321-.367,1.423,1.423,0,0,0,.179-.483h1.314a2.459,2.459,0,0,1-.266.956m7.541-.579a2.978,2.978,0,0,1-.617,1.066,2.706,2.706,0,0,1-.977.675,3.64,3.64,0,0,1-2.583,0,2.706,2.706,0,0,1-.977-.675,3,3,0,0,1-.619-1.066,4.326,4.326,0,0,1-.217-1.414,4.262,4.262,0,0,1,.219-1.41,3.029,3.029,0,0,1,.623-1.069,2.694,2.694,0,0,1,.979-.675,3.369,3.369,0,0,1,1.285-.235,3.335,3.335,0,0,1,1.287.237,2.715,2.715,0,0,1,.974.675,3,3,0,0,1,.619,1.066,4.3,4.3,0,0,1,.217,1.41,4.36,4.36,0,0,1-.215,1.414m8.651,1.812h-1.251V110.8h-.072l-1.641,3.942h-.9L357,110.8h-.072v4.313h-1.252v-6.449h1.591L359.052,113h.08l1.788-4.335h1.587Zm6.651-3.314a2.012,2.012,0,0,1-.474.7,2.112,2.112,0,0,1-.729.451,2.623,2.623,0,0,1-.932.159H365.75v2H364.4v-6.449h2.691a2.466,2.466,0,0,1,.907.161,2.062,2.062,0,0,1,.707.452,2.011,2.011,0,0,1,.458.7,2.475,2.475,0,0,1,.163.914,2.363,2.363,0,0,1-.168.905m5.4,3.314-1.2-2.337h-1.1v2.337H370.9v-6.449h2.708a3,3,0,0,1,.956.143,2.008,2.008,0,0,1,.72.411,1.8,1.8,0,0,1,.454.65,2.372,2.372,0,0,1,.08,1.457,1.957,1.957,0,0,1-.228.523,1.764,1.764,0,0,1-.369.422,1.833,1.833,0,0,1-.5.295l1.359,2.548Zm7.3-5.3h-2.923v1.506h2.758v1.068h-2.758v1.568h2.923v1.153h-4.273v-6.449h4.273Zm7.355,5.3h-1.35v-2.7h-2.9v2.7h-1.35v-6.449h1.35v2.6h2.9v-2.6h1.35Zm6.166-5.3h-2.923v1.506h2.758v1.068h-2.758v1.568h2.923v1.153H391.1v-6.449h4.273Zm7.216,5.3h-1.117l-2.977-4.036h-.08v4.036h-1.292v-6.449h1.126l2.968,4.018h.08v-4.018h1.292Zm6.62-1.055a1.8,1.8,0,0,1-.521.659,2.428,2.428,0,0,1-.822.416,3.792,3.792,0,0,1-1.09.145,3.738,3.738,0,0,1-1.046-.136,2.435,2.435,0,0,1-.8-.391,1.847,1.847,0,0,1-.525-.617,1.885,1.885,0,0,1-.207-.813H405.5a.775.775,0,0,0,.129.355.951.951,0,0,0,.284.27,1.417,1.417,0,0,0,.413.172,2.1,2.1,0,0,0,.523.061,1.8,1.8,0,0,0,.482-.061,1.238,1.238,0,0,0,.378-.17.829.829,0,0,0,.248-.262.649.649,0,0,0,.09-.335.614.614,0,0,0-.063-.277.634.634,0,0,0-.2-.223,1.423,1.423,0,0,0-.346-.176,3.72,3.72,0,0,0-.507-.141l-.84-.178q-1.752-.367-1.752-1.841a1.906,1.906,0,0,1,.176-.827,1.848,1.848,0,0,1,.5-.637,2.276,2.276,0,0,1,.778-.409,3.37,3.37,0,0,1,1.015-.143,3.19,3.19,0,0,1,.979.143,2.446,2.446,0,0,1,.773.4,1.905,1.905,0,0,1,.514.615,1.792,1.792,0,0,1,.2.787h-1.269a.819.819,0,0,0-.121-.349.962.962,0,0,0-.252-.268,1.173,1.173,0,0,0-.362-.172,1.629,1.629,0,0,0-.453-.06,1.738,1.738,0,0,0-.46.056,1.1,1.1,0,0,0-.353.161.741.741,0,0,0-.228.255.693.693,0,0,0-.08.333.572.572,0,0,0,.248.482,2.192,2.192,0,0,0,.816.3l.778.166a4.074,4.074,0,0,1,.838.262,1.954,1.954,0,0,1,.577.382,1.4,1.4,0,0,1,.333.518,1.962,1.962,0,0,1,.107.671,2.051,2.051,0,0,1-.181.876m3.134,1.055H411v-6.449h1.35Zm5.246,0h-1.631l-2.182-6.449H415.3l1.466,4.929h.08l1.439-4.929h1.453Zm7.851-5.3h-2.923v1.506h2.758v1.068h-2.758v1.568h2.923v1.153h-4.273v-6.449h4.273Zm8.1,5.3-1.2-2.337h-1.1v2.337h-1.35v-6.449h2.708a3,3,0,0,1,.957.143,2.013,2.013,0,0,1,.72.411,1.806,1.806,0,0,1,.454.65,2.244,2.244,0,0,1,.159.865,2.218,2.218,0,0,1-.078.592,1.967,1.967,0,0,1-.228.523,1.779,1.779,0,0,1-.369.422,1.841,1.841,0,0,1-.5.295l1.359,2.548Zm7.3-5.3h-2.923v1.506h2.758v1.068h-2.758v1.568h2.923v1.153h-4.273v-6.449h4.273Zm7.355,5.3h-1.35v-2.7h-2.905v2.7h-1.35v-6.449h1.35v2.6h2.905v-2.6h1.35Zm6.038,0-.487-1.538h-2.266l-.5,1.538h-1.354l2.239-6.449h1.587l2.239,6.449Zm7.862-1.079a1.59,1.59,0,0,1-.444.581,2.071,2.071,0,0,1-.7.369,3.09,3.09,0,0,1-.927.13h-2.9v-6.449h2.82a2.92,2.92,0,0,1,.84.112,1.824,1.824,0,0,1,.628.32,1.387,1.387,0,0,1,.394.5,1.6,1.6,0,0,1,.136.673,1.359,1.359,0,0,1-.09.49,1.413,1.413,0,0,1-.246.418,1.427,1.427,0,0,1-.371.308,1.268,1.268,0,0,1-.461.161v.08a1.645,1.645,0,0,1,.592.15,1.576,1.576,0,0,1,.467.331,1.457,1.457,0,0,1,.306.474,1.539,1.539,0,0,1,.11.583,1.842,1.842,0,0,1-.154.767m3.054,1.079H463.8v-6.449h1.35Zm6.113,0h-4.219v-6.449h1.35v5.274h2.87Zm2.9,0h-1.35v-6.449h1.35Zm6.743-5.3h-1.935v5.3h-1.35v-5.3H475.69v-1.153h5.22Zm5.666,5.3-.487-1.538h-2.266l-.5,1.538h-1.354l2.239-6.449H485.8l2.239,6.449Zm7.74-5.3H492.38v5.3h-1.35v-5.3H489.1v-1.153h5.22Zm2.872,5.3h-1.35v-6.449h1.35Zm7.6-1.812a2.979,2.979,0,0,1-.617,1.066,2.7,2.7,0,0,1-.976.675,3.641,3.641,0,0,1-2.583,0,2.706,2.706,0,0,1-.977-.675,3,3,0,0,1-.619-1.066,4.318,4.318,0,0,1-.217-1.414,4.263,4.263,0,0,1,.219-1.41,3.029,3.029,0,0,1,.623-1.069,2.691,2.691,0,0,1,.979-.675,3.624,3.624,0,0,1,2.572,0,2.712,2.712,0,0,1,.974.675,3,3,0,0,1,.619,1.066,4.3,4.3,0,0,1,.217,1.41,4.36,4.36,0,0,1-.215,1.414m7.288,1.812h-1.117l-2.976-4.036H507.9v4.036h-1.292v-6.449h1.126l2.967,4.018h.081v-4.018h1.292Zm9.309-1.055a1.807,1.807,0,0,1-.521.659,2.428,2.428,0,0,1-.822.416,3.79,3.79,0,0,1-1.091.145,3.738,3.738,0,0,1-1.046-.136,2.431,2.431,0,0,1-.8-.391,1.837,1.837,0,0,1-.525-.617,1.881,1.881,0,0,1-.208-.813h1.305a.775.775,0,0,0,.129.355.951.951,0,0,0,.284.27,1.415,1.415,0,0,0,.414.172,2.093,2.093,0,0,0,.523.061,1.8,1.8,0,0,0,.482-.061,1.238,1.238,0,0,0,.378-.17.826.826,0,0,0,.248-.262.646.646,0,0,0,.09-.335.614.614,0,0,0-.063-.277.634.634,0,0,0-.2-.223,1.421,1.421,0,0,0-.346-.176,3.714,3.714,0,0,0-.507-.141l-.84-.178q-1.752-.367-1.751-1.841a1.905,1.905,0,0,1,.176-.827,1.845,1.845,0,0,1,.5-.637,2.274,2.274,0,0,1,.777-.409,3.367,3.367,0,0,1,1.015-.143,3.193,3.193,0,0,1,.979.143,2.444,2.444,0,0,1,.773.4,1.9,1.9,0,0,1,.513.615,1.793,1.793,0,0,1,.2.787h-1.27a.807.807,0,0,0-.121-.349.968.968,0,0,0-.252-.268,1.179,1.179,0,0,0-.363-.172,1.625,1.625,0,0,0-.453-.06,1.741,1.741,0,0,0-.46.056,1.1,1.1,0,0,0-.353.161.741.741,0,0,0-.228.255.689.689,0,0,0-.08.333.571.571,0,0,0,.247.482,2.189,2.189,0,0,0,.816.3l.777.166a4.08,4.08,0,0,1,.838.262,1.948,1.948,0,0,1,.576.382,1.39,1.39,0,0,1,.333.518,1.971,1.971,0,0,1,.107.671,2.05,2.05,0,0,1-.181.876m6.057-4.241h-2.923v1.506h2.758v1.068h-2.758v1.568h2.923v1.153h-4.273v-6.449h4.273Zm5.406,5.3-1.2-2.337h-1.1v2.337h-1.35v-6.449H531.9a2.992,2.992,0,0,1,.956.143,2.015,2.015,0,0,1,.72.411,1.812,1.812,0,0,1,.454.65,2.25,2.25,0,0,1,.159.865,2.218,2.218,0,0,1-.079.592,1.946,1.946,0,0,1-.228.523,1.779,1.779,0,0,1-.369.422,1.835,1.835,0,0,1-.5.295l1.359,2.548Zm6.381,0H537.6l-2.182-6.449h1.525l1.466,4.929h.08l1.439-4.929h1.452Zm4.929,0H542.8v-6.449h1.35Zm7.17-1.234a2.434,2.434,0,0,1-.594.744,2.708,2.708,0,0,1-.865.482,3.487,3.487,0,0,1-2.339-.063,2.6,2.6,0,0,1-.952-.673,3.014,3.014,0,0,1-.6-1.068,4.884,4.884,0,0,1,0-2.831,3.02,3.02,0,0,1,.6-1.066,2.608,2.608,0,0,1,.952-.673,3.242,3.242,0,0,1,1.262-.235,3.1,3.1,0,0,1,1.069.181,2.743,2.743,0,0,1,.867.5,2.542,2.542,0,0,1,.6.764,2.471,2.471,0,0,1,.264.97h-1.314a1.578,1.578,0,0,0-.179-.505,1.4,1.4,0,0,0-.324-.389,1.427,1.427,0,0,0-.445-.248,1.618,1.618,0,0,0-.536-.087,1.505,1.505,0,0,0-.683.152,1.453,1.453,0,0,0-.519.438,2.077,2.077,0,0,0-.328.693,3.74,3.74,0,0,0,0,1.835,2.04,2.04,0,0,0,.328.693,1.454,1.454,0,0,0,1.206.593,1.715,1.715,0,0,0,.541-.083,1.422,1.422,0,0,0,.443-.234,1.357,1.357,0,0,0,.322-.367,1.418,1.418,0,0,0,.179-.483h1.314a2.458,2.458,0,0,1-.266.956m6.11-4.063h-2.923v1.506h2.758v1.068h-2.758v1.568h2.923v1.153h-4.272v-6.449h4.272Zm6.478,4.241a1.8,1.8,0,0,1-.521.659,2.424,2.424,0,0,1-.822.416,3.8,3.8,0,0,1-1.091.145,3.738,3.738,0,0,1-1.046-.136,2.431,2.431,0,0,1-.8-.391,1.836,1.836,0,0,1-.525-.617,1.887,1.887,0,0,1-.208-.813H560.2a.78.78,0,0,0,.13.355.95.95,0,0,0,.284.27,1.413,1.413,0,0,0,.413.172,2.1,2.1,0,0,0,.523.061,1.8,1.8,0,0,0,.483-.061,1.241,1.241,0,0,0,.378-.17.836.836,0,0,0,.248-.262.651.651,0,0,0,.089-.335.613.613,0,0,0-.062-.277.636.636,0,0,0-.2-.223,1.407,1.407,0,0,0-.346-.176,3.734,3.734,0,0,0-.507-.141l-.84-.178q-1.752-.367-1.752-1.841a1.9,1.9,0,0,1,.177-.827,1.843,1.843,0,0,1,.5-.637,2.276,2.276,0,0,1,.778-.409,3.364,3.364,0,0,1,1.014-.143,3.186,3.186,0,0,1,.979.143,2.449,2.449,0,0,1,.774.4,1.91,1.91,0,0,1,.514.615,1.8,1.8,0,0,1,.2.787h-1.269a.819.819,0,0,0-.12-.349.961.961,0,0,0-.252-.268,1.167,1.167,0,0,0-.362-.172,1.622,1.622,0,0,0-.453-.06,1.743,1.743,0,0,0-.461.056,1.088,1.088,0,0,0-.353.161.739.739,0,0,0-.228.255.689.689,0,0,0-.08.333.571.571,0,0,0,.248.482,2.187,2.187,0,0,0,.815.3l.778.166a4.062,4.062,0,0,1,.838.262,1.95,1.95,0,0,1,.577.382,1.392,1.392,0,0,1,.333.518,1.965,1.965,0,0,1,.107.671,2.055,2.055,0,0,1-.18.876" transform="translate(-191.256 -70.501)" fill="#171717"/>
    <path id="Path_16" data-name="Path 16" d="M557.538,22.039a.921.921,0,0,1,.92-.669,1.182,1.182,0,0,1,.376.056q.167.055,1.031.432a8.683,8.683,0,0,0,3.457.711,6.437,6.437,0,0,0,3.414-.883,5.461,5.461,0,0,0,2.175-2.51,6,6,0,0,0,.516-2.447,5.306,5.306,0,0,0-1.141-3.377,8.848,8.848,0,0,0-3.271-2.372l-1.962-.948q-2.992-1.423-2.992-3.753a3.375,3.375,0,0,1,.216-1.172,3.241,3.241,0,0,1,.592-1.019,3.067,3.067,0,0,1,2.462-1.06,3.447,3.447,0,0,1,1.892.523,5.019,5.019,0,0,1,1.5,1.61,7.592,7.592,0,0,1,.647,1.3q.271.7.647,2.028h.32l-.1-5.533h-.32q-.167.71-.655.71a1.536,1.536,0,0,1-.446-.077q-.251-.076-.948-.355a10.4,10.4,0,0,0-1.492-.523,5.24,5.24,0,0,0-1.212-.132,4.981,4.981,0,0,0-3.5,1.366,5.371,5.371,0,0,0-1.3,1.84,5.534,5.534,0,0,0-.467,2.23,4.556,4.556,0,0,0,1.2,3.192,5.888,5.888,0,0,0,1.136.934,22.188,22.188,0,0,0,2.028,1.129A21.37,21.37,0,0,1,564.5,14.54a4.737,4.737,0,0,1,1.136,1.045,4.246,4.246,0,0,1,.62,1.268,4.857,4.857,0,0,1,.23,1.45,3.735,3.735,0,0,1-1.045,2.718,3.539,3.539,0,0,1-2.648,1.073,4.462,4.462,0,0,1-3.819-2.336A12.481,12.481,0,0,1,557.58,16.3l-.32-.014-.042,5.756Zm-2.816-16.53a7.612,7.612,0,0,0,.1-1.087,2.186,2.186,0,0,0-.274-1.157.812.812,0,0,0-.709-.446.748.748,0,0,0-.639.467,2.337,2.337,0,0,0-.26,1.15,6.71,6.71,0,0,0,.1,1.073l.688,4.335h.309Zm-20.668,3.1a9.917,9.917,0,0,1,1.7-3.39,5.771,5.771,0,0,1,2-1.674,6.622,6.622,0,0,1,5.143.007,5.623,5.623,0,0,1,1.986,1.667,10.2,10.2,0,0,1,1.708,3.4,14.571,14.571,0,0,1,.606,4.247,10.753,10.753,0,0,1-2.2,6.876,6.525,6.525,0,0,1-2.112,1.813,5.641,5.641,0,0,1-2.571.558,5.552,5.552,0,0,1-2.557-.565,6.546,6.546,0,0,1-2.1-1.806,10.631,10.631,0,0,1-2.2-6.82,15.007,15.007,0,0,1,.6-4.31M530.7,16.146a9.289,9.289,0,0,0,1.777,2.949,10.105,10.105,0,0,0,3.485,2.566,10.357,10.357,0,0,0,8.537-.028A10.513,10.513,0,0,0,548.061,19a9.791,9.791,0,0,0,1.867-3.027,9.479,9.479,0,0,0,.641-3.445,9.345,9.345,0,0,0-2.453-6.346A10.65,10.65,0,0,0,544.6,3.523a9.673,9.673,0,0,0-4.153-.941,9.884,9.884,0,0,0-3.345.593,11.322,11.322,0,0,0-3.095,1.695,10.19,10.19,0,0,0-2.927,3.494,9.559,9.559,0,0,0-1,4.344,9.71,9.71,0,0,0,.62,3.439M514.6,13.871l2.76-7.22,2.927,7.22Zm14.439,7.9a7.676,7.676,0,0,1-1.3-.23,2.47,2.47,0,0,1-.767-.383,3.506,3.506,0,0,1-.878-1.073,22.97,22.97,0,0,1-1.087-2.369L518.946,3.07h-.795l-5.1,13.143q-.7,1.8-1.122,2.7a7.894,7.894,0,0,1-.871,1.471,3.723,3.723,0,0,1-1.087,1.031,2.888,2.888,0,0,1-1.3.362v.321h6.244v-.321a2.812,2.812,0,0,1-1.394-.446,2,2,0,0,1-.62-.725,2.066,2.066,0,0,1-.23-.961,6.9,6.9,0,0,1,.627-2.411l.349-.864.725-1.924h6.133l1.338,3.289.237.585a4.374,4.374,0,0,1,.391,1.533,1.692,1.692,0,0,1-.864,1.506,4.2,4.2,0,0,1-1.728.418v.321h9.157ZM497.133,3.5h.571a10.731,10.731,0,0,1,2.3.188,3.409,3.409,0,0,1,1.394.662,4.277,4.277,0,0,1,1.178,1.6A5.1,5.1,0,0,1,503,8.017a4.582,4.582,0,0,1-1.463,3.457,3.255,3.255,0,0,1-1.4.808,10.913,10.913,0,0,1-2.474.2h-.53Zm.683,9.282a4.068,4.068,0,0,1,1.059.119,2.433,2.433,0,0,1,.809.4,7.245,7.245,0,0,1,1.631,2.077,35.67,35.67,0,0,1,1.77,3.526l.975,2.216q.1.209.446.975h4.627v-.321a2.553,2.553,0,0,1-.9-.223,2.213,2.213,0,0,1-.676-.6,11.5,11.5,0,0,1-1.066-1.707q-.634-1.178-1.875-3.728-.529-1.115-.794-1.554a3.272,3.272,0,0,0-.585-.732,4.233,4.233,0,0,0-1.24-.725,10.009,10.009,0,0,0,1.624-.474,4.767,4.767,0,0,0,1.108-.641,4.231,4.231,0,0,0,1.644-3.484,4.438,4.438,0,0,0-.759-2.571,4.611,4.611,0,0,0-2.14-1.666,10.772,10.772,0,0,0-3.387-.585q-.53-.014-2.216-.014h-6.718V3.39a4.616,4.616,0,0,1,1.3.223,2.215,2.215,0,0,1,.878.585,2.254,2.254,0,0,1,.6,1.129,10.578,10.578,0,0,1,.153,2.119V17.718a10.572,10.572,0,0,1-.153,2.119,2.254,2.254,0,0,1-.6,1.129,2.364,2.364,0,0,1-.871.578,4.374,4.374,0,0,1-1.3.23v.321h8.906v-.321a4.373,4.373,0,0,1-1.3-.23,2.33,2.33,0,0,1-1.463-1.714,10.143,10.143,0,0,1-.16-2.111V12.784ZM473.746,3.07V3.39a4.616,4.616,0,0,1,1.3.223,2.215,2.215,0,0,1,.878.585,2.254,2.254,0,0,1,.6,1.129,10.571,10.571,0,0,1,.153,2.119V17.718a10.565,10.565,0,0,1-.153,2.119,2.254,2.254,0,0,1-.6,1.129,2.365,2.365,0,0,1-.871.578,4.375,4.375,0,0,1-1.3.23v.321h8.906v-.321a4.143,4.143,0,0,1-1.519-.328,2.251,2.251,0,0,1-.934-.829,2.954,2.954,0,0,1-.363-1.073,11.687,11.687,0,0,1-.112-1.826V7.446a15.246,15.246,0,0,1,.084-1.7,2.617,2.617,0,0,1,.669-1.547,2.34,2.34,0,0,1,.885-.585,4.529,4.529,0,0,1,1.289-.223V3.07ZM456.505,7.446a10.141,10.141,0,0,1,.16-2.111,2.341,2.341,0,0,1,1.477-1.721,4.529,4.529,0,0,1,1.289-.223V3.07h-8.906V3.39a4.618,4.618,0,0,1,1.3.223,2.22,2.22,0,0,1,.878.585,2.254,2.254,0,0,1,.6,1.129,10.552,10.552,0,0,1,.153,2.119V17.718a10.545,10.545,0,0,1-.153,2.119,2.254,2.254,0,0,1-.6,1.129,2.368,2.368,0,0,1-.872.578,4.372,4.372,0,0,1-1.3.23v.321h8.906v-.321a4.375,4.375,0,0,1-1.3-.23,2.332,2.332,0,0,1-1.463-1.714,10.141,10.141,0,0,1-.16-2.111V12.575h9.9v5.143a10.142,10.142,0,0,1-.16,2.119,2.359,2.359,0,0,1-.592,1.129,2.5,2.5,0,0,1-.885.578,4.377,4.377,0,0,1-1.3.23v.321h8.906v-.321a4.334,4.334,0,0,1-1.289-.23,2.5,2.5,0,0,1-.885-.578,2.448,2.448,0,0,1-.592-1.143,10.008,10.008,0,0,1-.16-2.1V7.446a10.117,10.117,0,0,1,.16-2.111,2.341,2.341,0,0,1,1.477-1.721,4.533,4.533,0,0,1,1.289-.223V3.07H463.46V3.39a4.576,4.576,0,0,1,1.3.223,2.347,2.347,0,0,1,1.477,1.714,10.148,10.148,0,0,1,.16,2.119V11.92h-9.9ZM438.456,17.718a10.167,10.167,0,0,1-.16,2.119,2.346,2.346,0,0,1-1.477,1.714,4.557,4.557,0,0,1-1.3.223v.321h8.906v-.321a4.511,4.511,0,0,1-1.289-.223,2.341,2.341,0,0,1-1.477-1.721,10.15,10.15,0,0,1-.16-2.111V3.5a17.708,17.708,0,0,1,4.39.376,4.435,4.435,0,0,1,2.335,1.429A6.724,6.724,0,0,1,449.4,8.241l.321-.028-.251-5.143H430.609l-.251,5.143.321.028a7.718,7.718,0,0,1,.962-2.648A3.738,3.738,0,0,1,433.376,4.1a10.357,10.357,0,0,1,3.2-.543q1-.055,1.882-.056ZM416.1,13.871l2.76-7.22,2.927,7.22Zm14.439,7.9a7.679,7.679,0,0,1-1.3-.23,2.471,2.471,0,0,1-.766-.383,3.5,3.5,0,0,1-.878-1.073,22.956,22.956,0,0,1-1.088-2.369L420.449,3.07h-.795l-5.1,13.143q-.7,1.8-1.122,2.7a7.885,7.885,0,0,1-.871,1.471,3.727,3.727,0,0,1-1.087,1.031,2.889,2.889,0,0,1-1.3.362v.321h6.244v-.321a2.811,2.811,0,0,1-1.394-.446,2,2,0,0,1-.62-.725,2.069,2.069,0,0,1-.229-.961,6.9,6.9,0,0,1,.627-2.411l.349-.864.725-1.924h6.133l1.338,3.289.237.585a4.381,4.381,0,0,1,.391,1.533,1.693,1.693,0,0,1-.864,1.506,4.2,4.2,0,0,1-1.729.418v.321h9.157ZM398.636,3.5h.571a10.732,10.732,0,0,1,2.3.188,3.408,3.408,0,0,1,1.394.662,4.277,4.277,0,0,1,1.178,1.6,5.1,5.1,0,0,1,.425,2.07,4.581,4.581,0,0,1-1.463,3.457,3.255,3.255,0,0,1-1.4.808,10.913,10.913,0,0,1-2.474.2h-.53Zm.683,9.282a4.068,4.068,0,0,1,1.059.119,2.432,2.432,0,0,1,.809.4,7.245,7.245,0,0,1,1.631,2.077,35.683,35.683,0,0,1,1.77,3.526l.975,2.216q.1.209.446.975h4.627v-.321a2.553,2.553,0,0,1-.9-.223,2.213,2.213,0,0,1-.676-.6A11.5,11.5,0,0,1,408,19.244q-.634-1.178-1.875-3.728-.529-1.115-.794-1.554a3.271,3.271,0,0,0-.585-.732,4.233,4.233,0,0,0-1.24-.725,10.008,10.008,0,0,0,1.624-.474,4.765,4.765,0,0,0,1.108-.641,4.231,4.231,0,0,0,1.644-3.484,4.438,4.438,0,0,0-.759-2.571,4.611,4.611,0,0,0-2.14-1.666,10.772,10.772,0,0,0-3.387-.585q-.53-.014-2.216-.014h-6.718V3.39a4.616,4.616,0,0,1,1.3.223,2.215,2.215,0,0,1,.878.585,2.254,2.254,0,0,1,.6,1.129,10.579,10.579,0,0,1,.153,2.119V17.718a10.572,10.572,0,0,1-.153,2.119,2.253,2.253,0,0,1-.6,1.129,2.364,2.364,0,0,1-.871.578,4.374,4.374,0,0,1-1.3.23v.321h8.906v-.321a4.373,4.373,0,0,1-1.3-.23A2.33,2.33,0,0,1,398.8,19.83a10.141,10.141,0,0,1-.16-2.111V12.784Zm-21.492,1.087,2.76-7.22,2.927,7.22Zm14.439,7.9a7.678,7.678,0,0,1-1.3-.23,2.468,2.468,0,0,1-.766-.383,3.5,3.5,0,0,1-.878-1.073,22.957,22.957,0,0,1-1.087-2.369L382.176,3.07h-.795l-5.1,13.143q-.7,1.8-1.122,2.7a7.881,7.881,0,0,1-.871,1.471,3.727,3.727,0,0,1-1.087,1.031,2.89,2.89,0,0,1-1.3.362v.321h6.244v-.321a2.811,2.811,0,0,1-1.394-.446,2,2,0,0,1-.62-.725,2.07,2.07,0,0,1-.23-.961,6.9,6.9,0,0,1,.627-2.411l.349-.864.725-1.924h6.133l1.338,3.289.237.585a4.376,4.376,0,0,1,.391,1.533,1.693,1.693,0,0,1-.864,1.506,4.2,4.2,0,0,1-1.728.418v.321h9.157ZM355.625,7.446a10.141,10.141,0,0,1,.16-2.111,2.339,2.339,0,0,1,1.477-1.721,4.529,4.529,0,0,1,1.289-.223V3.07h-8.906V3.39a4.613,4.613,0,0,1,1.3.223,2.219,2.219,0,0,1,.878.585,2.256,2.256,0,0,1,.6,1.129,10.594,10.594,0,0,1,.153,2.119V17.718a10.588,10.588,0,0,1-.153,2.119,2.256,2.256,0,0,1-.6,1.129,2.37,2.37,0,0,1-.871.578,4.378,4.378,0,0,1-1.3.23v.321h8.906v-.321a4.377,4.377,0,0,1-1.3-.23,2.331,2.331,0,0,1-1.463-1.714,10.141,10.141,0,0,1-.16-2.111V12.575h9.9v5.143a10.117,10.117,0,0,1-.161,2.119,2.358,2.358,0,0,1-.592,1.129,2.5,2.5,0,0,1-.885.578,4.377,4.377,0,0,1-1.3.23v.321h8.906v-.321a4.339,4.339,0,0,1-1.289-.23,2.494,2.494,0,0,1-.884-.578,2.443,2.443,0,0,1-.592-1.143,9.962,9.962,0,0,1-.161-2.1V7.446a10.07,10.07,0,0,1,.161-2.111A2.342,2.342,0,0,1,370.2,3.613a4.537,4.537,0,0,1,1.289-.223V3.07H362.58V3.39a4.577,4.577,0,0,1,1.3.223,2.346,2.346,0,0,1,1.477,1.714,10.123,10.123,0,0,1,.161,2.119V11.92h-9.9Zm-16.711,4.767a6.137,6.137,0,0,1,3.93,1.031,3.774,3.774,0,0,1,1.087,1.6,6.156,6.156,0,0,1,.4,2.251,4.371,4.371,0,0,1-1.3,3.345,4.965,4.965,0,0,1-3.547,1.227,2.88,2.88,0,0,1-2.439-.934,2.849,2.849,0,0,1-.481-1.087,7.875,7.875,0,0,1-.146-1.686V12.213Zm-1.2-8.711a10.847,10.847,0,0,1,2.223.167,3.179,3.179,0,0,1,1.3.627,3.675,3.675,0,0,1,1.052,1.484,5.188,5.188,0,0,1,.4,2.014,4.311,4.311,0,0,1-.383,1.833,3.487,3.487,0,0,1-1.094,1.359,3.241,3.241,0,0,1-.829.418,7.129,7.129,0,0,1-1.192.265,12.609,12.609,0,0,1-1.645.112h-1.129V3.5Zm2.913,18.593a17.612,17.612,0,0,0,3.2-.223,5.116,5.116,0,0,0,1.958-.795,4.355,4.355,0,0,0,1.415-1.693,5.264,5.264,0,0,0,.508-2.321,5.541,5.541,0,0,0-.495-2.335,4.946,4.946,0,0,0-1.387-1.805,4.7,4.7,0,0,0-1.338-.738,12.6,12.6,0,0,0-2.077-.488,10.562,10.562,0,0,0,1.491-.634,3.719,3.719,0,0,0,.92-.718,4.138,4.138,0,0,0,1.129-3,4.177,4.177,0,0,0-.495-2.035,3.884,3.884,0,0,0-1.4-1.464,5.993,5.993,0,0,0-2.634-.753q-.432-.028-1.826-.028H330.44V3.39a4.61,4.61,0,0,1,1.3.223,2.216,2.216,0,0,1,.878.585,2.255,2.255,0,0,1,.6,1.129,10.6,10.6,0,0,1,.153,2.119V17.718a10.592,10.592,0,0,1-.153,2.119,2.254,2.254,0,0,1-.6,1.129,2.367,2.367,0,0,1-.871.578,4.378,4.378,0,0,1-1.3.23v.321Zm-22.683-2.641a1.64,1.64,0,0,0-.495,1.205,1.686,1.686,0,0,0,3.373,0,1.641,1.641,0,0,0-.495-1.205,1.682,1.682,0,0,0-2.383,0M303.833,3.5h.571a10.738,10.738,0,0,1,2.3.188,3.409,3.409,0,0,1,1.394.662,4.269,4.269,0,0,1,1.178,1.6,5.092,5.092,0,0,1,.425,2.07,4.579,4.579,0,0,1-1.464,3.457,3.252,3.252,0,0,1-1.4.808,10.911,10.911,0,0,1-2.474.2h-.53Zm.683,9.282a4.071,4.071,0,0,1,1.059.119,2.434,2.434,0,0,1,.808.4,7.244,7.244,0,0,1,1.631,2.077,35.6,35.6,0,0,1,1.77,3.526l.976,2.216q.1.209.446.975h4.627v-.321a2.549,2.549,0,0,1-.9-.223,2.21,2.21,0,0,1-.676-.6,11.491,11.491,0,0,1-1.066-1.707q-.634-1.178-1.875-3.728-.53-1.115-.794-1.554a3.272,3.272,0,0,0-.585-.732,4.229,4.229,0,0,0-1.24-.725,9.985,9.985,0,0,0,1.624-.474,4.753,4.753,0,0,0,1.108-.641,4.231,4.231,0,0,0,1.645-3.484,4.438,4.438,0,0,0-.76-2.571,4.609,4.609,0,0,0-2.14-1.666,10.772,10.772,0,0,0-3.387-.585q-.53-.014-2.216-.014h-6.718V3.39a4.616,4.616,0,0,1,1.3.223,2.217,2.217,0,0,1,.878.585,2.256,2.256,0,0,1,.6,1.129,10.6,10.6,0,0,1,.153,2.119V17.718a10.591,10.591,0,0,1-.153,2.119,2.256,2.256,0,0,1-.6,1.129,2.368,2.368,0,0,1-.871.578,4.379,4.379,0,0,1-1.3.23v.321h8.906v-.321a4.373,4.373,0,0,1-1.3-.23,2.332,2.332,0,0,1-1.463-1.714,10.141,10.141,0,0,1-.16-2.111V12.784ZM283.485,3.5a11.558,11.558,0,0,1,2.983.321,7.313,7.313,0,0,1,3.693,2.453A9.594,9.594,0,0,1,291.875,9.4a11.736,11.736,0,0,1,.6,3.763,11.217,11.217,0,0,1-.5,3.366,8.89,8.89,0,0,1-1.442,2.808,5.837,5.837,0,0,1-2.181,1.833,6.945,6.945,0,0,1-2.934.564,3.541,3.541,0,0,1-2.9-1.087,2.77,2.77,0,0,1-.571-1.213,10.542,10.542,0,0,1-.153-2.077V3.5Zm-7.666,18.593h10.3a19.275,19.275,0,0,0,3.526-.321,7.048,7.048,0,0,0,3.861-2.021,7.819,7.819,0,0,0,1.722-2.837,10.557,10.557,0,0,0,.62-3.63,11,11,0,0,0-1.087-4.871A9.353,9.353,0,0,0,291.722,4.8a9.738,9.738,0,0,0-4.99-1.672q-.7-.056-3.248-.056h-7.666V3.39a3.348,3.348,0,0,1,2.007.641,2.246,2.246,0,0,1,.732,1.171,9.608,9.608,0,0,1,.188,2.244V17.718a10.143,10.143,0,0,1-.16,2.111,2.35,2.35,0,0,1-1.47,1.721,4.469,4.469,0,0,1-1.3.223Z" transform="translate(-191.537 -1.793)" fill="#e30230"/>
    <path id="Path_17" data-name="Path 17" d="M152.321,95.454l.055.006a2.142,2.142,0,1,0-1.231-3.891,6.178,6.178,0,0,1,.591,1.089,7.072,7.072,0,0,1,.585,2.8" transform="translate(-104.96 -63.315)" fill="#e30230"/>
    <path id="Path_18" data-name="Path 18" d="M84.07,83.822a7.02,7.02,0,0,1-3.774-2.28q-2.518-2.905-4.981-5.857c-.891-1.066-1.734-2.173-2.55-3.2a42.153,42.153,0,0,0,2.9-3.225A7.393,7.393,0,0,0,77.231,64.9a2.136,2.136,0,0,1-1.176-3.885,5.843,5.843,0,0,0-4.648-2.478c-3.839-.249-7.7-.179-11.551-.219-.22,0-.443.216-.664.332.2.146.372.373.59.424a1.739,1.739,0,0,1,1.539,1.467,18.861,18.861,0,0,1,.018,2.266,10.446,10.446,0,0,0-5.323-4.287c.658-.679,1.27-1.234,1.79-1.864a5.841,5.841,0,0,0,1.452-5.017c-.63-3.1-2.828-4.067-5.256-4.283-3.434-.3-6.912-.123-10.371-.123-.206,0-.412.237-.618.364.185.129.363.357.556.37,1.755.12,2.009,1.055,2.006,2.557-.01,6.155,0,12.311-.013,18.466a14.423,14.423,0,0,1-.207,2.37c-.115.673-.347,1.3-1.255,1.315-.243.005-.479.361-.717.556a2.732,2.732,0,0,0,.842.311c2.845.036,5.69.022,8.534.059,3.529.046,6.521-.994,8.581-4.222a3.921,3.921,0,0,1,.063.447c-.008,3.736-.008,7.472-.039,11.207a11.407,11.407,0,0,1-.24,1.625,1.354,1.354,0,0,1-1.214,1.186,2.259,2.259,0,0,0-.665.426c.229.105.459.3.689.3q3.72.033,7.442,0c.2,0,.4-.192.595-.294-.156-.149-.286-.366-.471-.435-1.421-.529-1.681-.826-1.7-2.288q-.1-6.565-.165-13.129c-.021-2.419-.016-4.839.035-7.257.007-.343.269-.9.529-.984a5.268,5.268,0,0,1,6.2,2.993,8.393,8.393,0,0,1,.274,5.655c-.67,2.454-1.949,3.283-4.5,3.244-.471-.007-.942,0-1.478,0,.061,1.183.941,1.449,1.623,1.615a3.266,3.266,0,0,1,1.962,1.461c1.585,2.2,3.176,4.4,4.826,6.557a6.28,6.28,0,0,0,4.687,2.862c1.405.07,2.817.029,4.225.005A2.174,2.174,0,0,0,84.7,84.3c-.21-.165-.4-.423-.633-.479M53.627,71.889a12.461,12.461,0,0,1-2.327-.328,1.605,1.605,0,0,1-1.321-1.81c.011-3.337,0-6.674,0-10.01h-.032c0-3.335.018-6.67-.014-10-.008-.771.269-.976,1.014-1.007,2.588-.109,4.233,1.862,4.516,4.435a7.92,7.92,0,0,1-.253,2.885,2.932,2.932,0,0,1-3.132,2.273c-.532.02-1.5.236-1.508.411-.052.807.794.807,1.319.931,3.951.932,5.925,4.473,5.814,8.239a3.879,3.879,0,0,1-4.082,3.987" transform="translate(-29.87 -32.762)" fill="#171717"/>
    <path id="Path_19" data-name="Path 19" d="M5.436,23.012c-1.148-1.748-2.38-3.446-3.42-5.256A14.682,14.682,0,0,1,.03,11.451,8.828,8.828,0,0,1,3.986,3.122,17.544,17.544,0,0,1,12.992.191,54.061,54.061,0,0,1,18.667.017,53.848,53.848,0,0,1,30.123,1.76a81.551,81.551,0,0,1,27.15,12.393A47.4,47.4,0,0,1,70.205,26.821c1.911,2.915,3.371,6,3.217,9.627a8.935,8.935,0,0,1-4.947,7.7,19.593,19.593,0,0,1-8.355,2.348c-.908.071-1.814.164-2.721.247q-.022-.129-.045-.258c.91-.187,1.828-.341,2.728-.567A12.9,12.9,0,0,0,66.9,42.24a8.267,8.267,0,0,0,2-7.126c-.672-4.225-2.963-7.628-5.741-10.7C56.183,16.7,47.437,11.667,37.85,7.97A58.317,58.317,0,0,0,26.1,4.71c-5.365-.858-10.749-1.237-16.052.435a11.158,11.158,0,0,0-5.561,3.5c-2.156,2.675-2.328,5.705-1.278,8.811.626,1.852,1.563,3.6,2.361,5.393l-.135.161" transform="translate(0 0)" fill="#171717"/>
    <path id="Path_20" data-name="Path 20" d="M63.027,60.3c1.579-.6,3.221-1.079,4.739-1.818a8.208,8.208,0,0,0,4.8-5.891,9.488,9.488,0,0,0-.655-5.557,26.155,26.155,0,0,0-8.286-10.311A59.516,59.516,0,0,0,35.973,24.5a35.274,35.274,0,0,0-13.221.008,13,13,0,0,0-7.464,3.947c-.032.036-.11.032-.46.122a20.917,20.917,0,0,1,1.157-3.013,9.385,9.385,0,0,1,5.9-4.18,26.521,26.521,0,0,1,10.355-.707,67.7,67.7,0,0,1,23.517,7.146,52.9,52.9,0,0,1,15,10.857,23.309,23.309,0,0,1,5,7.591c1.964,5.155.189,9.652-4.783,12.075a23.423,23.423,0,0,1-7.574,1.973,2.126,2.126,0,0,1-.381-.016" transform="translate(-10.297 -14.218)" fill="#171717"/>
  </g>
</svg>
