<?xml version="1.0" encoding="utf-8"?>
<!-- Generator: Adobe Illustrator 26.0.2, SVG Export Plug-In . SVG Version: 6.00 Build 0)  -->
<svg version="1.1" id="Group_2067" xmlns="http://www.w3.org/2000/svg" xmlns:xlink="http://www.w3.org/1999/xlink" x="0px" y="0px"
	 viewBox="0 0 147.3 107.8" style="enable-background:new 0 0 147.3 107.8;" xml:space="preserve">
<style type="text/css">
	.st0{fill:#FF0038;}
</style>
<g>
	<g>
		<g>
			<path d="M30.3,95.9c-0.2-0.3-0.6-0.6-1-0.8c-0.4-0.2-0.9-0.3-1.6-0.3h-2.4v7.5h0.1h2.3c0.6,0,1.1-0.1,1.6-0.3
				c0.4-0.2,0.8-0.4,1-0.8c0.2-0.3,0.4-0.7,0.5-1.1s0.2-0.9,0.2-1.5c0-0.5-0.1-1-0.2-1.5C30.7,96.7,30.5,96.2,30.3,95.9z M26.4,95.8
				h1.4c1.6,0,2.3,0.9,2.3,2.8s-0.7,2.8-2.3,2.8h-1.4V95.8z"/>
			<path d="M35.2,96.5c-0.5,0-0.8,0.1-1.1,0.3c-0.2,0.1-0.3,0.3-0.4,0.5v-0.7h-1v5.8h1v-0.1v-3.5c0-0.2,0.1-0.4,0.2-0.6
				c0.1-0.2,0.3-0.3,0.5-0.4c0.2-0.1,0.5-0.2,0.8-0.2c0.2,0,0.3,0,0.4,0h0.1v-0.9h-0.1C35.4,96.5,35.2,96.5,35.2,96.5z"/>
			<path d="M37.4,100.9c-0.2,0-0.4,0.1-0.5,0.2c-0.1,0.1-0.2,0.3-0.2,0.6c0,0.2,0.1,0.4,0.2,0.6l0,0l0,0l0,0l0,0
				c0.1,0.1,0.3,0.2,0.5,0.2s0.4-0.1,0.6-0.2c0.1-0.1,0.2-0.3,0.2-0.6c0-0.2-0.1-0.4-0.2-0.6C37.9,100.9,37.7,100.9,37.4,100.9z"/>
			<path d="M101,98.5c0.3-0.3,0.4-0.8,0.4-1.4c0-0.3,0-0.6-0.1-0.8c-0.1-0.3-0.2-0.5-0.4-0.7c-0.2-0.2-0.4-0.4-0.7-0.5
				c-0.3-0.1-0.7-0.2-1-0.2h-2.7V95v7.5h1v-2.9H99l1.4,2.9h1.1l-1.5-3.2C100.5,99.1,100.8,98.8,101,98.5z M97.4,95.8h1.6
				c0.5,0,0.8,0.1,1,0.3c0.2,0.2,0.4,0.5,0.4,1c0,0.4-0.1,0.7-0.4,0.9c-0.2,0.2-0.6,0.3-1.1,0.3h-1.6v-2.6H97.4z"/>
			<path d="M124.1,99c-0.3-0.3-0.8-0.5-1.5-0.7l-1.3-0.3c-0.7-0.2-0.9-0.5-0.9-1c0-0.4,0.1-0.6,0.4-0.8c0.3-0.2,0.6-0.3,1.1-0.3
				s0.8,0.1,1.1,0.3c0.3,0.2,0.4,0.5,0.4,0.9v0.1h1V97c0-0.3-0.1-0.7-0.2-0.9c-0.1-0.3-0.3-0.5-0.6-0.7c-0.2-0.2-0.5-0.3-0.8-0.4
				c-0.3-0.1-0.6-0.1-0.9-0.1c-0.4,0-0.8,0.1-1.3,0.2c-0.4,0.2-0.7,0.4-0.9,0.7c-0.2,0.3-0.4,0.7-0.4,1.3s0.2,0.9,0.5,1.4
				c0.3,0.3,0.7,0.5,1.3,0.7l1.4,0.3c0.4,0.1,0.7,0.2,0.9,0.4c0.2,0.2,0.3,0.4,0.3,0.7c0,0.4-0.1,0.7-0.4,0.9
				c-0.3,0.2-0.7,0.3-1.3,0.3s-0.9-0.1-1.3-0.3c-0.3-0.2-0.5-0.5-0.5-0.9v-0.1h-1v0.1c0,0.3,0.1,0.5,0.2,0.7
				c0.1,0.2,0.2,0.5,0.4,0.7c0.2,0.2,0.5,0.4,0.8,0.5c0.3,0.1,0.7,0.2,1.3,0.2c0.8,0,1.5-0.2,2-0.6s0.8-0.9,0.8-1.7
				C124.6,99.8,124.5,99.3,124.1,99z"/>
			<path d="M47.4,99c-0.1-0.2-0.3-0.3-0.5-0.4c-0.2-0.1-0.3-0.1-0.5-0.2c0.3-0.1,0.5-0.3,0.7-0.5c0.2-0.3,0.3-0.6,0.3-1.1
				c0-0.6-0.2-1-0.6-1.4c-0.4-0.3-0.9-0.5-1.6-0.5h-2.8v7.5h2.7c0.8,0,1.5-0.2,1.9-0.5c0.5-0.4,0.7-0.9,0.7-1.6c0-0.2,0-0.5-0.1-0.7
				C47.7,99.4,47.6,99.2,47.4,99z M44.6,98h-1v-2.3h1.7c0.3,0,0.6,0.1,0.8,0.3c0.2,0.2,0.3,0.4,0.3,0.8c0,0.4-0.1,0.7-0.4,0.8
				C45.8,98,45.2,98,44.6,98z M46.8,100.8c-0.1,0.1-0.2,0.2-0.3,0.3c-0.1,0.1-0.2,0.1-0.4,0.2s-0.4,0.1-0.5,0.1c-0.2,0-0.4,0-0.7,0
				h-1.3V99h1.8c0.5,0,0.8,0.1,1.1,0.3c0.3,0.2,0.4,0.5,0.4,0.9C46.9,100.5,46.8,100.6,46.8,100.8z"/>
			<polygon points="54.1,94.9 54.1,98 50.4,98 50.4,94.9 49.4,94.9 49.4,102.4 50.4,102.4 50.4,99 54.1,99 54.1,102.4 55.1,102.4 
				55.1,94.9 55,94.9 			"/>
			<polygon points="117.1,97.7 117.1,97.7 117.9,97.7 118,94.9 116.9,94.9 			"/>
			<path d="M112.6,94.7c-0.9,0-1.7,0.3-2.2,0.9s-0.8,1.5-0.8,2.5v1.1c0,1,0.3,1.9,0.8,2.5s1.3,0.8,2.2,0.8s1.7-0.3,2.2-0.8
				c0.5-0.6,0.8-1.5,0.8-2.5v-1.1c0-1-0.3-1.9-0.8-2.5C114.2,95,113.4,94.7,112.6,94.7z M111.1,96.2c0.4-0.4,0.8-0.6,1.5-0.6
				s1,0.2,1.5,0.6c0.4,0.4,0.5,1,0.5,1.9v1.1c0,0.4,0,0.7-0.1,1c-0.1,0.3-0.2,0.5-0.4,0.7c-0.2,0.2-0.4,0.3-0.6,0.4
				c-0.2,0.1-0.5,0.1-0.8,0.1s-0.5,0-0.8-0.1c-0.2-0.1-0.4-0.2-0.6-0.4c-0.2-0.2-0.3-0.4-0.4-0.7c-0.1-0.3-0.1-0.6-0.1-1v-1.1
				C110.6,97.3,110.7,96.7,111.1,96.2L111.1,96.2L111.1,96.2z"/>
			<polygon points="87.9,94.9 87.9,98 84.2,98 84.2,94.9 83.2,94.9 83.2,102.4 84.2,102.4 84.2,99 87.9,99 87.9,102.4 88.9,102.4 
				88.9,94.9 88.8,94.9 			"/>
			<path d="M59,94.9l-2.7,7.5h1l0.7-2.3h2.7l0.7,2.3h1.1l-2.7-7.5H59z M60.5,99.3h-2.1l1-3L60.5,99.3z"/>
			<polygon points="90.8,94.9 90.8,102.4 91.8,102.4 91.8,94.9 91.8,94.9 			"/>
			<polygon points="76.5,95.8 78.8,95.8 78.8,102.4 79.9,102.4 79.9,95.8 82,95.8 82,94.9 76.5,94.9 			"/>
			<path d="M105.1,94.9l-2.7,7.5h1l0.7-2.3h2.7l0.7,2.3h1.1l-2.7-7.5H105.1z M106.6,99.3h-2.1l1-3L106.6,99.3z"/>
			<path d="M72.6,94.9l-2.7,7.5h1l0.7-2.3h2.7l0.7,2.3h1.1l-2.7-7.5H72.6z M74,99.3h-2.1l1-3L74,99.3z"/>
			<path d="M68.5,98.5c0.3-0.3,0.4-0.8,0.4-1.4c0-0.3,0-0.6-0.1-0.8c-0.1-0.3-0.2-0.5-0.4-0.7c-0.2-0.2-0.4-0.4-0.7-0.5
				s-0.7-0.2-1-0.2h-2.7V95v7.5h1v-2.9h1.8l1.4,2.9h1.1l-1.6-3.2C68,99.1,68.3,98.8,68.5,98.5z M64.8,95.8h1.6c0.5,0,0.8,0.1,1,0.3
				s0.4,0.5,0.4,1c0,0.4-0.1,0.7-0.4,0.9c-0.2,0.2-0.6,0.3-1.1,0.3h-1.6v-2.6H64.8z"/>
		</g>
	</g>
	<path d="M6.5,101.2L6.5,101.2l2.1-1.7l0.5,1.6L6.5,101.2z M10.7,98l-0.5-1.4L5,100.8l0.5,1.5h6.7l-0.4-1.3h-1.6L9.5,99L10.7,98z"/>
	<path d="M4.7,95.7l-0.2-0.9c-0.1-0.3-0.1-0.5,0-0.7c0-0.2,0.1-0.4,0.2-0.6s0.3-0.3,0.5-0.5c0.2-0.1,0.5-0.2,0.8-0.3
		c0.6-0.2,1.1-0.1,1.6,0.1c0.4,0.2,0.7,0.6,0.8,1.1l0.2,0.9L4.7,95.7z M3.8,97.3l6.2-1.5l-0.6-2.4C9.2,93,9,92.6,8.8,92.3
		C8.6,92,8.3,91.7,8,91.5c-0.3-0.2-0.7-0.3-1.1-0.3c-0.4,0-0.8,0-1.4,0.1s-0.9,0.3-1.3,0.5c-0.3,0.2-0.6,0.5-0.8,0.8
		c-0.2,0.3-0.3,0.6-0.4,1c0,0.4,0,0.8,0.1,1.3L3.8,97.3z"/>
	<polygon points="8.1,86.1 1.5,84.9 1.7,86.3 6.6,87.1 6.7,87.1 2.1,89.3 2.3,90.7 8.3,87.7 	"/>
	<path d="M2.6,80.8L2.6,80.8L5,79.9l0.1,1.7L2.6,80.8z M7.6,79l-0.1-1.5l-6.3,2.5l0.1,1.6l6.5,1.9l-0.1-1.4l-1.6-0.4L6,79.6L7.6,79z
		"/>
	<polygon points="7.6,75.4 3.6,75.2 3.6,75.1 7.8,72.4 7.8,71.3 1.4,70.9 1.4,72.1 5.4,72.4 5.4,72.5 1.2,75.2 1.2,76.3 7.5,76.6 	
		"/>
	<path d="M8.5,66.2c-0.1-0.3-0.2-0.6-0.3-0.9C8,65,7.8,64.7,7.6,64.5c-0.3-0.1-0.5-0.3-0.9-0.3l-0.2,1.3c0.2,0.1,0.3,0.1,0.4,0.2
		c0.1,0.1,0.2,0.2,0.3,0.4c0.1,0.1,0.1,0.3,0.2,0.4c0,0.2,0,0.3,0,0.5s-0.1,0.4-0.2,0.6c-0.1,0.2-0.3,0.3-0.5,0.4s-0.4,0.2-0.7,0.2
		c-0.3,0-0.6,0-0.9,0c-0.3,0-0.6-0.1-0.8-0.2c-0.2-0.1-0.4-0.2-0.6-0.4c-0.2-0.2-0.3-0.3-0.3-0.5c-0.1-0.3-0.1-0.5-0.1-0.7
		c0-0.2,0.1-0.3,0.2-0.5c0.1-0.1,0.2-0.3,0.3-0.4c0.1-0.1,0.3-0.2,0.4-0.2c0.2-0.1,0.3-0.1,0.5-0.1l0.2-1.3c-0.3,0-0.6,0-0.9,0.1
		c-0.3,0.1-0.6,0.2-0.8,0.4c-0.2,0.2-0.4,0.4-0.6,0.7c-0.2,0.3-0.3,0.6-0.3,1c-0.1,0.4-0.1,0.8,0,1.3c0.1,0.4,0.3,0.7,0.5,1
		c0.2,0.3,0.5,0.5,0.9,0.7c0.3,0.2,0.7,0.4,1.3,0.4c0.5,0.1,0.9,0.1,1.4,0c0.4-0.1,0.8-0.2,1.1-0.4c0.3-0.2,0.6-0.5,0.8-0.8
		c0.2-0.3,0.3-0.7,0.4-1.1C8.6,66.9,8.6,66.5,8.5,66.2z"/>
	<polygon points="9,59.1 8.3,61.9 6.7,61.5 7.5,58.9 6.4,58.6 5.8,61.3 4.3,60.9 5.1,58.1 3.9,57.9 2.9,61.9 9,63.5 10.1,59.4 	"/>
	<path d="M6,55.1l0.3-0.9c0.1-0.3,0.2-0.5,0.4-0.7c0.2-0.2,0.3-0.3,0.5-0.4S7.7,53,8,53c0.3,0,0.5,0.1,0.8,0.2
		c0.6,0.2,1,0.5,1.3,0.9c0.2,0.4,0.2,0.9,0,1.5l-0.3,0.9L6,55.1z M4.4,56.1l5.9,2.1l0.8-2.4c0.2-0.4,0.2-0.8,0.2-1.3
		c0-0.4-0.1-0.7-0.3-1c-0.2-0.3-0.4-0.6-0.7-0.8S9.7,52.1,9.1,52c-0.4-0.2-0.9-0.2-1.4-0.2c-0.4,0-0.8,0.1-1.1,0.2
		c-0.3,0.1-0.6,0.4-0.8,0.7s-0.4,0.6-0.6,1.1L4.4,56.1z"/>
	<path d="M15.3,46.6c0-0.3,0-0.6,0-0.9c-0.1-0.3-0.2-0.6-0.4-0.8c-0.2-0.2-0.4-0.5-0.7-0.6l-0.6,1c0.1,0.1,0.2,0.2,0.3,0.4
		c0.1,0.1,0.1,0.3,0.2,0.4c0,0.2,0,0.3,0,0.5s-0.1,0.3-0.2,0.5c-0.1,0.2-0.3,0.4-0.4,0.5c-0.2,0.1-0.4,0.2-0.6,0.2
		c-0.2,0-0.5,0-0.7,0c-0.3-0.1-0.5-0.2-0.8-0.3c-0.3-0.1-0.5-0.3-0.7-0.5c-0.2-0.2-0.3-0.4-0.4-0.6C10,46.2,10,46,10,45.8
		c0-0.2,0.1-0.4,0.2-0.6s0.2-0.3,0.3-0.4c0.1-0.1,0.3-0.2,0.4-0.3c0.1-0.1,0.3-0.1,0.5-0.1c0.2,0,0.3,0,0.5,0.1l0.6-1.1
		c-0.3-0.1-0.6-0.2-0.9-0.2c-0.3,0-0.6,0.1-0.9,0.2c-0.3,0.1-0.6,0.3-0.8,0.5c-0.2,0.2-0.4,0.5-0.6,0.8C9,45,8.9,45.4,8.9,45.9
		c0,0.4,0,0.7,0.2,1.1c0.1,0.3,0.3,0.7,0.6,1c0.3,0.3,0.7,0.6,1.1,0.8c0.4,0.2,0.9,0.4,1.4,0.4c0.4,0.1,0.8,0,1.3,0
		c0.4-0.1,0.7-0.3,1-0.5c0.3-0.2,0.5-0.6,0.7-1C15.1,47.2,15.3,46.9,15.3,46.6z"/>
	<path d="M14.1,38.5c0.2-0.1,0.4-0.2,0.6-0.2c0.2,0,0.5,0,0.7,0.1c0.3,0.1,0.5,0.2,0.8,0.4c0.3,0.2,0.5,0.4,0.7,0.6
		c0.2,0.2,0.3,0.4,0.4,0.6c0.1,0.2,0.1,0.4,0.1,0.7c0,0.2-0.1,0.4-0.2,0.6c-0.1,0.2-0.3,0.4-0.5,0.5c-0.2,0.1-0.4,0.2-0.6,0.2
		s-0.5,0-0.7-0.1c-0.3-0.1-0.5-0.2-0.8-0.4c-0.3-0.2-0.5-0.4-0.7-0.6c-0.2-0.2-0.3-0.4-0.4-0.6c-0.1-0.2-0.1-0.4-0.1-0.7
		c0-0.2,0.1-0.4,0.2-0.6C13.7,38.7,13.9,38.6,14.1,38.5z M12.2,39.5c-0.1,0.4-0.1,0.8,0,1.1c0.1,0.4,0.3,0.7,0.5,1
		c0.3,0.3,0.6,0.6,1,0.9c0.4,0.3,0.8,0.5,1.3,0.6c0.4,0.1,0.8,0.1,1.3,0.1c0.4-0.1,0.7-0.2,1-0.4s0.6-0.5,0.8-0.9
		c0.2-0.4,0.4-0.8,0.5-1.1c0.1-0.4,0.1-0.8,0-1.1c-0.1-0.4-0.3-0.7-0.5-1c-0.3-0.3-0.6-0.6-1-0.9s-0.8-0.4-1.3-0.5
		c-0.4-0.1-0.8-0.1-1.3-0.1c-0.4,0.1-0.7,0.2-1,0.4c-0.3,0.2-0.6,0.5-0.8,0.9C12.4,38.7,12.3,39.1,12.2,39.5z"/>
	<polygon points="21.1,37.4 17.9,34.7 17.9,34.7 22,35.9 22.5,35.2 20.5,31.5 20.6,31.5 23.8,34.1 24.7,33.1 19.8,29.2 18.7,30.3 
		20.9,34.4 20.8,34.5 16.4,33.1 15.5,34.4 20.4,38.4 	"/>
	<path d="M22.9,27.5l0.7-0.7c0.3-0.3,0.5-0.4,0.8-0.4c0.3,0,0.5,0.1,0.8,0.4c0.2,0.2,0.4,0.5,0.3,0.8c0,0.3-0.2,0.5-0.4,0.8
		l-0.7,0.6L22.9,27.5z M21.1,27.7l4.5,4.5l0.9-0.9l-1.4-1.4L26,29c0.2-0.2,0.4-0.5,0.5-0.7c0.1-0.3,0.2-0.5,0.2-0.8
		c0-0.3,0-0.5-0.1-0.8c-0.1-0.3-0.3-0.5-0.5-0.7c-0.2-0.2-0.5-0.4-0.7-0.5c-0.3-0.1-0.5-0.2-0.8-0.2c-0.3,0-0.5,0.1-0.8,0.2
		s-0.5,0.3-0.7,0.5L21.1,27.7z"/>
	<path d="M29.5,25.4l0.8-0.7l2.4,1l1.1-0.9l-2.6-1c0.1-0.2,0.2-0.3,0.2-0.5c0-0.2,0-0.4,0-0.5c0-0.2-0.1-0.3-0.1-0.5
		c-0.1-0.2-0.2-0.3-0.3-0.5c-0.2-0.2-0.4-0.4-0.6-0.5c-0.2-0.1-0.5-0.2-0.7-0.2c-0.3,0-0.5,0-0.8,0.1s-0.5,0.3-0.8,0.5l-2.1,1.7
		l4.1,4.9l1-0.8L29.5,25.4z M27.6,23.1l0.9-0.7c0.1-0.1,0.2-0.2,0.4-0.2c0.1,0,0.2-0.1,0.4-0.1c0.1,0,0.2,0,0.3,0.1
		c0.1,0.1,0.2,0.1,0.3,0.3c0.2,0.2,0.3,0.5,0.2,0.7c0,0.2-0.2,0.5-0.4,0.7l-0.9,0.7L27.6,23.1z"/>
	<polygon points="37.5,20.9 35.1,22.6 34.3,21.3 36.5,19.8 35.8,18.9 33.7,20.4 32.8,19.2 35.2,17.6 34.6,16.7 31,19.1 34.7,24.3 
		38.1,21.9 	"/>
	<polygon points="44,18.5 41,13 39.7,13.6 41,15.8 38.4,17.3 37.2,15 36.1,15.6 39.2,21.3 40.3,20.5 39.1,18.2 41.6,16.9 42.8,19.2 
			"/>
	<polygon points="48.7,15.2 46,16.4 45.4,15 47.8,13.8 47.4,12.9 44.9,14 44.4,12.6 47,11.4 46.6,10.4 42.7,12.2 45.2,17.9 
		49.1,16.2 	"/>
	<polygon points="51.5,15.4 50.2,11.7 50.2,11.6 54.3,14.5 55.3,14.1 53.4,8.1 52.1,8.4 53.4,12.2 53.4,12.3 49.3,9.4 48.3,9.8 
		50.2,15.7 	"/>
	<path d="M56.1,12.1c0.1,0.3,0.2,0.5,0.4,0.7s0.4,0.3,0.6,0.5c0.2,0.1,0.5,0.2,0.8,0.2c0.3,0,0.6,0,1-0.1c0.4-0.1,0.7-0.2,1-0.4
		s0.5-0.3,0.7-0.6c0.2-0.2,0.3-0.5,0.3-0.7c0.1-0.3,0.1-0.5,0-0.8c-0.1-0.2-0.1-0.4-0.2-0.6c-0.1-0.2-0.2-0.3-0.4-0.4
		c-0.2-0.1-0.4-0.2-0.6-0.2S59.3,9.5,59,9.5h-0.7c-0.4,0-0.6,0-0.8-0.1c-0.2-0.1-0.3-0.2-0.3-0.4c0-0.1,0-0.2,0-0.3s0.1-0.2,0.2-0.3
		c0.1-0.1,0.2-0.2,0.3-0.2C57.7,8,58,8,58.1,8c0.2,0,0.3,0,0.4,0s0.3,0,0.4,0.1c0.1,0,0.2,0.1,0.3,0.2c0.1,0.1,0.1,0.2,0.2,0.3
		l1.3-0.3c-0.1-0.3-0.2-0.5-0.4-0.7s-0.4-0.3-0.6-0.5c-0.2-0.1-0.5-0.2-0.8-0.2c-0.3,0-0.6,0-0.9,0.1c-0.3,0.1-0.6,0.2-0.9,0.3
		c-0.3,0.2-0.5,0.3-0.6,0.5C56.1,8,56,8.2,56,8.5c-0.1,0.3-0.1,0.5,0,0.8c0.2,0.9,0.9,1.4,2.1,1.4h0.8c0.2,0,0.4,0,0.5,0
		s0.3,0,0.4,0.1c0.1,0,0.2,0.1,0.2,0.2c0.1,0.1,0.1,0.1,0.1,0.2s0,0.2,0,0.3c0,0.1-0.1,0.2-0.2,0.3c-0.1,0.1-0.2,0.2-0.3,0.2
		c-0.1,0.1-0.3,0.1-0.4,0.2c-0.2,0-0.3,0.1-0.5,0.1s-0.3,0-0.4-0.1c-0.1,0-0.2-0.1-0.3-0.2c-0.1-0.1-0.2-0.2-0.2-0.3L56.1,12.1z"/>
	<rect x="62" y="6.1" transform="matrix(0.9875 -0.1578 0.1578 0.9875 -0.6837 10.012)" width="1.4" height="6.4"/>
	<polygon points="68.6,11.8 70.1,5.2 68.7,5.4 67.7,10.3 67.7,10.3 65.8,5.6 64.2,5.7 66.9,11.9 	"/>
	<polygon points="75.8,10.4 73,10.4 73,8.8 75.7,8.8 75.7,7.8 73,7.8 73,6.3 75.8,6.3 75.8,5.2 71.6,5.2 71.6,11.6 75.8,11.6 	"/>
	<path class="st0" d="M80.9,9.7l1,0.1l0.9,2.4l1.5,0.2l-1-2.6c0.2,0,0.3-0.1,0.5-0.2c0.2-0.1,0.3-0.2,0.4-0.4
		c0.1-0.1,0.2-0.3,0.3-0.5c0.1-0.2,0.1-0.4,0.1-0.5c0-0.3,0-0.6,0-0.8c-0.1-0.3-0.2-0.5-0.3-0.7c-0.2-0.2-0.4-0.3-0.6-0.5
		c-0.3-0.1-0.5-0.2-0.9-0.2l-2.6-0.3l-0.7,6.3l1.4,0.2L80.9,9.7z M81.3,6.7l1.1,0.1c0.2,0,0.3,0.1,0.4,0.1c0.1,0.2,0.2,0.2,0.3,0.3
		c0.1,0.1,0.1,0.2,0.2,0.3c0,0.1,0,0.3,0,0.4c0,0.3-0.2,0.5-0.3,0.6c-0.2,0.1-0.5,0.2-0.8,0.2l-1.1-0.1L81.3,6.7z"/>
	<polygon class="st0" points="89.8,12.4 86.9,11.8 87.3,10.2 89.9,10.8 90.1,9.8 87.5,9.3 87.8,7.8 90.6,8.3 90.8,7.3 86.7,6.3 
		85.4,12.6 89.5,13.4 	"/>
	<polygon class="st0" points="96,15.4 97.9,9.4 96.6,8.9 95.8,11.3 93.1,10.5 93.8,8.1 92.6,7.7 90.7,13.7 92,14.2 92.8,11.7 
		95.5,12.5 94.7,15 	"/>
	<path class="st0" d="M101.4,12.2L101.4,12.2l-0.2,2.6l-1.6-0.6L101.4,12.2z M101,17.5l1.4,0.5l0.4-6.7l-1.5-0.6l-4.5,5l1.3,0.5
		l1-1.3l2.1,0.8L101,17.5z"/>
	<path class="st0" d="M104.8,18.2l0.8-1.6l1,0.5c0.3,0.2,0.5,0.4,0.7,0.6c0.1,0.2,0.1,0.5,0,0.7c-0.1,0.3-0.3,0.4-0.6,0.4
		c-0.3,0-0.5,0-0.8-0.2L104.8,18.2z M106.9,14.5l0.9,0.5c0.3,0.1,0.4,0.3,0.5,0.5c0.1,0.2,0.1,0.4-0.1,0.6c-0.1,0.2-0.3,0.3-0.5,0.4
		c-0.2,0.1-0.5,0-0.8-0.2l-0.8-0.5L106.9,14.5z M105.7,19.8c0.3,0.2,0.6,0.3,0.8,0.3c0.3,0.1,0.5,0.1,0.7,0c0.2,0,0.4-0.1,0.6-0.3
		c0.2-0.1,0.3-0.3,0.5-0.6c0.1-0.2,0.2-0.4,0.2-0.5c0-0.2,0-0.4,0-0.5c0-0.2-0.1-0.3-0.2-0.5c-0.1-0.2-0.3-0.3-0.4-0.4v-0.1
		c0.1,0.1,0.3,0.1,0.5,0.1c0.2,0,0.3,0,0.4-0.1c0.1-0.1,0.3-0.1,0.4-0.2s0.2-0.2,0.3-0.4c0.1-0.2,0.2-0.4,0.2-0.6
		c0-0.2,0-0.4-0.1-0.6s-0.2-0.4-0.4-0.5c-0.2-0.2-0.4-0.3-0.6-0.5l-2.4-1.4l-3,5.5L105.7,19.8z"/>
	
		<rect x="107.6" y="18.5" transform="matrix(0.5351 -0.8448 0.8448 0.5351 35.3088 102.5469)" class="st0" width="6.4" height="1.4"/>
	<polygon class="st0" points="114.9,24.5 112.6,22.8 115.6,18.6 114.6,17.8 110.8,23 114.2,25.4 	"/>
	<rect x="114.4" y="23.5" transform="matrix(0.634 -0.7733 0.7733 0.634 24.368 99.7712)" class="st0" width="6.4" height="1.4"/>
	<polygon class="st0" points="119.3,29.8 122.8,26.1 124.3,27.3 125,26.5 121.3,23 120.5,23.9 121.9,25.1 118.3,29 	"/>
	<path class="st0" d="M126.8,30.3L126.8,30.3l-1.3,2.3l-1.1-1.3L126.8,30.3z M124.1,34.9l0.9,1l3.2-5.8l-1-1.1l-6.2,2.6l0.8,1
		l1.5-0.6l1.5,1.7L124.1,34.9z"/>
	<polygon class="st0" points="127.3,39.1 131.5,36 132.6,37.5 133.6,36.8 130.5,32.7 129.6,33.4 130.8,34.9 126.6,37.9 	"/>
	<rect x="128.9" y="39.7" transform="matrix(0.843 -0.5379 0.5379 0.843 -0.9868 77.3764)" class="st0" width="6.4" height="1.4"/>
	<path class="st0" d="M136.7,44.4c0,0.2,0,0.4-0.1,0.6c-0.1,0.2-0.2,0.4-0.4,0.6c-0.2,0.2-0.4,0.4-0.7,0.5c-0.3,0.2-0.5,0.3-0.8,0.3
		c-0.3,0.1-0.5,0.1-0.7,0c-0.2,0-0.4-0.1-0.6-0.3c-0.2-0.1-0.3-0.3-0.4-0.5s-0.2-0.4-0.2-0.7c0-0.2,0-0.4,0.1-0.6
		c0.1-0.2,0.2-0.4,0.4-0.6c0.2-0.2,0.4-0.4,0.7-0.5c0.3-0.2,0.6-0.3,0.8-0.3c0.3-0.1,0.5-0.1,0.7,0c0.2,0,0.4,0.1,0.6,0.3
		c0.2,0.1,0.3,0.3,0.4,0.5C136.6,44,136.7,44.2,136.7,44.4z M136.7,42.2c-0.3-0.2-0.6-0.4-1-0.5c-0.4-0.1-0.8-0.1-1.3,0
		c-0.4,0.1-0.8,0.2-1.4,0.5c-0.4,0.2-0.8,0.5-1.1,0.8c-0.3,0.3-0.5,0.6-0.6,1c-0.1,0.4-0.2,0.7-0.1,1.1c0,0.4,0.2,0.8,0.4,1.3
		c0.2,0.4,0.5,0.7,0.8,1s0.6,0.4,1,0.5c0.4,0.1,0.7,0.1,1.3,0c0.4-0.1,0.8-0.2,1.4-0.5c0.4-0.2,0.8-0.5,1.1-0.8
		c0.3-0.3,0.5-0.6,0.6-1c0.1-0.4,0.2-0.7,0.1-1.1c0-0.4-0.2-0.8-0.4-1.3C137.3,42.7,137,42.4,136.7,42.2z"/>
	<polygon class="st0" points="134.2,51.1 137.8,49.6 137.9,49.6 135.3,53.9 135.8,54.9 141.6,52.4 141.2,51.3 137.5,52.9 
		137.4,52.8 140,48.6 139.6,47.5 133.8,49.9 	"/>
	<path class="st0" d="M138.6,57.7c-0.3,0.1-0.5,0.2-0.7,0.4c-0.2,0.2-0.3,0.4-0.4,0.6c-0.1,0.2-0.2,0.5-0.2,0.8s0,0.6,0.1,1
		c0.1,0.4,0.2,0.7,0.4,1c0.2,0.3,0.4,0.5,0.6,0.6c0.2,0.2,0.5,0.3,0.7,0.3c0.3,0,0.5,0,0.8,0c0.2-0.1,0.4-0.1,0.6-0.3
		c0.2-0.1,0.3-0.3,0.4-0.4c0.1-0.2,0.2-0.4,0.2-0.6c0-0.2,0.1-0.5,0-0.8v-0.7c0-0.4,0-0.6,0.1-0.8c0.1-0.2,0.2-0.3,0.4-0.3
		c0.1,0,0.2,0,0.3,0s0.2,0.1,0.3,0.1c0.1,0.1,0.2,0.2,0.2,0.3c0.1,0.1,0.1,0.3,0.2,0.4c0,0.1,0.1,0.3,0.1,0.4c0,0.1,0,0.3-0.1,0.4
		c0,0.1-0.1,0.2-0.2,0.3c-0.1,0.1-0.2,0.2-0.3,0.2l0.3,1.3c0.3-0.1,0.5-0.2,0.7-0.4c0.2-0.2,0.3-0.4,0.4-0.6
		c0.1-0.2,0.2-0.5,0.2-0.8s0-0.6-0.1-0.9c-0.1-0.3-0.2-0.6-0.4-0.9c-0.2-0.3-0.3-0.5-0.6-0.6c-0.2-0.2-0.4-0.3-0.7-0.3s-0.5,0-0.8,0
		c-0.9,0.2-1.4,0.9-1.3,2.1v0.8c0,0.2,0,0.4,0,0.5c0,0.1,0,0.3-0.1,0.4c0,0.1-0.1,0.2-0.2,0.2c-0.1,0.1-0.1,0.1-0.2,0.1
		c-0.1,0-0.2,0-0.3,0c-0.1,0-0.2-0.1-0.3-0.2c-0.1-0.1-0.2-0.2-0.2-0.3c-0.1-0.1-0.1-0.3-0.2-0.4c0-0.2-0.1-0.3-0.1-0.5
		c0-0.2,0-0.3,0.1-0.4c0-0.1,0.1-0.2,0.2-0.3c0.1-0.1,0.2-0.2,0.3-0.2L138.6,57.7z"/>
	<polygon class="st0" points="140.2,68.1 139.7,65.3 141.3,65 141.7,67.7 142.7,67.5 142.3,64.7 143.8,64.5 144.3,67.4 145.4,67.1 
		144.6,63.1 138.4,64.1 139.1,68.3 	"/>
	<path class="st0" d="M141.7,70.7l0.1,1l-2.2,1.4l0.1,1.5l2.4-1.6c0.1,0.2,0.2,0.3,0.3,0.4c0.1,0.1,0.3,0.2,0.4,0.3
		c0.2,0.1,0.3,0.1,0.5,0.2c0.2,0,0.4,0,0.6,0c0.3,0,0.6-0.1,0.8-0.2c0.2-0.1,0.4-0.3,0.6-0.5c0.2-0.2,0.3-0.4,0.3-0.7
		c0.1-0.3,0.1-0.6,0.1-0.9l-0.2-2.6l-6.4,0.5l0.1,1.4L141.7,70.7z M144.7,70.4l0.1,1.1c0,0.2,0,0.3,0,0.4s-0.1,0.2-0.2,0.3
		c-0.1,0.1-0.2,0.2-0.3,0.2c-0.1,0.1-0.2,0.1-0.4,0.1c-0.3,0-0.5,0-0.7-0.2c-0.2-0.2-0.3-0.4-0.3-0.7l-0.1-1.1L144.7,70.4z"/>
	<polygon class="st0" points="139.7,78.9 146.1,81.1 146.1,79.7 141.3,78.2 141.3,78.1 146.1,76.7 146.1,75.2 139.8,77.3 	"/>
	
		<rect x="142.1" y="79.7" transform="matrix(7.622890e-02 -0.9971 0.9971 7.622890e-02 49.3137 218.9008)" class="st0" width="1.4" height="6.4"/>
	<path class="st0" d="M138.9,88.4c0.1,0.3,0.2,0.6,0.3,0.9c0.2,0.3,0.4,0.5,0.6,0.7s0.5,0.3,0.9,0.4l0.2-1.3
		c-0.2-0.1-0.3-0.1-0.4-0.2c-0.1-0.1-0.2-0.2-0.3-0.4c-0.1-0.1-0.1-0.3-0.2-0.4c0-0.2,0-0.3,0-0.5c0-0.2,0.1-0.4,0.2-0.6
		c0.1-0.2,0.3-0.3,0.5-0.4c0.2-0.1,0.4-0.2,0.7-0.2s0.6,0,0.9,0c0.3,0,0.6,0.1,0.8,0.2c0.2,0.1,0.4,0.2,0.6,0.4
		c0.2,0.2,0.3,0.3,0.3,0.5c0.1,0.2,0.1,0.4,0,0.7c0,0.2-0.1,0.3-0.2,0.5c-0.1,0.1-0.2,0.3-0.3,0.4c-0.1,0.1-0.3,0.2-0.4,0.2
		c-0.2,0.1-0.3,0.1-0.5,0.1l-0.2,1.3c0.3,0,0.6,0,0.9-0.1c0.3-0.1,0.6-0.3,0.8-0.5s0.4-0.4,0.6-0.7c0.2-0.3,0.3-0.6,0.3-1
		c0.1-0.4,0-0.8,0-1.3c-0.1-0.4-0.3-0.7-0.5-1c-0.2-0.3-0.5-0.5-0.9-0.7c-0.4-0.2-0.8-0.3-1.4-0.4c-0.5-0.1-0.9-0.1-1.4,0
		c-0.4,0.1-0.8,0.2-1.1,0.4s-0.6,0.5-0.8,0.8c-0.2,0.3-0.3,0.7-0.4,1.1C138.8,87.8,138.8,88.1,138.9,88.4z"/>
	<polygon class="st0" points="138.5,95.5 139.2,92.8 140.7,93.1 140,95.7 141.1,96 141.7,93.3 143.2,93.7 142.4,96.5 143.6,96.8 
		144.5,92.7 138.4,91.2 137.4,95.3 	"/>
	<path class="st0" d="M138.8,96.8c-0.3-0.1-0.5-0.1-0.8-0.1c-0.3,0-0.5,0.1-0.7,0.3c-0.2,0.1-0.4,0.3-0.6,0.6
		c-0.2,0.3-0.3,0.6-0.4,0.9c-0.1,0.4-0.2,0.7-0.2,1c0,0.3,0,0.6,0.1,0.9c0.1,0.3,0.2,0.5,0.4,0.7c0.2,0.2,0.4,0.3,0.7,0.4
		c0.2,0.1,0.4,0.1,0.6,0.1c0.2,0,0.4-0.1,0.6-0.1c0.2-0.1,0.3-0.2,0.5-0.4c0.2-0.2,0.3-0.4,0.5-0.7l0.4-0.6c0.2-0.3,0.4-0.5,0.5-0.6
		c0.2-0.1,0.3-0.1,0.5-0.1c0.1,0,0.2,0.1,0.3,0.2c0.1,0.1,0.1,0.2,0.2,0.3s0,0.2,0,0.4c0,0.1,0,0.3-0.1,0.4c0,0.1-0.1,0.3-0.2,0.4
		s-0.2,0.2-0.3,0.3c-0.1,0.1-0.2,0.1-0.3,0.1c-0.1,0-0.2,0-0.3,0l-0.4,1.1c0.3,0.1,0.5,0.1,0.8,0.1s0.5-0.1,0.7-0.3
		c0.2-0.1,0.4-0.3,0.6-0.6c0.2-0.2,0.3-0.5,0.4-0.8c0.1-0.3,0.2-0.6,0.2-0.9c0-0.3,0-0.6-0.1-0.8s-0.2-0.5-0.4-0.6
		c-0.2-0.2-0.4-0.3-0.7-0.4c-0.9-0.3-1.7,0-2.3,1l-0.4,0.7c-0.1,0.2-0.2,0.3-0.3,0.4s-0.2,0.2-0.3,0.3c-0.1,0.1-0.2,0.1-0.3,0.1
		c-0.1,0-0.2,0-0.3,0c-0.1,0-0.2-0.1-0.3-0.2c-0.1-0.1-0.1-0.2-0.2-0.3c0-0.1,0-0.2,0-0.4c0-0.1,0-0.3,0.1-0.4
		c0.1-0.2,0.1-0.3,0.2-0.4c0.1-0.1,0.2-0.2,0.3-0.3c0.1-0.1,0.2-0.1,0.3-0.2c0.1,0,0.2,0,0.4,0L138.8,96.8z"/>
	<path class="st0" d="M100.9,81.6c-0.3-0.1-0.7-0.4-1-0.4c-1.8-0.4-3.2-0.8-4.4-2c-1.6-1.5-2.9-3.1-4.4-4.8c-1.6-1.8-3-3.8-4.5-5.5
		c-0.2-0.3-0.4-0.6-0.7-0.9c-0.1-0.1-0.2-0.2-0.3-0.3c-0.1-0.1-0.1-0.1-0.1-0.2c0,0,0-0.1,0.1-0.2s0.2-0.2,0.4-0.3
		c0.6-0.4,1.3-0.9,1.8-1.5c1.3-1,2.3-2.4,2.6-4.1c0.2-0.7,0.2-1.5,0.2-2.2c0-1.8-0.4-3.4-1.4-5c-0.8-1.5-2-2.7-3.2-3.9
		c-1.6-1.6-3.3-2.8-5.2-4c-1-0.6-2.1-1.4-3.2-1.9c-0.7-0.4-1.5-0.8-2.3-1.1c-1.6-0.6-3.1-1.3-4.8-1.9c-1.4-0.5-2.8-1-4.2-1.4
		c-2.3-0.5-4.5-0.9-6.8-1.3c-1-0.1-2-0.2-3-0.2c-0.8,0-1.6,0.1-2.4,0.2c-0.9,0.2-1.8,0.4-2.7,0.6c-1.6,0.4-2.9,1-4,2.4
		c-0.7,1-1.3,2.1-1.3,3.2c0,0.4,0.1,0.9,0.2,1.4c0.3,1,0.8,2.1,1.4,3c0.5,0.8,1.1,1.5,1.9,2.2l0.2,0.2v-0.2c0-0.2,0.1-0.4,0.1-0.6
		V51c-0.2-0.8-0.4-1.7-0.6-2.5c-0.1-0.4-0.1-0.8-0.1-1.3c0-0.9,0.3-1.8,0.7-2.6c0.5-0.8,1.3-1.5,2.1-1.8c0.8-0.4,1.8-0.6,2.7-0.7
		c0.5-0.1,1-0.1,1.5-0.1c0.7,0,1.6,0.1,2.3,0.1c4.2,0.4,8,1.6,11.8,3.1c2.9,1.3,5.7,2.6,8.3,4.5c2.4,1.7,4.6,3.4,5.9,6
		c0.6,1.1,0.9,2.2,0.9,3.4c0,0.3,0,0.6-0.1,0.9c-0.2,1.1-0.7,2.1-1.8,2.8c-0.9,0.6-1.8,1-2.9,1.4c-0.9,0.2-2,0.3-2.9,0.4
		c-0.2,0-0.3,0.1-0.7,0.2l-0.2,0.1l0.1,0.1c0.8,0.8,1.6,1.5,2.1,2.1c1.3,1.5,2.5,3,3.7,4.6c0.6,0.7,1.1,1.7,1.8,2.4
		c0.7,1,1.6,2,2.3,3c1,1.4,2.1,2.7,3.5,3.8c1.1,0.8,2.4,1.3,3.8,1.3c0.9,0,1.8,0.1,2.7,0.1c1,0,2,0,3,0c0.3,0,0.5-0.1,0.8-0.2h0.1
		v-0.1c0-0.1,0-0.2,0-0.3L100.9,81.6L100.9,81.6z"/>
	<path d="M74,63.7c-1-0.8-2.2-1.6-3.3-2.4c-1.1-0.7-2.4-1.5-3.5-2.2c-1-0.6-2.1-1.3-3-1.8c-1.1-0.6-2.2-1.4-3.3-2
		c-0.8-0.4-1.6-0.8-2.3-1.4c-1.5-0.9-2.8-2-4.2-3c-0.5-0.4-1-0.8-1.5-1.3c-0.7-0.7-1.4-1.5-2.3-2.4l-0.2-0.2l0.2,1.8l0,0
		c0.1,0.7,0.2,1.5,0.5,2.1c0.4,0.9,0.8,1.9,1.4,2.7c0.7,1.1,1.7,2,2.8,2.7c0.9,0.6,1.8,1.3,2.7,1.9c1.1,0.8,2.4,1.5,3.7,2.3
		c1.7,1.1,3.3,2.3,5.1,3.4c0.7,0.4,1.4,0.9,2.1,1.5c1,0.8,2.2,1.8,3.1,2.7c1.4,1.4,2.5,2.7,2.9,4.6c0.2,0.7,0.3,1.6,0.3,2.3
		c0,0.7-0.1,1.4-0.4,2.1c-0.5,1.4-1.5,2.4-2.9,2.8c-0.7,0.2-1.4,0.3-2.1,0.3c-0.8,0-1.6-0.1-2.4-0.3c-0.9-0.2-1.7-1-1.7-2
		c-0.1-1.6-0.1-3.1-0.1-4.7c0-2.8,0-5.7,0-8.6c0-0.1,0-0.3-0.1-0.4c-0.1-0.1-0.1-0.3-0.2-0.4c-1.6-1-3.1-2.1-4.8-3.2l-0.1-0.1v0.1
		c-0.1,0.4-0.3,0.6-0.3,0.9c0,0.1,0,0.2,0,0.3c0,1.7,0,3.3,0,4.9c0,0.7,0,1.5,0,2.3c0,0.4,0,0.8,0,1.3c0,1.5,0.1,2.8,0.1,4.3
		c0,1.8-0.1,3.5-0.5,5.3c-0.1,0.3-0.2,0.6-0.3,0.7c-0.2,0.2-0.4,0.3-0.7,0.3c-0.4,0.1-0.9,0.1-1.4,0.2c-0.1,0.1-0.3,0.2-0.4,0.3
		c-0.1,0.1-0.2,0.2-0.3,0.3L56.4,82l0.1,0.1c0.1,0.1,0.2,0.1,0.3,0.2c0.1,0.1,0.2,0.1,0.4,0.2c0.2,0,0.3,0,0.5,0c0.3,0,0.5,0,0.8,0
		c1.5,0,3,0,4.5,0c0.9,0,1.9,0,2.8,0.1c1,0,2.1,0.1,3.1,0.1c1.7,0,3.2-0.1,4.9-0.6c1.3-0.4,2.5-1,3.5-1.9c2-1.7,3.1-3.9,3.2-6.4
		c0-0.2,0-0.3,0-0.4c0-1.8-0.4-3.4-1.6-4.9C77.6,66.4,75.8,65.1,74,63.7z"/>
	<path d="M73.9,62.9L73.9,62.9H74c0.4-0.3,0.7-0.6,1-1c0.9-1.1,1.7-2.5,1.8-4.1c0-0.5,0.1-0.9,0.1-1.5c0-0.6-0.1-1.3-0.5-1.9
		c-0.4-0.7-0.8-1.6-1.5-2.2c-1.6-1.4-3.4-2.1-5.5-2.1c-1.5,0-2.8,0-4.3,0c-1.4,0-2.7,0-4.2,0c-0.3,0-0.7,0-1,0c-1.1,0-2.3,0-3.4,0
		h-0.1c-0.2,0-0.3,0-0.5,0.1c-0.1,0-0.2,0.1-0.2,0.2c-0.1,0.1-0.1,0.2-0.1,0.3l0,0c0,0.2,0.1,0.4,0.3,0.5c0.2,0.1,0.4,0.1,0.6,0.1
		c0.4,0,0.8,0.1,1.1,0.1c0.6,0,1.1,0.2,1.5,0.5c0.3,0.3,0.5,0.8,0.5,1.6c0,0.2,0.1,0.4,0.2,0.6c0.1,0.2,0.3,0.4,0.4,0.5
		c1.3,0.8,2.6,1.6,4,2.3c0.1,0,0.2,0.1,0.3,0.1s0.2,0.1,0.3,0.1h0.1c0,0,0.1,0,0.1-0.1l0,0c0.2-0.2,0.3-0.5,0.3-0.8s0-0.6,0-0.8
		c0-0.8,0-1.7,0-2.5l0,0c0-0.2,0-0.3,0.1-0.3c0.1-0.1,0.2-0.1,0.3-0.2c0.3-0.1,0.7-0.1,1-0.1c1,0,2,0.4,2.8,1
		c1.1,0.8,1.9,2.2,2.1,3.5c0.1,0.5,0.1,0.9,0.1,1.5c0,0.7-0.1,1.5-0.1,2.2c0,0.1,0,0.2,0,0.3c0,0.2,0.1,0.5,0.2,0.6
		c0.1,0.2,0.3,0.3,0.4,0.5l0.1-0.1L72.3,62C72.9,62.2,73.4,62.5,73.9,62.9z"/>
</g>
</svg>
