<svg xmlns="http://www.w3.org/2000/svg" width="34.532" height="34.614" viewBox="0 0 34.532 34.614">
  <g id="noun-send-1014533" transform="translate(0.5 0.528)">
    <path id="Path_500" data-name="Path 500" d="M134.294,75.908l31.372-12.54a1.01,1.01,0,0,1,1.172.26,1.168,1.168,0,0,1,.26,1.172l-12.54,31.373a1.138,1.138,0,0,1-1,.694,1.07,1.07,0,0,1-1-.694l-5.034-13.1-.26-.13-12.931-4.99a1.07,1.07,0,0,1-.694-1,1.159,1.159,0,0,1,.65-1.041Zm13.365,4.86,5.641-5.641a1.048,1.048,0,0,1,1.519,0,1.087,1.087,0,0,1,0,1.519l-5.424,5.424,4.122,10.718L164.1,66.318,137.635,76.906Z" transform="translate(-133.643 -63.281)" fill="#e30230" stroke="#e30230" stroke-width="1"/>
  </g>
</svg>
