<svg xmlns="http://www.w3.org/2000/svg" xmlns:xlink="http://www.w3.org/1999/xlink" width="24.396" height="24.896" viewBox="0 0 24.396 24.896">
  <defs>
    <clipPath id="clip-path">
      <rect id="Rectangle_604" data-name="Rectangle 604" width="24.396" height="24.896" fill="#fff" stroke="#fff" stroke-width="0.3"/>
    </clipPath>
  </defs>
  <g id="Group_1994" data-name="Group 1994" transform="translate(0 0)">
    <g id="Group_1993" data-name="Group 1993" transform="translate(0 0)" clip-path="url(#clip-path)">
      <path id="Path_3416" data-name="Path 3416" d="M24.015,4H22.425L19.215.358A.31.31,0,0,0,18.983.25H5.593a.308.308,0,0,0-.232.108L2.151,4H.56a.31.31,0,0,0-.31.309v7.834a.31.31,0,0,0,.31.309H1.981v12.06a.31.31,0,0,0,.31.311H22.284a.31.31,0,0,0,.31-.31V12.453h1.421a.311.311,0,0,0,.31-.31V4.308A.31.31,0,0,0,24.015,4ZM5.733.873h13.11L21.6,4H2.977Zm12.94,19.755H11.229v-.539a1.984,1.984,0,0,0-1-1.72,1.6,1.6,0,1,0-2,0,1.993,1.993,0,0,0-.993,1.721v.539H5.9V14.485H18.674Zm-10.812,0v-.539a1.375,1.375,0,0,1,2.749,0v.539ZM9.235,18.1h0a.985.985,0,1,1,.695-.288.983.983,0,0,1-.695.288ZM5.9,24.2V21.247H18.674V24.2Zm16.072,0H19.293V14.173a.309.309,0,0,0-.309-.31H5.592a.31.31,0,0,0-.31.31V24.2H2.6V12.455H21.974Zm1.731-12.37H.869V4.618H23.7Z" transform="translate(-0.089 -0.089)" fill="#fff" stroke="#fff" stroke-width="0.3"/>
      <path id="Path_3417" data-name="Path 3417" d="M24.015,4H22.425L19.215.358A.31.31,0,0,0,18.983.25H5.593a.308.308,0,0,0-.232.108L2.151,4H.56a.31.31,0,0,0-.31.309v7.834a.31.31,0,0,0,.31.309H1.981v12.06a.31.31,0,0,0,.31.311H22.284a.31.31,0,0,0,.31-.31V12.453h1.421a.311.311,0,0,0,.31-.31V4.308A.31.31,0,0,0,24.015,4ZM5.733.873h13.11L21.6,4H2.977Zm12.94,19.755H11.229v-.539a1.984,1.984,0,0,0-1-1.72,1.6,1.6,0,1,0-2,0,1.993,1.993,0,0,0-.993,1.721v.539H5.9V14.485H18.674Zm-10.812,0v-.539a1.375,1.375,0,0,1,2.749,0v.539ZM9.235,18.1h0a.985.985,0,1,1,.695-.288.983.983,0,0,1-.695.288ZM5.9,24.2V21.247H18.674V24.2Zm16.072,0H19.293V14.173a.309.309,0,0,0-.309-.31H5.592a.31.31,0,0,0-.31.31V24.2H2.6V12.455H21.974Zm1.731-12.37H.869V4.618H23.7Z" transform="translate(-0.089 -0.089)" fill="#fff" stroke="#fff" stroke-miterlimit="10" stroke-width="0.3"/>
      <path id="Path_3418" data-name="Path 3418" d="M19.948,9.741H18.493V8.286a.308.308,0,0,0-.31-.31H16.4a.306.306,0,0,0-.219.09.31.31,0,0,0-.091.22V9.741H14.635a.311.311,0,0,0-.219.091.306.306,0,0,0-.09.219v1.784a.308.308,0,0,0,.309.31h1.455V13.6a.31.31,0,0,0,.31.31h1.783a.311.311,0,0,0,.219-.091.308.308,0,0,0,.09-.219V12.145h1.455a.309.309,0,0,0,.31-.31V10.051a.31.31,0,0,0-.309-.31Zm-.31,1.783H18.183a.31.31,0,0,0-.309.31v1.455H16.71V11.835a.309.309,0,0,0-.309-.309H14.945V10.361H16.4a.31.31,0,0,0,.309-.31V8.6h1.163v1.455a.311.311,0,0,0,.31.31h1.455Z" transform="translate(-5.093 -2.835)" fill="#fff" stroke="#fff" stroke-width="0.3"/>
      <path id="Path_3419" data-name="Path 3419" d="M19.948,9.741H18.493V8.286a.308.308,0,0,0-.31-.31H16.4a.306.306,0,0,0-.219.09.31.31,0,0,0-.091.22V9.741H14.635a.311.311,0,0,0-.219.091.306.306,0,0,0-.09.219v1.784a.308.308,0,0,0,.309.31h1.455V13.6a.31.31,0,0,0,.31.31h1.783a.311.311,0,0,0,.219-.091.308.308,0,0,0,.09-.219V12.145h1.455a.309.309,0,0,0,.31-.31V10.051a.31.31,0,0,0-.309-.31Zm-.31,1.783H18.183a.31.31,0,0,0-.309.31v1.455H16.71V11.835a.309.309,0,0,0-.309-.309H14.945V10.361H16.4a.31.31,0,0,0,.309-.31V8.6h1.163v1.455a.311.311,0,0,0,.31.31h1.455Z" transform="translate(-5.093 -2.835)" fill="#fff" stroke="#fff" stroke-miterlimit="10" stroke-width="0.3"/>
    </g>
  </g>
</svg>
