<svg xmlns="http://www.w3.org/2000/svg" xmlns:xlink="http://www.w3.org/1999/xlink" width="25.5" height="25.499" viewBox="0 0 25.5 25.499">
  <defs>
    <clipPath id="clip-path">
      <rect id="Rectangle_602" data-name="Rectangle 602" width="25.5" height="25.499" fill="#fff"/>
    </clipPath>
  </defs>
  <g id="Group_1991" data-name="Group 1991" transform="translate(0 0)">
    <g id="Group_1990" data-name="Group 1990" transform="translate(0 0)" clip-path="url(#clip-path)">
      <path id="Path_3408" data-name="Path 3408" d="M19.225,13.162A1.825,1.825,0,1,0,17.4,11.337a1.827,1.827,0,0,0,1.825,1.825m0-3.013a1.188,1.188,0,1,1-1.188,1.188,1.189,1.189,0,0,1,1.188-1.188" transform="translate(-6.49 -3.548)" fill="#fff"/>
      <path id="Path_3409" data-name="Path 3409" d="M.319,25.5H25.181a.319.319,0,0,0,.319-.319V9.3a.319.319,0,0,0-.319-.319H18.751c-.009,0-.016.005-.025.006V6.843l.566.329a.318.318,0,1,0,.32-.551l-6.5-3.784V2.075h1.715a.319.319,0,0,0,.319-.319V.319A.318.318,0,0,0,14.823,0H12.789a.318.318,0,0,0-.319.319V2.792L5.887,6.621a.319.319,0,0,0,.32.551l.566-.329V8.978H.319A.318.318,0,0,0,0,9.3V25.181a.318.318,0,0,0,.319.319Zm19.4-.638H5.75V23.616H19.721Zm-4.142-1.883H13.1v-5.9h2.475Zm-3.113,0H9.921v-5.9h2.545ZM18.752,9.615h6.11V24.862h-4.5V23.3a.318.318,0,0,0-.319-.319H18.726V9.61C18.735,9.611,18.743,9.615,18.752,9.615ZM14.5,1.437h-1.4v-.8h1.4ZM12.75,3.367l5.339,3.1V22.979H16.216V16.76a.318.318,0,0,0-.319-.319H9.6a.318.318,0,0,0-.319.319v6.219H7.411V6.472ZM.638,9.615H6.774V22.979H5.431a.319.319,0,0,0-.319.319v1.564H.638Z" transform="translate(0 0)" fill="#fff"/>
      <path id="Path_3410" data-name="Path 3410" d="M33.079,21.811h1.966a.319.319,0,0,0,.319-.319V18.28a.318.318,0,0,0-.319-.319H33.079a.318.318,0,0,0-.319.319v3.212a.319.319,0,0,0,.319.319M33.4,18.6h1.328v2.575H33.4Z" transform="translate(-12.219 -6.699)" fill="#fff"/>
      <path id="Path_3411" data-name="Path 3411" d="M35.065,26.2H33.1a.319.319,0,0,0-.319.319v3.212a.318.318,0,0,0,.319.319h1.966a.319.319,0,0,0,.319-.319V26.52A.318.318,0,0,0,35.065,26.2Zm-.319,3.212H33.418V26.838h1.328Z" transform="translate(-12.227 -9.773)" fill="#fff"/>
      <path id="Path_3412" data-name="Path 3412" d="M3.97,21.811H5.935a.319.319,0,0,0,.319-.319V18.28a.319.319,0,0,0-.319-.319H3.97a.318.318,0,0,0-.319.319v3.212A.319.319,0,0,0,3.97,21.811ZM4.288,18.6H5.616v2.575H4.288Z" transform="translate(-1.362 -6.699)" fill="#fff"/>
      <path id="Path_3413" data-name="Path 3413" d="M15.125,21.811h1.966a.319.319,0,0,0,.319-.319V18.28a.318.318,0,0,0-.319-.319H15.125a.318.318,0,0,0-.319.319v3.212a.319.319,0,0,0,.319.319m.319-3.213h1.328v2.575H15.444Z" transform="translate(-5.522 -6.699)" fill="#fff"/>
      <path id="Path_3414" data-name="Path 3414" d="M21.828,18.279v3.212a.318.318,0,0,0,.319.319h1.966a.318.318,0,0,0,.319-.319V18.279a.319.319,0,0,0-.319-.319H22.147a.319.319,0,0,0-.319.319m.637.319h1.328v2.575H22.465Z" transform="translate(-8.142 -6.699)" fill="#fff"/>
      <path id="Path_3415" data-name="Path 3415" d="M5.955,26.2H3.99a.319.319,0,0,0-.319.319v3.212a.318.318,0,0,0,.319.319H5.955a.318.318,0,0,0,.319-.319V26.52A.319.319,0,0,0,5.955,26.2Zm-.319,3.212H4.309V26.838H5.637Z" transform="translate(-1.369 -9.773)" fill="#fff"/>
    </g>
  </g>
</svg>
