<svg xmlns="http://www.w3.org/2000/svg" xmlns:xlink="http://www.w3.org/1999/xlink" width="27.582" height="26.308" viewBox="0 0 27.582 26.308">
  <defs>
    <clipPath id="clip-path">
      <rect id="Rectangle_607" data-name="Rectangle 607" width="27.582" height="26.308" fill="#fff"/>
    </clipPath>
  </defs>
  <g id="Group_1999" data-name="Group 1999" transform="translate(0 0)">
    <g id="Group_1998" data-name="Group 1998" transform="translate(0 0)" clip-path="url(#clip-path)">
      <path id="Path_3423" data-name="Path 3423" d="M10.754,33.879a.431.431,0,0,1-.007-.862l3.907-.061a.535.535,0,0,0,.378-.166.6.6,0,0,0,.165-.434.583.583,0,0,0-.575-.587L12.47,31.8a5.044,5.044,0,0,1-2.762-.771,4.178,4.178,0,0,0-2.293-.641l-1.234.019H6.174a.431.431,0,0,1-.006-.862L7.4,29.529a5.045,5.045,0,0,1,2.762.771,4.238,4.238,0,0,0,2.293.641l2.152-.034a1.467,1.467,0,0,1,1.044,2.481,1.391,1.391,0,0,1-.985.43l-3.907.061Z" transform="translate(-2.252 -11.576)" fill="#fff"/>
      <path id="Path_3424" data-name="Path 3424" d="M11.94,38.793A4.938,4.938,0,0,1,9.6,38.2l-.677-.365a4.075,4.075,0,0,0-2-.491l-.523.008H6.392a.431.431,0,0,1-.006-.861l.524-.008a4.985,4.985,0,0,1,2.42.594l.677.365a4.076,4.076,0,0,0,3.2.288l8.313-3.347a.82.82,0,0,0,.506-.449.889.889,0,0,0,.006-.714.8.8,0,0,0-1.015-.461L15.5,34.457a.431.431,0,0,1-.254-.824l5.487-1.686a1.659,1.659,0,0,1,2.087.939,1.752,1.752,0,0,1-.014,1.406,1.673,1.673,0,0,1-1,.9L13.5,38.541A4.951,4.951,0,0,1,11.94,38.793Z" transform="translate(-2.337 -12.485)" fill="#fff"/>
      <path id="Path_3425" data-name="Path 3425" d="M.833,36.789a.431.431,0,0,1-.007-.862l2.262-.035a.554.554,0,0,0,.393-.167.5.5,0,0,0,.141-.357l-.129-5.877a.546.546,0,0,0-.562-.513H.431a.431.431,0,0,1,0-.862H2.946a1.4,1.4,0,0,1,1.409,1.355l.129,5.878a1.352,1.352,0,0,1-.382.973,1.407,1.407,0,0,1-1,.432L.84,36.789Z" transform="translate(0 -11.023)" fill="#fff"/>
      <path id="Path_3426" data-name="Path 3426" d="M2.695,38.017H2.667a.452.452,0,0,1-.419-.491.462.462,0,0,1,.483-.41.453.453,0,0,1,.419.483h0A.469.469,0,0,1,2.695,38.017Zm.026-.45h0Zm0,0h0Zm-.022,0h0Zm0,0h0Zm-.408-.029.021,0Z" transform="translate(-0.881 -14.55)" fill="#fff"/>
      <path id="Path_3427" data-name="Path 3427" d="M26.452,25.163H9.435A3.6,3.6,0,0,1,6.01,22.625,1.139,1.139,0,0,1,7.1,21.163H28.778a1.139,1.139,0,0,1,1.093,1.461,3.589,3.589,0,0,1-3.419,2.539ZM7.1,22.025a.276.276,0,0,0-.224.114.263.263,0,0,0-.043.236,2.731,2.731,0,0,0,2.6,1.926H26.453a2.726,2.726,0,0,0,2.593-1.926A.264.264,0,0,0,29,22.139a.278.278,0,0,0-.224-.114Z" transform="translate(-2.337 -8.297)" fill="#fff"/>
      <path id="Path_3428" data-name="Path 3428" d="M33.253,12.369h-4.21a2.055,2.055,0,0,1,0-4.109h4.21a2.055,2.055,0,1,1,0,4.109Zm-4.21-3.247a1.193,1.193,0,0,0,0,2.386h4.21a1.193,1.193,0,1,0,0-2.386Z" transform="translate(-10.581 -3.238)" fill="#fff"/>
      <path id="Path_3429" data-name="Path 3429" d="M33.107,12.369a.431.431,0,0,1-.431-.431V8.691a.431.431,0,0,1,.862,0v3.247a.431.431,0,0,1-.431.431" transform="translate(-12.81 -3.238)" fill="#fff"/>
      <path id="Path_3430" data-name="Path 3430" d="M33.253,17.711h-4.21a2.055,2.055,0,0,1,0-4.109h4.21a2.055,2.055,0,0,1,0,4.11Zm-4.21-3.247a1.193,1.193,0,0,0,0,2.386h4.21a1.193,1.193,0,1,0,0-2.386Z" transform="translate(-10.581 -5.333)" fill="#fff"/>
      <path id="Path_3431" data-name="Path 3431" d="M33.107,17.711a.431.431,0,0,1-.431-.431V14.033a.431.431,0,0,1,.862,0V17.28a.431.431,0,0,1-.431.431" transform="translate(-12.81 -5.333)" fill="#fff"/>
      <path id="Path_3432" data-name="Path 3432" d="M17.313,13.679H15.851a1.5,1.5,0,0,1-1.493-1.493V9.42a11.884,11.884,0,0,1,.333-2.791A10.97,10.97,0,0,0,15,4.042V1.654A1.64,1.64,0,0,1,16.313.023,1.58,1.58,0,0,1,18.164,1.58V4.043a11.009,11.009,0,0,0,.309,2.587,11.847,11.847,0,0,1,.333,2.79v2.766A1.494,1.494,0,0,1,17.313,13.679ZM16.586.862a.715.715,0,0,0-.129.012.77.77,0,0,0-.6.781V4.043a11.847,11.847,0,0,1-.333,2.79A11.005,11.005,0,0,0,15.22,9.42v2.766a.632.632,0,0,0,.631.631h1.462a.632.632,0,0,0,.632-.631V9.42a11.01,11.01,0,0,0-.309-2.587,11.879,11.879,0,0,1-.333-2.79V1.579a.718.718,0,0,0-.716-.717Z" transform="translate(-5.629 0)" fill="#fff"/>
    </g>
  </g>
</svg>
