<svg xmlns="http://www.w3.org/2000/svg" xmlns:xlink="http://www.w3.org/1999/xlink" width="26.665" height="21.817" viewBox="0 0 26.665 21.817">
  <defs>
    <clipPath id="clip-path">
      <rect id="Rectangle_582" data-name="Rectangle 582" width="26.665" height="21.817" fill="#fff"/>
    </clipPath>
  </defs>
  <g id="Group_1965" data-name="Group 1965" transform="translate(0 0)">
    <g id="Group_1964" data-name="Group 1964" transform="translate(0 0)" clip-path="url(#clip-path)">
      <path id="Path_3347" data-name="Path 3347" d="M35.069,8.8A2.741,2.741,0,1,1,37.81,6.059,2.744,2.744,0,0,1,35.069,8.8Zm0-4.512A1.771,1.771,0,1,0,36.84,6.059a1.773,1.773,0,0,0-1.771-1.772" transform="translate(-12.149 -1.247)" fill="#fff"/>
      <path id="Path_3348" data-name="Path 3348" d="M35.72,15.024a.484.484,0,0,1-.407-.747,1.587,1.587,0,0,0,.168-.7,1.557,1.557,0,0,0-1.554-1.555c-.762,0-1.2.344-1.506,1.187a.485.485,0,1,1-.911-.334,2.417,2.417,0,0,1,2.417-1.823,2.526,2.526,0,0,1,2.524,2.524,2.564,2.564,0,0,1-.3,1.19.482.482,0,0,1-.1.131A.487.487,0,0,1,35.72,15.024Z" transform="translate(-11.83 -4.152)" fill="#fff"/>
      <path id="Path_3349" data-name="Path 3349" d="M24.335,20.593a1.983,1.983,0,0,1-.288-.021H10.4a2.4,2.4,0,0,1-1.22-.273.478.478,0,0,1-.164.029.485.485,0,0,1-.484-.484v-.461a1.452,1.452,0,0,1,.016-.593.483.483,0,0,1,.036-.094,1.8,1.8,0,0,1,1.6-1.516l11.945-1.9.773-1.556a.485.485,0,1,1,.868.432l-.885,1.779a.48.48,0,0,1-.358.263L10.288,18.142c-.162.017-.787.127-.787,1.108v.018a.3.3,0,0,0,.052.1,1.121,1.121,0,0,0,.846.238H24.088a.539.539,0,0,1,.089.008.839.839,0,0,0,.931-.442c.377-.942,1.563-3.962,1.563-3.962l.9.355s-1.188,3.024-1.566,3.968A1.72,1.72,0,0,1,24.335,20.593Z" transform="translate(-3.197 -5.058)" fill="#fff"/>
      <path id="Path_3350" data-name="Path 3350" d="M40.774,14.95H39.32a.485.485,0,1,1,0-.969h1.454a.485.485,0,1,1,0,.969" transform="translate(-14.594 -5.254)" fill="#fff"/>
      <path id="Path_3351" data-name="Path 3351" d="M36.251,21.3a.489.489,0,0,1-.485-.485.479.479,0,0,1,.141-.344.5.5,0,0,1,.684,0,.485.485,0,0,1-.34.829" transform="translate(-13.441 -7.643)" fill="#fff"/>
      <path id="Path_3352" data-name="Path 3352" d="M.485,25.611A.485.485,0,0,1,0,25.126v-6.3a.485.485,0,0,1,.485-.484H25.7V10.581a.485.485,0,0,1,.97,0v8.242a.485.485,0,0,1-.485.485H.97v5.818a.485.485,0,0,1-.485.485" transform="translate(0 -3.795)" fill="#fff"/>
      <path id="Path_3353" data-name="Path 3353" d="M41.65,30.573a.485.485,0,0,1-.485-.485v-6.3a.485.485,0,0,1,.97,0v6.3a.485.485,0,0,1-.485.485" transform="translate(-15.469 -8.757)" fill="#fff"/>
      <path id="Path_3354" data-name="Path 3354" d="M21.439,19.2a.485.485,0,0,1-.049-.967l6.62-.671,1.6-2.913a.485.485,0,1,1,.85.468L28.738,18.25a.486.486,0,0,1-.376.248l-6.873.7Z" transform="translate(-7.875 -5.41)" fill="#fff"/>
      <path id="Path_3355" data-name="Path 3355" d="M26.181,27.377H.485a.485.485,0,1,1,0-.969h25.7a.485.485,0,1,1,0,.969" transform="translate(0 -9.924)" fill="#fff"/>
      <rect id="Rectangle_580" data-name="Rectangle 580" width="1.454" height="4.363" transform="translate(7.757)" fill="#fff"/>
      <rect id="Rectangle_581" data-name="Rectangle 581" width="4.363" height="1.454" transform="translate(6.303 1.454)" fill="#fff"/>
    </g>
  </g>
</svg>
