<svg xmlns="http://www.w3.org/2000/svg" xmlns:xlink="http://www.w3.org/1999/xlink" width="26.854" height="26.66" viewBox="0 0 26.854 26.66">
  <defs>
    <clipPath id="clip-path">
      <rect id="Rectangle_605" data-name="Rectangle 605" width="26.854" height="26.66" fill="#fff"/>
    </clipPath>
  </defs>
  <g id="Group_1996" data-name="Group 1996" transform="translate(0 0)">
    <g id="Group_1995" data-name="Group 1995" transform="translate(0 0)" clip-path="url(#clip-path)">
      <path id="Path_3420" data-name="Path 3420" d="M10.534,7.083A2.931,2.931,0,1,0,7.6,4.155a2.934,2.934,0,0,0,2.933,2.928m0-5.048a2.117,2.117,0,1,1-2.12,2.12,2.122,2.122,0,0,1,2.12-2.12" transform="translate(-2.198 -0.353)" fill="#fff"/>
      <path id="Path_3421" data-name="Path 3421" d="M31.736,3.217a3.218,3.218,0,1,0-3.217,3.211,3.221,3.221,0,0,0,3.217-3.211m-5.621,0a2.4,2.4,0,1,1,2.4,2.4,2.407,2.407,0,0,1-2.4-2.4" transform="translate(-7.316 0)" fill="#fff"/>
      <path id="Path_3422" data-name="Path 3422" d="M24.633,10.964H17.84a2.224,2.224,0,0,0-2.221,2.222v2.187H13.3v-1.59a2.475,2.475,0,0,0-2.473-2.473H5.851a2.476,2.476,0,0,0-2.474,2.473v1.59H1.314A1.316,1.316,0,0,0,0,16.687V29.424a.407.407,0,0,0,.814,0V16.687a.5.5,0,0,1,.5-.5h14.3v2.487a1.619,1.619,0,0,0,1.144,1.542v7.191A2.424,2.424,0,0,0,21.2,28.747a2.422,2.422,0,0,0,4.439-1.341l0-7.168a1.621,1.621,0,0,0,1.216-1.565V13.186a2.224,2.224,0,0,0-2.222-2.221ZM4.191,13.783a1.661,1.661,0,0,1,1.659-1.66h4.972a1.662,1.662,0,0,1,1.66,1.66v1.59H4.191Zm21.85,4.891a.809.809,0,0,1-1.618,0V13.586a.407.407,0,1,0-.814,0v5.087a1.621,1.621,0,0,0,1.216,1.565l0,7.168a1.61,1.61,0,0,1-3.219,0V22.6a.407.407,0,1,0-.813,0v4.8a1.61,1.61,0,0,1-3.221,0V20.26a1.624,1.624,0,0,0,1.287-1.587V13.586a.407.407,0,1,0-.813,0v5.087a.809.809,0,1,1-1.618,0V13.186a1.409,1.409,0,0,1,1.407-1.408h6.794a1.409,1.409,0,0,1,1.407,1.408Z" transform="translate(0 -3.17)" fill="#fff"/>
    </g>
  </g>
</svg>
