<svg xmlns="http://www.w3.org/2000/svg" xmlns:xlink="http://www.w3.org/1999/xlink" width="24.09" height="23.652" viewBox="0 0 24.09 23.652">
  <defs>
    <clipPath id="clip-path">
      <rect id="Rectangle_585" data-name="Rectangle 585" width="24.09" height="23.652" fill="#fff"/>
    </clipPath>
  </defs>
  <g id="Group_1968" data-name="Group 1968" transform="translate(0 0)">
    <g id="Group_1967" data-name="Group 1967" transform="translate(0 0)" clip-path="url(#clip-path)">
      <path id="Path_3356" data-name="Path 3356" d="M24.065,7c-.026-2.818-.1-5.536-.459-6.348a1.11,1.11,0,0,0-1.271-.62,1.471,1.471,0,0,0-.969.922,1.217,1.217,0,0,0-.581-.282A.943.943,0,0,0,20,.911a1.767,1.767,0,0,0-.49,1.274,1.189,1.189,0,0,0-.474-.2.965.965,0,0,0-.888.357,5.111,5.111,0,0,0-.446-.656c-2.05-2.6-4.9-1.1-5.663-.63C11.28.578,8.43-.92,6.359,1.682a5.046,5.046,0,0,0-.453.669,1,1,0,0,0-.1-.106A.944.944,0,0,0,5.025,2a1.174,1.174,0,0,0-.474.2A1.772,1.772,0,0,0,4.062.935h0A.935.935,0,0,0,3.28.692,1.224,1.224,0,0,0,2.7.973,1.47,1.47,0,0,0,1.751.052,1.109,1.109,0,0,0,.48.671C.12,1.484.06,4.2.021,7.02V7.9a22.882,22.882,0,0,0,.373,5.78,10.223,10.223,0,0,0,1.737,3.4,16.254,16.254,0,0,1,.972,1.55A31.058,31.058,0,0,1,4.734,23.4a.329.329,0,0,0,.315.245.409.409,0,0,0,.076,0l4.912-1.185a.321.321,0,0,0,.232-.417l-1-3.069A5.314,5.314,0,0,0,8.657,14.9a5.422,5.422,0,0,0-1.3-1.509l-.177-.153c-.029-.131-.06-.26-.1-.417h0a28.327,28.327,0,0,1-.8-5.031,15.468,15.468,0,0,0,5.624,5.4.319.319,0,0,0,.286,0A15.508,15.508,0,0,0,17.81,7.8h0a28.277,28.277,0,0,1-.8,5.007c-.039.148-.071.286-.1.417l-.177.153a5.411,5.411,0,0,0-1.3,1.509,5.315,5.315,0,0,0-.617,4.076l-1,3.061a.321.321,0,0,0,.232.417l4.914,1.175h0a.376.376,0,0,0,.391-.245,29.828,29.828,0,0,1,1.631-4.773,15.978,15.978,0,0,1,.971-1.524,10.359,10.359,0,0,0,1.738-3.4,23.4,23.4,0,0,0,.383-5.783C24.073,7.583,24.067,7.288,24.065,7Zm-5.544-.821c.045-.146.086-.292.12-.437a4.682,4.682,0,0,0-.107-2.6.687.687,0,0,1,.169-.417.317.317,0,0,1,.211-.1h.036c.222.031.453.32.521.424V3.4c-.016.631-.034,1.414-.11,2.345a.326.326,0,0,0,.649.052c.078-.943.1-1.738.112-2.379.024-1.081.039-1.795.315-2.029h0A.3.3,0,0,1,20.7,1.3a.888.888,0,0,1,.45.328,8.187,8.187,0,0,0-.12,2.386A11.331,11.331,0,0,1,20.7,6.837c-.06.289-.117.568-.159.821a1.317,1.317,0,0,0-.781.26c.024-.143.047-.286.068-.427a.325.325,0,0,0-.521-.32.322.322,0,0,0-.122.226c-.073.5-.164,1.011-.261,1.524a10.1,10.1,0,0,0-.875,2.157q0,.022,0,.044A27.458,27.458,0,0,0,18.521,6.178Zm-13.91-3.1c.071-.1.3-.394.521-.425h0a.288.288,0,0,1,.248.091.673.673,0,0,1,.167.4,4.72,4.72,0,0,0-.1,2.6c.034.146.075.292.119.437h0a27.373,27.373,0,0,0,.49,4.954.379.379,0,0,1-.013-.044,10.046,10.046,0,0,0-.857-2.139,29.54,29.54,0,0,1-.563-5.514V3.086ZM6.935,13.892A4.8,4.8,0,0,1,8.1,15.246a4.692,4.692,0,0,1,.521,3.647.333.333,0,0,0,0,.206l.925,2.816L5.283,22.931a28.472,28.472,0,0,0-1.6-4.6,16.741,16.741,0,0,0-1.014-1.61,9.913,9.913,0,0,1-1.641-3.191A22.537,22.537,0,0,1,.662,7.913V7.025c.013-1.446.047-5.288.4-6.09a.464.464,0,0,1,.521-.26c.482.119.985,1.062.829,3.321,0,.133-.014.26-.014.4a.326.326,0,0,0,.651,0V4.042a8.187,8.187,0,0,0-.12-2.386.883.883,0,0,1,.451-.328.288.288,0,0,1,.248.091c.276.235.292.951.315,2.029a31.164,31.164,0,0,0,.388,4.5,1.3,1.3,0,0,0-.781-.26c-.042-.261-.1-.521-.156-.824-.049-.245-.1-.5-.148-.765h0a.326.326,0,0,0-.641.115c.05.26.1.521.151.781.063.307.123.6.162.854a1.929,1.929,0,0,0-.219.128c-.93.641-.016,4.085.657,5.145h0a.326.326,0,0,0,.55-.346c-.718-1.128-1.2-3.978-.836-4.262a1.081,1.081,0,0,1,.3-.146c.409-.12,1.216.1,2.042,2.907a4.343,4.343,0,0,0,1.526,2.613Zm5.108-1.355c-1.587-.844-5.254-3.8-5.962-6.929A3.983,3.983,0,0,1,6.862,2.1,3.023,3.023,0,0,1,9.308.846,4.763,4.763,0,0,1,11.85,1.7a.328.328,0,0,0,.386,0c.12-.088,2.978-2.138,4.984.383A3.986,3.986,0,0,1,18,5.592c-.7,3.142-4.371,6.1-5.958,6.945Zm11.019.972A10.01,10.01,0,0,1,21.421,16.7a16.648,16.648,0,0,0-1.011,1.61,28.506,28.506,0,0,0-1.6,4.6l-4.262-1.016.922-2.831a.325.325,0,0,0,0-.2,4.9,4.9,0,0,1,1.688-4.988,4.307,4.307,0,0,0,1.526-2.6c.818-2.793,1.62-3.029,2.035-2.915A1.039,1.039,0,0,1,21,8.489a4.119,4.119,0,0,1-.2,2.753.326.326,0,1,0,.615.216c.466-1.321.565-3.084-.039-3.5a1.952,1.952,0,0,0-.219-.131c.039-.26.1-.544.162-.85a11.771,11.771,0,0,0,.336-3c-.146-2.256.357-3.2.839-3.321a.461.461,0,0,1,.521.26c.355.8.388,4.644.4,6.091V7.9A22.231,22.231,0,0,1,23.062,13.509Z" transform="translate(0 0)" fill="#fff"/>
    </g>
  </g>
</svg>
