<svg xmlns="http://www.w3.org/2000/svg" xmlns:xlink="http://www.w3.org/1999/xlink" width="23.536" height="28.999" viewBox="0 0 23.536 28.999">
  <defs>
    <clipPath id="clip-path">
      <rect id="Rectangle_587" data-name="Rectangle 587" width="23.536" height="28.999" fill="#fff"/>
    </clipPath>
  </defs>
  <g id="Group_1969" data-name="Group 1969" transform="translate(0 0)">
    <g id="Group_1970" data-name="Group 1970" transform="translate(0 0)" clip-path="url(#clip-path)">
      <path id="Path_3357" data-name="Path 3357" d="M12.681,4.4l1.986.289.888,1.8h0a.353.353,0,0,0,.634,0l.889-1.8L19.065,4.4a.354.354,0,0,0,.2-.6l-1.438-1.4.34-1.979A.354.354,0,0,0,17.65.041L15.873.975,14.1.041a.353.353,0,0,0-.513.372l.339,1.979-1.438,1.4a.354.354,0,0,0,.2.6Zm1.868-1.628a.352.352,0,0,0,.1-.313L14.4,1l1.307.688a.353.353,0,0,0,.329,0L17.345,1,17.1,2.456a.352.352,0,0,0,.1.313L18.254,3.8l-1.462.213a.353.353,0,0,0-.266.193L15.873,5.53l-.654-1.324a.353.353,0,0,0-.266-.194L13.491,3.8Z" transform="translate(-4.104 0)" fill="#fff"/>
      <path id="Path_3358" data-name="Path 3358" d="M.3,9.152l1.986.289.889,1.8a.353.353,0,0,0,.634,0L4.7,9.44l1.987-.289a.353.353,0,0,0,.2-.6l-1.437-1.4.339-1.978h0A.353.353,0,0,0,5.272,4.8L3.5,5.731,1.719,4.8a.353.353,0,0,0-.513.372l.34,1.978L.107,8.549a.354.354,0,0,0,.2.6ZM2.172,7.524h0a.351.351,0,0,0,.1-.313L2.024,5.756l1.307.687a.353.353,0,0,0,.329,0l1.307-.687L4.718,7.212a.349.349,0,0,0,.1.312L5.877,8.556l-1.462.211a.353.353,0,0,0-.266.194L3.5,10.285,2.842,8.962a.353.353,0,0,0-.266-.194L1.114,8.556Z" transform="translate(0 -1.577)" fill="#fff"/>
      <path id="Path_3359" data-name="Path 3359" d="M25.058,9.152l1.986.289.889,1.8a.353.353,0,0,0,.634,0l.889-1.8,1.986-.289a.349.349,0,0,0,.285-.241.353.353,0,0,0-.089-.362L30.2,7.147l.34-1.978h0a.353.353,0,0,0-.513-.372l-1.777.934L26.473,4.8a.353.353,0,0,0-.513.372l.34,1.978-1.438,1.4a.355.355,0,0,0-.09.362.351.351,0,0,0,.285.241Zm1.868-1.628h0a.351.351,0,0,0,.1-.313l-.249-1.456,1.307.687a.349.349,0,0,0,.329,0l1.307-.686-.249,1.456a.349.349,0,0,0,.1.312l1.057,1.032-1.462.211a.353.353,0,0,0-.266.194l-.654,1.323L27.6,8.962a.353.353,0,0,0-.266-.194l-1.462-.211Z" transform="translate(-8.209 -1.577)" fill="#fff"/>
      <path id="Path_3360" data-name="Path 3360" d="M9.291,17.254a2.311,2.311,0,0,0,0-4.621h0a2.311,2.311,0,1,0,0,4.621ZM7.682,14.945a1.6,1.6,0,0,1,1.605-1.6h0a1.6,1.6,0,1,1,0,3.206h0a1.607,1.607,0,0,1-1.606-1.6Z" transform="translate(-2.314 -4.189)" fill="#fff"/>
      <path id="Path_3361" data-name="Path 3361" d="M20.335,35.627l.413-7.367h1.06a.353.353,0,0,0,.354-.354V25.227a2.969,2.969,0,0,0-2.968-2.96H16.6a2.974,2.974,0,0,0-1.728.56,1.8,1.8,0,0,0-1.623-1.018h0a1.792,1.792,0,0,0-1.184.444,2.968,2.968,0,0,0-2.424-1.261h0L7.045,21A2.971,2.971,0,0,0,4.08,23.96v3.315a.354.354,0,0,0,.354.354H5.494l.443,8a.354.354,0,0,0,.354.334h4.138a.353.353,0,0,0,.353-.336l.225-4.36h.4l.424,4.376a.354.354,0,0,0,.352.319h2.156a.353.353,0,0,0,.352-.322l.4-4.378h.129l.271,4.369a.355.355,0,0,0,.353.332h4.139A.353.353,0,0,0,20.335,35.627Zm-7.088-13.11h0a1.092,1.092,0,1,1,0,2.184h0a1.092,1.092,0,1,1,0-2.184Zm1.519,8.037h0a.354.354,0,0,0-.352.321l-.4,4.378H12.507l-.424-4.377a.354.354,0,0,0-.352-.319H10.708V29.07a2.233,2.233,0,0,1,2.226-2.224l.628,0h0a2.227,2.227,0,0,1,2.226,2.221v1.489Zm1.41,4.7-.249-3.993h.217a.354.354,0,0,0,.354-.354V29.065a2.936,2.936,0,0,0-2.936-2.928h0l-.628,0A2.939,2.939,0,0,0,10,29.071v1.843a.353.353,0,0,0,.3.348l-.205,3.992H6.625l-.442-8a.355.355,0,0,0-.354-.334H4.788V23.96A2.266,2.266,0,0,1,7.046,21.7l2.592,0h0a2.265,2.265,0,0,1,1.871,1c.035.053.068.107.1.162a1.8,1.8,0,0,0,1.638,2.55h0a1.8,1.8,0,0,0,1.8-1.8V23.6c.045-.042.091-.084.139-.122a2.232,2.232,0,0,1,1.412-.5l2.591,0h0a2.26,2.26,0,0,1,2.259,2.254v2.325H20.413a.353.353,0,0,0-.352.334l-.413,7.366Z" transform="translate(-1.353 -6.962)" fill="#fff"/>
      <path id="Path_3362" data-name="Path 3362" d="M21.268,16.851a2.314,2.314,0,0,0,2.314,2.309h0a2.31,2.31,0,0,0,2.075-1.29h.308a1.373,1.373,0,0,0,0-2.745h-.848a2.307,2.307,0,0,0-1.537-.586h0a2.312,2.312,0,0,0-2.312,2.312Zm5.364-.354a.666.666,0,0,1-.666.665h-.092a2.365,2.365,0,0,0,.021-.315,2.289,2.289,0,0,0-.238-1.016h.308a.666.666,0,0,1,.665.666Zm-4.187-.781a1.6,1.6,0,0,1,1.136-.471h0a1.6,1.6,0,0,1,1.238.583v0h0a1.6,1.6,0,0,1-1.239,2.621h0a1.6,1.6,0,0,1-1.137-2.736Z" transform="translate(-7.053 -4.822)" fill="#fff"/>
    </g>
  </g>
</svg>
