<svg xmlns="http://www.w3.org/2000/svg" xmlns:xlink="http://www.w3.org/1999/xlink" width="18.125" height="27.533" viewBox="0 0 18.125 27.533">
  <defs>
    <clipPath id="clip-path">
      <rect id="Rectangle_589" data-name="Rectangle 589" width="18.125" height="27.533" fill="#fff"/>
    </clipPath>
  </defs>
  <g id="Group_1973" data-name="Group 1973" transform="translate(0 0)">
    <g id="Group_1972" data-name="Group 1972" transform="translate(0 0)" clip-path="url(#clip-path)">
      <path id="Path_3363" data-name="Path 3363" d="M23.193,6.8a3.405,3.405,0,1,1,2.4-1A3.4,3.4,0,0,1,23.193,6.8Zm0-5.851a2.454,2.454,0,1,0,1.732.719A2.449,2.449,0,0,0,23.193.95Z" transform="translate(-8.468 0)" fill="#fff"/>
      <path id="Path_3364" data-name="Path 3364" d="M3.03,30.3A2.306,2.306,0,0,1,.736,28.137L.088,17.458a5.852,5.852,0,0,1,.533-3.636,29.455,29.455,0,0,1,2.59-3.77A10.887,10.887,0,0,1,7.295,6.686,3.047,3.047,0,0,1,11.23,8.374l2.1,5.2L16.977,14.6a1.57,1.57,0,0,1-.425,3.083,1.149,1.149,0,0,1-.16-.013l-4.73-.567A1.934,1.934,0,0,1,10.1,15.913L8.861,12.86a20.567,20.567,0,0,0-2.842,3.772l-.7,11.505h0A2.3,2.3,0,0,1,3.03,30.3ZM8.408,7.423a2.078,2.078,0,0,0-.764.146,10.028,10.028,0,0,0-3.7,3.086A28.48,28.48,0,0,0,1.438,14.3a4.978,4.978,0,0,0-.4,3.085L1.68,28.023a1.369,1.369,0,0,0,1.349,1.33A1.354,1.354,0,0,0,4.375,28.08l.7-11.621a.471.471,0,0,1,.066-.214,17.751,17.751,0,0,1,3.635-4.56.475.475,0,0,1,.715.209l1.482,3.663a.986.986,0,0,0,.8.605l4.7.564a.613.613,0,0,0,.7-.614.624.624,0,0,0-.456-.6l-3.867-1.089h0a.475.475,0,0,1-.311-.279L10.35,8.73A2.1,2.1,0,0,0,8.408,7.423Z" transform="translate(0 -2.77)" fill="#fff"/>
      <path id="Path_3365" data-name="Path 3365" d="M27.623,38.181a.475.475,0,0,1-.475-.475V27.283a1.444,1.444,0,0,0-2.887,0,.475.475,0,1,1-.949,0,2.393,2.393,0,0,1,4.786,0V37.706a.475.475,0,0,1-.475.475" transform="translate(-9.973 -10.648)" fill="#fff"/>
    </g>
  </g>
</svg>
