<svg xmlns="http://www.w3.org/2000/svg" xmlns:xlink="http://www.w3.org/1999/xlink" width="22.819" height="27.047" viewBox="0 0 22.819 27.047">
  <defs>
    <clipPath id="clip-path">
      <rect id="Rectangle_591" data-name="Rectangle 591" width="22.819" height="27.047" fill="#fff"/>
    </clipPath>
  </defs>
  <g id="Group_1976" data-name="Group 1976" transform="translate(0 0)">
    <g id="Group_1975" data-name="Group 1975" transform="translate(0 0)" clip-path="url(#clip-path)">
      <path id="Path_3366" data-name="Path 3366" d="M19.86,27.046H8.028a.422.422,0,0,1-.422-.423v-1.69a.422.422,0,1,1,.845,0V26.2H19.384l-1.009-8.458a.421.421,0,0,1,.154-.378A9.3,9.3,0,1,0,3.38,10.143v1.268a.416.416,0,0,1-.056.211L.878,15.89a.423.423,0,0,0,.389.591H2.535a.422.422,0,0,1,.423.423v2.113a.423.423,0,0,1-.845,0v-1.69H1.267A1.268,1.268,0,0,1,.133,15.493l2.4-4.194V10.143a10.142,10.142,0,1,1,16.706,7.728l1.039,8.7a.423.423,0,0,1-.42.473Z" transform="translate(0 0)" fill="#fff"/>
      <path id="Path_3367" data-name="Path 3367" d="M11.578,16.655a.423.423,0,0,1-.338-.166,6.7,6.7,0,0,1-1.388-4.1,6.769,6.769,0,0,1,6.761-6.761,6.7,6.7,0,0,1,4.1,1.391.423.423,0,1,1-.513.672,5.854,5.854,0,0,0-3.583-1.217A5.921,5.921,0,0,0,10.7,12.393a5.862,5.862,0,0,0,1.217,3.583.422.422,0,0,1-.335.679Z" transform="translate(-3.936 -2.25)" fill="#fff"/>
      <path id="Path_3368" data-name="Path 3368" d="M18.275,20.815a6.7,6.7,0,0,1-4.1-1.391.423.423,0,0,1,.513-.672,5.856,5.856,0,0,0,3.583,1.218,5.923,5.923,0,0,0,5.916-5.916,5.86,5.86,0,0,0-1.217-3.583.423.423,0,1,1,.673-.512,6.7,6.7,0,0,1,1.39,4.1,6.77,6.77,0,0,1-6.761,6.761Z" transform="translate(-5.598 -3.91)" fill="#fff"/>
      <path id="Path_3369" data-name="Path 3369" d="M22.613,15a3.305,3.305,0,0,0-1.248-1.176,3.292,3.292,0,0,0,.049-1.719.423.423,0,0,0-.3-.293A3.209,3.209,0,0,0,20.1,11.73a.424.424,0,1,0,.061.845,2.589,2.589,0,0,1,.482.01,2.075,2.075,0,0,1-.534,1.728,1.869,1.869,0,0,1-1.033.518,2.718,2.718,0,0,0,.634-1.737,3.02,3.02,0,0,0-1.483-2.481.424.424,0,0,0-.414,0,3.286,3.286,0,0,0-1.18,1.25,3.287,3.287,0,0,0-1.714-.049.422.422,0,0,0-.293.292,3.017,3.017,0,0,0,.706,2.8,2.715,2.715,0,0,0,1.675.778,1.867,1.867,0,0,1-1.1.366,2.071,2.071,0,0,1-1.6-.845c.042-.053.094-.115.155-.178a.423.423,0,0,0-.613-.582,3.052,3.052,0,0,0-.422.549.422.422,0,0,0,0,.415,3.019,3.019,0,0,0,2.48,1.486,2.839,2.839,0,0,0,2.113-.99,2.841,2.841,0,0,0,2.113.99,3.02,3.02,0,0,0,2.481-1.483A.421.421,0,0,0,22.613,15Zm-4.594-3.506a2.072,2.072,0,0,1,.845,1.6,2.071,2.071,0,0,1-.845,1.6,2.069,2.069,0,0,1-.845-1.6,2.071,2.071,0,0,1,.845-1.6m-2.091,2.818a2.068,2.068,0,0,1-.535-1.726,2.459,2.459,0,0,1,.972.084,2.587,2.587,0,0,0-.035.425,2.717,2.717,0,0,0,.634,1.737A1.862,1.862,0,0,1,15.928,14.311Zm4.2,1.741a1.863,1.863,0,0,1-1.1-.366,2.709,2.709,0,0,0,1.674-.778,2.654,2.654,0,0,0,.275-.327,2.447,2.447,0,0,1,.748.628A2.069,2.069,0,0,1,20.132,16.052Z" transform="translate(-5.342 -4.218)" fill="#fff"/>
    </g>
  </g>
</svg>
