<svg xmlns="http://www.w3.org/2000/svg" xmlns:xlink="http://www.w3.org/1999/xlink" width="20.138" height="23.812" viewBox="0 0 20.138 23.812">
  <defs>
    <clipPath id="clip-path">
      <rect id="Rectangle_593" data-name="Rectangle 593" width="20.138" height="23.812" fill="#fff"/>
    </clipPath>
  </defs>
  <g id="Group_1977" data-name="Group 1977" transform="translate(0 0)">
    <g id="Group_1978" data-name="Group 1978" transform="translate(0 0)" clip-path="url(#clip-path)">
      <path id="Path_3370" data-name="Path 3370" d="M9.368,0c-.252,0-.5.006-.752.023a9.218,9.218,0,0,0-7.349,4.59A9.082,9.082,0,0,0,2.732,15.75a2.622,2.622,0,0,1,.888,1.875,12.151,12.151,0,0,1-.266,2.369,1.733,1.733,0,0,0,.238,1.191,3.126,3.126,0,0,0,1.024.954,12.18,12.18,0,0,0,7.224,1.6A1.885,1.885,0,0,0,13.5,22.076a2.94,2.94,0,0,1,.281-1.041c.122-.172.283-.273.835-.264a4.607,4.607,0,0,0,1.71-.134A1.814,1.814,0,0,0,17.409,19c.042-.393-.033-.357.233-.7.422-.541.6-.905.351-1.5a.81.81,0,0,0,.524-1.146l-.323-1.026,1.261-.47a1.054,1.054,0,0,0,.666-.8,1.2,1.2,0,0,0-.263-.961,10.444,10.444,0,0,1-1.731-2.175,1.118,1.118,0,0,1-.082-.963,4.322,4.322,0,0,0,.281-1.421,7.176,7.176,0,0,0-2.182-4.787A11.377,11.377,0,0,0,11.682.329,10.742,10.742,0,0,0,9.367,0Zm-.42.806V4.082a.882.882,0,0,0,.609.851.9.9,0,0,0,.935-.287.915.915,0,0,1,.995-.312c.32.11.594.4.594,1.046s-.275.937-.594,1.047a.915.915,0,0,1-.995-.312.9.9,0,0,0-.935-.284.878.878,0,0,0-.609.848v2.74H6.928c-.174,0-.191-.049-.213-.129a.252.252,0,0,1,.072-.245A1.584,1.584,0,0,0,7.3,7.324,1.677,1.677,0,0,0,5.629,6.284,1.672,1.672,0,0,0,3.959,7.324a1.584,1.584,0,0,0,.517,1.718.253.253,0,0,1,.072.245c-.023.08-.041.129-.214.129H.794A8.574,8.574,0,0,1,1.955,5.01,8.42,8.42,0,0,1,8.67.815C8.763.809,8.856.811,8.948.807Zm.662,0a10.1,10.1,0,0,1,2.022.327A8.571,8.571,0,0,1,15.554,3.6a6.406,6.406,0,0,1,1.979,4.252,3.6,3.6,0,0,1-.251,1.2,2.2,2.2,0,0,0-.07.364H14.174a.879.879,0,0,0-.847.612.891.891,0,0,0,.284.932.914.914,0,0,1,.312.995c-.11.32-.4.6-1.046.6s-.937-.277-1.047-.6a.915.915,0,0,1,.313-.995.894.894,0,0,0,.287-.932.884.884,0,0,0-.85-.612H9.609V6.676c0-.174.05-.189.129-.211a.253.253,0,0,1,.245.072,1.584,1.584,0,0,0,1.718.517,1.677,1.677,0,0,0,1.041-1.674A1.672,1.672,0,0,0,11.7,3.708a1.583,1.583,0,0,0-1.718.514.253.253,0,0,1-.245.073c-.079-.023-.129-.038-.129-.212V.808ZM5.629,6.944c.647,0,.94.274,1.049.594a.917.917,0,0,1-.315.995.892.892,0,0,0-.284.933.882.882,0,0,0,.85.611h2.02v2.994c0,.174-.052.189-.132.211a.253.253,0,0,1-.245-.072A1.578,1.578,0,0,0,6.856,12.7a1.674,1.674,0,0,0-1.043,1.671,1.675,1.675,0,0,0,1.043,1.672,1.577,1.577,0,0,0,1.715-.515.253.253,0,0,1,.245-.071c.08.022.132.037.132.211l0,7.164a11.427,11.427,0,0,1-3.907-1.362,2.4,2.4,0,0,1-.772-.7.868.868,0,0,1-.129-.651,12.058,12.058,0,0,0,.274-2.539,3.528,3.528,0,0,0-1.123-2.4,8.177,8.177,0,0,1-2.457-5.1h3.5a.882.882,0,0,0,.85-.612A.892.892,0,0,0,4.9,8.533a.916.916,0,0,1-.315-.995c.109-.319.4-.593,1.045-.593ZM9.61,10.077h1.97c.174,0,.189.049.212.129a.251.251,0,0,1-.07.245,1.584,1.584,0,0,0-.517,1.718,1.674,1.674,0,0,0,1.671,1.043,1.677,1.677,0,0,0,1.674-1.043,1.584,1.584,0,0,0-.517-1.718.254.254,0,0,1-.072-.245c.023-.08.038-.129.212-.129h3.07a2.515,2.515,0,0,0,.154.478,10.889,10.889,0,0,0,1.845,2.361c.189.245.113.442-.067.509L17.9,13.9a.8.8,0,0,0-.372.243.761.761,0,0,0-.111.682l.341,1.08c.052.164-.021.287-.225.3a.4.4,0,0,0-.344.6c.287.454.048.724-.178,1.02a1.847,1.847,0,0,0-.393,1.1c-.074.695-.261.86-.571.974a4.736,4.736,0,0,1-1.421.086,1.7,1.7,0,0,0-1.493.6,3.076,3.076,0,0,0-.421,1.378,1.082,1.082,0,0,1-.977,1,8.856,8.856,0,0,1-2.132-.024l0-7.265A.879.879,0,0,0,9,14.817a.893.893,0,0,0-.933.284.914.914,0,0,1-.995.312c-.32-.11-.6-.4-.6-1.046s.276-.937.6-1.047a.915.915,0,0,1,.995.313A.894.894,0,0,0,9,13.92a.883.883,0,0,0,.612-.85V10.077Z" transform="translate(0 0)" fill="#fff" fill-rule="evenodd"/>
    </g>
  </g>
</svg>
