<svg xmlns="http://www.w3.org/2000/svg" xmlns:xlink="http://www.w3.org/1999/xlink" width="28.293" height="26.312" viewBox="0 0 28.293 26.312">
  <defs>
    <clipPath id="clip-path">
      <rect id="Rectangle_595" data-name="Rectangle 595" width="28.293" height="26.312" fill="#fff"/>
    </clipPath>
  </defs>
  <g id="Group_1981" data-name="Group 1981" transform="translate(0 0)">
    <g id="Group_1980" data-name="Group 1980" transform="translate(0 0)" clip-path="url(#clip-path)">
      <path id="Path_3371" data-name="Path 3371" d="M21.454,14.995a.936.936,0,0,0-.505-.943c-.651-.37-2.046.2-3.949,1.047-.471.208-.918.407-1.095.456a12.187,12.187,0,0,1-3.242-.373,10.325,10.325,0,0,1-1.643-.82,5.6,5.6,0,0,0,1.407-.612q.737.431,1.548.838a.363.363,0,0,0,.343,0c5.417-2.729,8.544-6.271,8.58-9.721a4.711,4.711,0,0,0-2.4-4.282A4.282,4.282,0,0,0,17.059.194,5.772,5.772,0,0,0,14.147,2.64,5.9,5.9,0,0,0,11.235.209,4.282,4.282,0,0,0,7.8.6,4.714,4.714,0,0,0,5.4,4.879C5.42,7.073,6.69,9.3,9,11.324c-.138,0-.276.019-.413.019a3.862,3.862,0,0,0-3.059,1.422,4.191,4.191,0,0,1-1.047.853,4.965,4.965,0,0,1-1.8.612.3.3,0,0,0-.076,0H.383A.383.383,0,0,0,0,14.612v5.249a.383.383,0,0,0,.383.382h2.33c.073,0,7.158-.59,8.512-.651a23.012,23.012,0,0,0,5.35-.679c1.871-.624,4.744-2.545,4.878-3.918ZM6.16,4.874A3.94,3.94,0,0,1,10.02.766a3.184,3.184,0,0,1,.972.153A5.666,5.666,0,0,1,13.8,3.552a.382.382,0,0,0,.685,0A5.6,5.6,0,0,1,17.3.919h0a3.549,3.549,0,0,1,2.833.355,3.953,3.953,0,0,1,2,3.6c0,1.477-.829,5.294-7.986,8.956-.37-.187-.719-.376-1.055-.566a3.134,3.134,0,0,0,.816-1.224,1.731,1.731,0,0,0-.11-1.612c-.343-.382-.939-.171-1.924.177a16.117,16.117,0,0,1-1.89.575C6.644,8.458,6.173,6,6.161,4.877ZM16.333,18.185a22.348,22.348,0,0,1-5.142.639c-1.352.062-8.06.612-8.525.655H.764V14.995H2.683a.35.35,0,0,0,.1,0A6,6,0,0,0,4.824,14.3a4.846,4.846,0,0,0,1.242-.985,3.162,3.162,0,0,1,2.521-1.2,10.8,10.8,0,0,0,3.542-.792,6.751,6.751,0,0,1,1.123-.34,1.491,1.491,0,0,1-.111.918c-.233.551-.942,1.529-3.108,1.9a.386.386,0,0,0-.187.667,9.493,9.493,0,0,0,2.536,1.444,12.011,12.011,0,0,0,3.717.4,10.536,10.536,0,0,0,1.223-.5c.783-.348,2.866-1.275,3.258-1.08.125.073.131.131.125.2-.086.84-2.49,2.64-4.362,3.264Z" transform="translate(0 0)" fill="#fff"/>
      <path id="Path_3372" data-name="Path 3372" d="M34.7,31.941H33.048a3.534,3.534,0,0,1-1.257-.432,2.9,2.9,0,0,1-.725-.59,2.922,2.922,0,0,0-2.285-1.058,7.322,7.322,0,0,1-2.34-.538c-.728-.257-1.223-.428-1.5-.1a1.335,1.335,0,0,0-.1,1.273,2.759,2.759,0,0,0,1.924,1.673,7.206,7.206,0,0,1-.961.462,8.718,8.718,0,0,1-2.276.267c-.122-.034-.456-.181-.777-.324-1.4-.612-2.432-1.04-2.945-.746a.779.779,0,0,0-.4.78c.1,1.03,2.217,2.447,3.591,2.915a16.7,16.7,0,0,0,3.89.493c.961.046,6.069.465,6.121.465H34.7a.382.382,0,0,0,.382-.382V32.323a.382.382,0,0,0-.382-.382Zm-.382,3.78h-1.26c-.373-.031-5.178-.428-6.151-.474a15.277,15.277,0,0,1-3.671-.453c-1.584-.529-3.147-1.933-3.058-2.279l.021-.021a7.651,7.651,0,0,1,2.27.777,8.008,8.008,0,0,0,.893.364,8.379,8.379,0,0,0,2.753-.306,6.861,6.861,0,0,0,1.857-1.049.383.383,0,0,0-.187-.667,2.716,2.716,0,0,1-2.122-1.223,1.18,1.18,0,0,1-.135-.581,7.218,7.218,0,0,1,.694.223,8,8,0,0,0,2.591.575,2.154,2.154,0,0,1,1.743.835,3.567,3.567,0,0,0,.918.734,4.471,4.471,0,0,0,1.5.505.365.365,0,0,0,.092,0h1.278Z" transform="translate(-6.79 -10.164)" fill="#fff"/>
    </g>
  </g>
</svg>
