<svg xmlns="http://www.w3.org/2000/svg" xmlns:xlink="http://www.w3.org/1999/xlink" width="23.546" height="29.608" viewBox="0 0 23.546 29.608">
  <defs>
    <clipPath id="clip-path">
      <rect id="Rectangle_597" data-name="Rectangle 597" width="23.546" height="29.608" fill="#fff"/>
    </clipPath>
  </defs>
  <g id="Group_1984" data-name="Group 1984" transform="translate(0 0)">
    <g id="Group_1983" data-name="Group 1983" transform="translate(0 0)" clip-path="url(#clip-path)">
      <path id="Path_3373" data-name="Path 3373" d="M11.022,39.232H4.933L.375,34.59a1.4,1.4,0,0,1-.37-1.034l.6-5.063a1.035,1.035,0,0,1,.859-.843,1.43,1.43,0,0,1,.229-.016A1.7,1.7,0,0,1,3.4,29.38L3.3,32.513a.289.289,0,0,0,.124.132l1.121.5c-.611-.819-.812-1.442-.626-1.911a1.041,1.041,0,0,1,.946-.611,1.909,1.909,0,0,1,1.071.345l4.069,3.142a1.519,1.519,0,0,1,.546.944Zm-5.711-.9h4.708l-.355-3.188a.645.645,0,0,0-.2-.328L5.393,31.673a1.054,1.054,0,0,0-.5-.156.252.252,0,0,0-.132.044s-.111.318.753,1.354a12.389,12.389,0,0,1,.426,1.734L3.066,33.466a1.111,1.111,0,0,1-.66-.98L2.5,29.409c-.056-.562-.33-.877-.811-.877-.135.014-.19.061-.2.084L.9,33.659a.533.533,0,0,0,.119.3Z" transform="translate(0 -9.624)" fill="#fff"/>
      <path id="Path_3374" data-name="Path 3374" d="M19.682,35.049a1.52,1.52,0,0,1,.546-.944L24.3,30.963a1.913,1.913,0,0,1,1.072-.345,1.041,1.041,0,0,1,.946.611c.186.469-.015,1.093-.626,1.911l1.12-.5a.286.286,0,0,0,.125-.132l-.093-3.133a1.7,1.7,0,0,1,1.706-1.746,1.43,1.43,0,0,1,.229.016,1.036,1.036,0,0,1,.858.843l.6,5.063a1.4,1.4,0,0,1-.37,1.034l-4.557,4.643H19.219Zm9.541-1.086a.536.536,0,0,0,.119-.3l-.591-5.043c-.011-.022-.065-.07-.2-.084-.482,0-.755.313-.812.876l.095,3.078a1.114,1.114,0,0,1-.66.98L24.3,34.648a12.338,12.338,0,0,1,.427-1.734c.863-1.035.753-1.35.752-1.354a.258.258,0,0,0-.132-.043,1.061,1.061,0,0,0-.5.156l-4.067,3.145a.65.65,0,0,0-.2.328l-.355,3.188h4.708Z" transform="translate(-6.693 -9.624)" fill="#fff"/>
      <path id="Path_3375" data-name="Path 3375" d="M16.176,7.066a3.533,3.533,0,1,1,3.534-3.532,3.537,3.537,0,0,1-3.534,3.532m0-6.169a2.637,2.637,0,1,0,2.637,2.637A2.64,2.64,0,0,0,16.176.9" transform="translate(-4.403 0)" fill="#fff"/>
      <path id="Path_3376" data-name="Path 3376" d="M17.83,23.882a2.169,2.169,0,0,1-1.947-1.229l-1.921-2.582-1.97,2.656a2.2,2.2,0,0,1-2.825.944A2.155,2.155,0,0,1,8.147,20.8c.058-.126,1.484-3.224,1.661-3.578a8.685,8.685,0,0,0-.461-3.31C8.991,13.609,7,11.8,7,11.8a1.927,1.927,0,0,1-.3-2.693A1.978,1.978,0,0,1,9.409,8.78a10.812,10.812,0,0,0,4.552,1.464,10.78,10.78,0,0,0,4.6-1.494,1.855,1.855,0,0,1,1.15-.383,1.934,1.934,0,0,1,1.2,3.453s-1.976,1.792-2.335,2.1a8.629,8.629,0,0,0-.439,3.338c.163.318,1.589,3.417,1.648,3.549a2.153,2.153,0,0,1-1.946,3.073ZM13.96,18.567l2.689,3.626a1.318,1.318,0,0,0,1.18.791,1.257,1.257,0,0,0,1.134-1.8c-.018-.038-1.484-3.222-1.653-3.563-.25-.5-.018-3.79.671-4.382.358-.312,2.342-2.108,2.342-2.108a1.036,1.036,0,1,0-1.256-1.649,11.481,11.481,0,0,1-5.107,1.655A11.513,11.513,0,0,1,8.9,9.515a1.037,1.037,0,1,0-1.322,1.6c.025.022,2.006,1.818,2.368,2.131.686.592.918,3.883.669,4.381-.17.34-1.636,3.525-1.65,3.558a1.253,1.253,0,0,0,.592,1.679,1.287,1.287,0,0,0,1.676-.594Z" transform="translate(-2.187 -2.914)" fill="#fff"/>
      <path id="Path_3377" data-name="Path 3377" d="M16.384,19.276l-.155-.058c-.11-.041-2.7-1.014-2.96-2.865a2.2,2.2,0,0,1,.448-1.781,1.869,1.869,0,0,1,2.673-.029,1.873,1.873,0,0,1,2.668.02,2.2,2.2,0,0,1,.441,1.791c-.267,1.851-2.85,2.823-2.958,2.864Zm-1.352-4.405a.837.837,0,0,0-.639.289,1.332,1.332,0,0,0-.235,1.067c.145,1.013,1.534,1.8,2.226,2.088.69-.291,2.08-1.075,2.224-2.088a1.333,1.333,0,0,0-.229-1.075c-.4-.455-1.18-.315-1.624.343l-.381.564-.367-.575A1.2,1.2,0,0,0,15.032,14.871Z" transform="translate(-4.611 -4.874)" fill="#fff"/>
    </g>
  </g>
</svg>
