<svg xmlns="http://www.w3.org/2000/svg" xmlns:xlink="http://www.w3.org/1999/xlink" width="35.774" height="25.026" viewBox="0 0 35.774 25.026">
  <defs>
    <clipPath id="clip-path">
      <rect id="Rectangle_599" data-name="Rectangle 599" width="35.774" height="25.026" fill="#fff" stroke="#fff" stroke-width="0.3"/>
    </clipPath>
  </defs>
  <g id="Group_1987" data-name="Group 1987" transform="translate(0 0)">
    <g id="Group_1986" data-name="Group 1986" transform="translate(0 0)" clip-path="url(#clip-path)">
      <path id="Path_3378" data-name="Path 3378" d="M31.8.375a13.6,13.6,0,0,0-12,7.311.276.276,0,0,0,.115.373.269.269,0,0,0,.129.032.276.276,0,0,0,.244-.146A12.938,12.938,0,0,1,41.871,5.758a.271.271,0,0,0,.214.1V5.162A13.484,13.484,0,0,0,31.8.375Z" transform="translate(-6.561 -0.125)" fill="#fff" stroke="#fff" stroke-width="0.3"/>
      <path id="Path_3379" data-name="Path 3379" d="M31.8.375a13.6,13.6,0,0,0-12,7.311.276.276,0,0,0,.115.373.269.269,0,0,0,.129.032.276.276,0,0,0,.244-.146A12.938,12.938,0,0,1,41.871,5.758a.271.271,0,0,0,.214.1V5.162A13.484,13.484,0,0,0,31.8.375Z" transform="translate(-6.561 -0.125)" fill="#fff" stroke="#fff" stroke-miterlimit="10" stroke-width="0.3"/>
      <path id="Path_3380" data-name="Path 3380" d="M28.106,14.039c.1-.148.2-.293.311-.431a.276.276,0,1,0-.435-.339c-.116.149-.228.3-.334.462a.276.276,0,0,0,.458.307Z" transform="translate(-9.163 -4.37)" fill="#fff" stroke="#fff" stroke-width="0.3"/>
      <path id="Path_3381" data-name="Path 3381" d="M28.106,14.039c.1-.148.2-.293.311-.431a.276.276,0,1,0-.435-.339c-.116.149-.228.3-.334.462a.276.276,0,0,0,.458.307Z" transform="translate(-9.163 -4.37)" fill="#fff" stroke="#fff" stroke-miterlimit="10" stroke-width="0.3"/>
      <path id="Path_3382" data-name="Path 3382" d="M40.538,9.584a.283.283,0,0,0,.084.013.276.276,0,0,0,.083-.538A8.04,8.04,0,0,0,39.642,8.8a.276.276,0,0,0-.094.543A7.5,7.5,0,0,1,40.538,9.584Z" transform="translate(-13.053 -2.92)" fill="#fff" stroke="#fff" stroke-width="0.3"/>
      <path id="Path_3383" data-name="Path 3383" d="M40.538,9.584a.283.283,0,0,0,.084.013.276.276,0,0,0,.083-.538A8.04,8.04,0,0,0,39.642,8.8a.276.276,0,0,0-.094.543A7.5,7.5,0,0,1,40.538,9.584Z" transform="translate(-13.053 -2.92)" fill="#fff" stroke="#fff" stroke-miterlimit="10" stroke-width="0.3"/>
      <path id="Path_3384" data-name="Path 3384" d="M46.525,13.36a.276.276,0,0,0,.218-.444,8.2,8.2,0,0,0-.723-.82.276.276,0,0,0-.388.391,7.717,7.717,0,0,1,.675.764A.276.276,0,0,0,46.525,13.36Z" transform="translate(-15.122 -3.99)" fill="#fff" stroke="#fff" stroke-width="0.3"/>
      <path id="Path_3385" data-name="Path 3385" d="M46.525,13.36a.276.276,0,0,0,.218-.444,8.2,8.2,0,0,0-.723-.82.276.276,0,0,0-.388.391,7.717,7.717,0,0,1,.675.764A.276.276,0,0,0,46.525,13.36Z" transform="translate(-15.122 -3.99)" fill="#fff" stroke="#fff" stroke-miterlimit="10" stroke-width="0.3"/>
      <path id="Path_3386" data-name="Path 3386" d="M48.187,15.009a.276.276,0,0,0-.487.259,7.582,7.582,0,0,1,.418.931.276.276,0,0,0,.259.18.265.265,0,0,0,.1-.017.275.275,0,0,0,.163-.354A8.132,8.132,0,0,0,48.187,15.009Z" transform="translate(-15.825 -4.935)" fill="#fff" stroke="#fff" stroke-width="0.3"/>
      <path id="Path_3387" data-name="Path 3387" d="M48.187,15.009a.276.276,0,0,0-.487.259,7.582,7.582,0,0,1,.418.931.276.276,0,0,0,.259.18.265.265,0,0,0,.1-.017.275.275,0,0,0,.163-.354A8.132,8.132,0,0,0,48.187,15.009Z" transform="translate(-15.825 -4.935)" fill="#fff" stroke="#fff" stroke-miterlimit="10" stroke-width="0.3"/>
      <path id="Path_3388" data-name="Path 3388" d="M49.391,18.434a.275.275,0,1,0-.541.1,7.766,7.766,0,0,1,.122,1.012.276.276,0,0,0,.275.261h.015a.275.275,0,0,0,.261-.29A8.318,8.318,0,0,0,49.391,18.434Z" transform="translate(-16.216 -6.046)" fill="#fff" stroke="#fff" stroke-width="0.3"/>
      <path id="Path_3389" data-name="Path 3389" d="M49.391,18.434a.275.275,0,1,0-.541.1,7.766,7.766,0,0,1,.122,1.012.276.276,0,0,0,.275.261h.015a.275.275,0,0,0,.261-.29A8.318,8.318,0,0,0,49.391,18.434Z" transform="translate(-16.216 -6.046)" fill="#fff" stroke="#fff" stroke-miterlimit="10" stroke-width="0.3"/>
      <path id="Path_3390" data-name="Path 3390" d="M48.977,23.349a.276.276,0,0,0,.267-.209,8.272,8.272,0,0,0,.192-1.076A.276.276,0,1,0,48.889,22a7.656,7.656,0,0,1-.18,1,.275.275,0,0,0,.2.334A.29.29,0,0,0,48.977,23.349Z" transform="translate(-16.168 -7.223)" fill="#fff" stroke="#fff" stroke-width="0.3"/>
      <path id="Path_3391" data-name="Path 3391" d="M48.977,23.349a.276.276,0,0,0,.267-.209,8.272,8.272,0,0,0,.192-1.076A.276.276,0,1,0,48.889,22a7.656,7.656,0,0,1-.18,1,.275.275,0,0,0,.2.334A.29.29,0,0,0,48.977,23.349Z" transform="translate(-16.168 -7.223)" fill="#fff" stroke="#fff" stroke-miterlimit="10" stroke-width="0.3"/>
      <path id="Path_3392" data-name="Path 3392" d="M32.645,10.09a.28.28,0,0,0,.117-.026,7.455,7.455,0,0,1,.95-.37.275.275,0,0,0-.164-.526,7.977,7.977,0,0,0-1.02.4.276.276,0,0,0,.118.525Z" transform="translate(-10.746 -3.04)" fill="#fff" stroke="#fff" stroke-width="0.3"/>
      <path id="Path_3393" data-name="Path 3393" d="M32.645,10.09a.28.28,0,0,0,.117-.026,7.455,7.455,0,0,1,.95-.37.275.275,0,0,0-.164-.526,7.977,7.977,0,0,0-1.02.4.276.276,0,0,0,.118.525Z" transform="translate(-10.746 -3.04)" fill="#fff" stroke="#fff" stroke-miterlimit="10" stroke-width="0.3"/>
      <path id="Path_3394" data-name="Path 3394" d="M29.885,11.858a7.648,7.648,0,0,1,.8-.638.276.276,0,1,0-.315-.452,8.109,8.109,0,0,0-.853.685.275.275,0,1,0,.373.405Z" transform="translate(-9.768 -3.559)" fill="#fff" stroke="#fff" stroke-width="0.3"/>
      <path id="Path_3395" data-name="Path 3395" d="M29.885,11.858a7.648,7.648,0,0,1,.8-.638.276.276,0,1,0-.315-.452,8.109,8.109,0,0,0-.853.685.275.275,0,1,0,.373.405Z" transform="translate(-9.768 -3.559)" fill="#fff" stroke="#fff" stroke-miterlimit="10" stroke-width="0.3"/>
      <path id="Path_3396" data-name="Path 3396" d="M36.084,9.242A7.637,7.637,0,0,1,37.1,9.176a.269.269,0,0,0,.267-.275.283.283,0,0,0-.284-.276,8.218,8.218,0,0,0-1.074.071.276.276,0,0,0,.036.549A.221.221,0,0,0,36.084,9.242Z" transform="translate(-11.876 -2.864)" fill="#fff" stroke="#fff" stroke-width="0.3"/>
      <path id="Path_3397" data-name="Path 3397" d="M36.084,9.242A7.637,7.637,0,0,1,37.1,9.176a.269.269,0,0,0,.267-.275.283.283,0,0,0-.284-.276,8.218,8.218,0,0,0-1.074.071.276.276,0,0,0,.036.549A.221.221,0,0,0,36.084,9.242Z" transform="translate(-11.876 -2.864)" fill="#fff" stroke="#fff" stroke-miterlimit="10" stroke-width="0.3"/>
      <path id="Path_3398" data-name="Path 3398" d="M43.7,10.976a.273.273,0,0,0,.158.05.276.276,0,0,0,.159-.5,8.091,8.091,0,0,0-.935-.568.276.276,0,0,0-.254.49A7.536,7.536,0,0,1,43.7,10.976Z" transform="translate(-14.17 -3.296)" fill="#fff" stroke="#fff" stroke-width="0.3"/>
      <path id="Path_3399" data-name="Path 3399" d="M43.7,10.976a.273.273,0,0,0,.158.05.276.276,0,0,0,.159-.5,8.091,8.091,0,0,0-.935-.568.276.276,0,0,0-.254.49A7.536,7.536,0,0,1,43.7,10.976Z" transform="translate(-14.17 -3.296)" fill="#fff" stroke="#fff" stroke-miterlimit="10" stroke-width="0.3"/>
      <path id="Path_3400" data-name="Path 3400" d="M48.322,25.232a.275.275,0,0,0-.363.141c-.072.164-.15.325-.23.479a.275.275,0,1,0,.487.257c.088-.166.17-.339.248-.514A.276.276,0,0,0,48.322,25.232Z" transform="translate(-15.834 -8.369)" fill="#fff" stroke="#fff" stroke-width="0.3"/>
      <path id="Path_3401" data-name="Path 3401" d="M48.322,25.232a.275.275,0,0,0-.363.141c-.072.164-.15.325-.23.479a.275.275,0,1,0,.487.257c.088-.166.17-.339.248-.514A.276.276,0,0,0,48.322,25.232Z" transform="translate(-15.834 -8.369)" fill="#fff" stroke="#fff" stroke-miterlimit="10" stroke-width="0.3"/>
      <path id="Path_3402" data-name="Path 3402" d="M41.353,28.7a.276.276,0,1,1-.551,0,.276.276,0,1,1,.551,0" transform="translate(-13.546 -9.437)" fill="#fff" stroke="#fff" stroke-width="0.3"/>
      <path id="Path_3403" data-name="Path 3403" d="M41.353,28.7a.276.276,0,1,1-.551,0,.276.276,0,1,1,.551,0" transform="translate(-13.546 -9.437)" fill="#fff" stroke="#fff" stroke-miterlimit="10" stroke-width="0.3"/>
      <path id="Path_3404" data-name="Path 3404" d="M19.077,13.438a.276.276,0,0,1-.551,0,.276.276,0,0,1,.551,0" transform="translate(-6.15 -4.37)" fill="#fff" stroke="#fff" stroke-width="0.3"/>
      <path id="Path_3405" data-name="Path 3405" d="M19.077,13.438a.276.276,0,0,1-.551,0,.276.276,0,0,1,.551,0" transform="translate(-6.15 -4.37)" fill="#fff" stroke="#fff" stroke-miterlimit="10" stroke-width="0.3"/>
      <path id="Path_3406" data-name="Path 3406" d="M35.648,15.521a10.253,10.253,0,0,0-19.257-4.847.276.276,0,1,0,.485.263A9.676,9.676,0,1,1,31.239,23.21c0-1.125,0-2.748-.005-3.832a1.109,1.109,0,0,0-1.108-1.1h-1.55A2.754,2.754,0,1,0,24.951,14.5a3.054,3.054,0,0,0-3.1-1.733H10.614a.808.808,0,0,0-.869.912v.331l-8.82.64a.6.6,0,0,0-.55.591v8.509l2.2.005v1.767a1.065,1.065,0,0,0,1.1,1.024H34.545a1.065,1.065,0,0,0,1.1-1.024V23.237H32.085a10.151,10.151,0,0,0,3.563-7.716ZM27.38,13.592a2.2,2.2,0,1,1-2.2,2.2,2.207,2.207,0,0,1,2.2-2.2m-2.4,3.549a2.772,2.772,0,0,0,1.209,1.136H24.147a2.324,2.324,0,0,0,.83-1.136M10.3,13.677c0-.337.12-.361.318-.361H21.848c1.764,0,2.777.88,2.777,2.415v.131c0,1.625-.819,2.415-2.5,2.415H10.614c-.2,0-.318-.025-.318-.361ZM.926,15.239A.055.055,0,0,1,.964,15.2l8.78-.637v2.615H.926Zm0,2.487H9.744v.19a1.252,1.252,0,0,0,.049.361H.926Zm0,5.472v-1.89h24.8a.276.276,0,1,0,0-.551H.926V18.828h29.2a.556.556,0,0,1,.557.552c0,1.091,0,2.73.005,3.856C26.885,23.233,4.688,23.208.926,23.2Zm34.17.59V25.52a.517.517,0,0,1-.551.473H3.682a.517.517,0,0,1-.551-.473V23.788Z" transform="translate(-0.124 -1.768)" fill="#fff" stroke="#fff" stroke-width="0.3"/>
      <path id="Path_3407" data-name="Path 3407" d="M35.648,15.521a10.253,10.253,0,0,0-19.257-4.847.276.276,0,1,0,.485.263A9.676,9.676,0,1,1,31.239,23.21c0-1.125,0-2.748-.005-3.832a1.109,1.109,0,0,0-1.108-1.1h-1.55A2.754,2.754,0,1,0,24.951,14.5a3.054,3.054,0,0,0-3.1-1.733H10.614a.808.808,0,0,0-.869.912v.331l-8.82.64a.6.6,0,0,0-.55.591v8.509l2.2.005v1.767a1.065,1.065,0,0,0,1.1,1.024H34.545a1.065,1.065,0,0,0,1.1-1.024V23.237H32.085a10.151,10.151,0,0,0,3.563-7.716ZM27.38,13.592a2.2,2.2,0,1,1-2.2,2.2A2.207,2.207,0,0,1,27.38,13.592Zm-2.4,3.549a2.772,2.772,0,0,0,1.209,1.136H24.147A2.324,2.324,0,0,0,24.977,17.141ZM10.3,13.677c0-.337.12-.361.318-.361H21.848c1.764,0,2.777.88,2.777,2.415v.131c0,1.625-.819,2.415-2.5,2.415H10.614c-.2,0-.318-.025-.318-.361ZM.926,15.239A.055.055,0,0,1,.964,15.2l8.78-.637v2.615H.926Zm0,2.487H9.744v.19a1.252,1.252,0,0,0,.049.361H.926Zm0,5.472v-1.89h24.8a.276.276,0,1,0,0-.551H.926V18.828h29.2a.556.556,0,0,1,.557.552c0,1.091,0,2.73.005,3.856C26.885,23.233,4.688,23.208.926,23.2Zm34.17.59V25.52a.517.517,0,0,1-.551.473H3.682a.517.517,0,0,1-.551-.473V23.788Z" transform="translate(-0.124 -1.768)" fill="#fff" stroke="#fff" stroke-miterlimit="10" stroke-width="0.3"/>
    </g>
  </g>
</svg>
