<svg id="twitter" xmlns="http://www.w3.org/2000/svg" width="40.763" height="33.12" viewBox="0 0 40.763 33.12">
  <g id="Group_14" data-name="Group 14" transform="translate(0 0)">
    <path id="Path_11" data-name="Path 11" d="M40.763,51.921a17.423,17.423,0,0,1-4.815,1.32,8.31,8.31,0,0,0,3.676-4.619,16.7,16.7,0,0,1-5.3,2.023,8.356,8.356,0,0,0-14.455,5.714,8.6,8.6,0,0,0,.194,1.906A23.654,23.654,0,0,1,2.838,49.524,8.359,8.359,0,0,0,5.406,60.692,8.253,8.253,0,0,1,1.63,59.663v.092a8.4,8.4,0,0,0,6.7,8.211,8.341,8.341,0,0,1-2.191.275A7.389,7.389,0,0,1,4.553,68.1a8.436,8.436,0,0,0,7.809,5.821A16.791,16.791,0,0,1,2,77.484a15.652,15.652,0,0,1-2-.115,23.526,23.526,0,0,0,12.82,3.75C28.2,81.12,36.6,68.381,36.6,57.34c0-.369-.013-.726-.031-1.08A16.671,16.671,0,0,0,40.763,51.921Z" transform="translate(0 -48)" fill="#171717"/>
  </g>
</svg>
